<svg version="1.1" id="Layer_1" xmlns="http://www.w3.org/2000/svg" xmlns:xlink="http://www.w3.org/1999/xlink" x="0px" y="0px"
	 width="100%" viewBox="0 0 2800 1400" enable-background="new 0 0 2800 1400" xml:space="preserve">
<path fill="#000000" opacity="1.000000" stroke="none" 
	d="
M2026.000000,1401.000000 
	C1350.666626,1401.000000 675.833313,1401.000000 1.000000,1401.000000 
	C1.000000,934.333313 1.000000,467.666656 1.000000,1.000000 
	C934.333313,1.000000 1867.666626,1.000000 2801.000000,1.000000 
	C2801.000000,467.666656 2801.000000,934.333313 2801.000000,1401.000000 
	C2542.833252,1401.000000 2284.666748,1401.000000 2026.000000,1401.000000 
M458.000000,696.600586 
	C458.955902,690.235718 456.253418,686.154236 451.264343,681.974121 
	C438.051453,670.903931 425.576111,658.955322 412.765717,647.402405 
	C403.110870,638.695312 393.385895,630.066101 383.702728,621.390381 
	C371.089966,610.089905 358.495697,598.768738 345.878265,587.473389 
	C336.191162,578.801270 326.463501,570.174377 316.785309,561.492310 
	C307.456268,553.123474 298.172913,544.703796 288.859711,536.317322 
	C277.499237,526.087219 266.186279,515.803162 254.730209,505.681183 
	C250.858582,502.260376 246.976242,497.350189 242.458847,496.492920 
	C234.510056,494.984497 226.068787,496.071198 217.431641,496.071198 
	C217.992004,497.974823 218.331985,499.238831 218.734985,500.482452 
	C224.484146,518.224060 230.165848,535.987915 236.011948,553.697571 
	C252.451126,603.497009 268.949615,653.276917 285.442017,703.058777 
	C301.934845,752.841919 318.459534,802.614563 334.950104,852.398438 
	C351.492004,902.337280 367.985107,952.292358 384.545807,1002.224976 
	C394.664581,1032.734131 404.919800,1063.197998 415.023376,1093.712280 
	C424.765533,1123.135132 434.352997,1152.609131 444.159485,1182.010254 
	C444.784607,1183.884521 446.600098,1186.613037 448.055328,1186.740845 
	C454.130981,1187.274414 460.280670,1186.965576 466.855560,1186.965576 
	C484.614441,1043.857422 502.310760,901.253235 520.111694,757.805847 
	C499.020477,757.805847 478.654846,757.805847 458.000000,757.805847 
	C458.000000,737.219238 458.000000,717.396362 458.000000,696.600586 
M628.838013,867.273621 
	C624.886475,878.924744 620.863770,890.552307 616.999390,902.232300 
	C610.708191,921.247375 604.553284,940.307495 598.279846,959.328491 
	C592.212463,977.724731 586.037537,996.085449 579.966675,1014.480530 
	C574.720947,1030.375366 569.623291,1046.319336 564.335876,1062.200317 
	C558.319580,1080.271118 552.126465,1098.283081 546.082520,1116.344849 
	C540.603699,1132.718018 535.206299,1149.118530 529.804810,1165.517456 
	C527.516479,1172.464844 525.309509,1179.439087 522.977600,1186.674194 
	C525.917358,1186.937622 528.184143,1187.140747 531.056763,1187.398071 
	C531.056763,1197.812134 531.056763,1207.993896 531.056763,1218.978882 
	C633.422363,1135.978394 735.001099,1053.615723 836.579895,971.253052 
	C836.398376,970.800354 836.216797,970.347717 836.035217,969.895020 
	C823.846619,969.895020 811.658020,969.895020 799.000000,969.895020 
	C799.000000,967.432861 799.000000,965.633972 798.999939,963.835083 
	C798.999573,948.007446 799.042480,932.179565 798.942444,916.352539 
	C798.930420,914.448730 798.735779,912.027588 797.605469,910.746277 
	C794.180664,906.864014 790.295105,903.381042 786.516052,899.820068 
	C775.502930,889.442993 764.326355,879.235840 753.453247,868.714722 
	C740.726624,856.400085 728.354004,843.719910 715.640869,831.391052 
	C702.092834,818.252380 688.325195,805.340149 674.655579,792.326843 
	C669.405518,787.328735 664.161682,782.324219 658.691040,777.109192 
	C657.652954,780.185120 656.803162,782.641479 655.994141,785.111145 
	C651.898987,797.612000 647.863708,810.132690 643.713196,822.615112 
	C638.846130,837.252380 633.882202,851.857422 628.838013,867.273621 
M695.485474,367.991486 
	C688.816162,363.266693 682.162598,358.519409 675.473938,353.822174 
	C664.232361,345.927612 653.035828,337.965057 641.652710,330.279388 
	C639.567200,328.871277 636.413269,327.523407 634.215515,328.056519 
	C622.059326,331.005310 610.067383,334.622528 597.980530,337.866974 
	C567.757996,345.979492 537.513062,354.008209 507.281158,362.085663 
	C499.876312,364.064117 492.486969,366.100464 485.088745,368.110657 
	C487.851929,380.316681 490.481659,391.695618 492.997375,403.099731 
	C497.041046,421.430084 501.006592,439.777618 505.010742,458.116669 
	C507.047272,467.443939 509.012512,476.787994 511.182800,486.084137 
	C511.979980,489.498596 512.221985,493.550507 517.223328,493.930847 
	C519.683411,494.117950 522.122498,494.605316 524.565247,494.993347 
	C543.768188,498.043518 562.991333,500.973450 582.166016,504.192566 
	C604.741882,507.982635 627.260132,512.115173 649.831116,515.935120 
	C674.684875,520.141418 699.586487,524.066833 724.420959,528.381287 
	C727.546936,528.924316 728.360840,528.427429 729.157959,525.471436 
	C730.696777,519.765320 732.842163,514.222778 734.735657,508.612335 
	C739.143494,495.552277 743.635559,482.519928 747.937744,469.425140 
	C753.569031,452.284943 759.050171,435.095459 764.920410,416.922485 
	C761.266052,414.624847 757.156311,412.333191 753.363159,409.601990 
	C741.175659,400.826660 729.148071,391.829498 716.972717,383.037109 
	C710.081238,378.060425 703.021118,373.317200 695.485474,367.991486 
M940.500000,945.000000 
	C950.259766,945.000000 960.019531,945.000000 970.307678,945.000000 
	C970.307678,892.394836 970.307678,840.441345 970.307678,787.300842 
	C1003.183350,840.530518 1035.375854,892.653992 1067.506592,944.677429 
	C1087.260620,944.677429 1107.009521,944.677429 1126.656006,944.677429 
	C1126.656006,866.970764 1126.656006,789.587097 1126.656006,712.375793 
	C1107.917603,712.375793 1089.523926,712.375793 1070.817871,712.375793 
	C1070.817871,755.969421 1070.817871,799.187927 1070.817871,843.653687 
	C1063.433228,832.023071 1056.719360,821.413757 1049.970825,810.826599 
	C1029.744629,779.096130 1009.444275,747.412476 989.373047,715.584351 
	C987.564636,712.716675 985.695496,711.945190 982.635803,711.956787 
	C961.140442,712.038208 939.644653,711.996521 918.148987,712.008911 
	C916.870728,712.009644 915.592590,712.137878 914.293701,712.207947 
	C914.293701,789.934143 914.293701,867.318054 914.293701,945.000000 
	C922.889954,945.000000 931.195007,945.000000 940.500000,945.000000 
M711.790405,648.166504 
	C710.004578,648.445374 708.210754,648.997314 706.434631,648.945190 
	C702.915894,648.842041 700.820312,650.428467 699.724365,653.643494 
	C696.487366,663.139526 693.162964,672.606506 690.006836,682.129211 
	C685.299072,696.333496 680.737915,710.586243 676.054382,724.798584 
	C671.860107,737.526245 667.584717,750.227173 663.353821,762.913757 
	C708.442627,806.317871 753.229065,849.430908 798.015503,892.543945 
	C798.404785,892.368469 798.794067,892.192993 799.183350,892.017578 
	C799.183350,876.480225 799.183350,860.942871 799.183350,844.960266 
	C817.243652,844.960266 834.657227,844.960266 853.048157,844.960266 
	C832.467285,809.371033 812.332397,774.552979 792.208923,739.754761 
	C799.758972,735.658203 806.649048,731.746460 813.690674,728.129700 
	C841.795044,713.694580 869.925232,699.309265 898.087036,684.986450 
	C924.346863,671.631042 950.664307,658.388977 976.936096,645.056946 
	C978.729126,644.146912 980.351868,642.901184 982.053772,641.811584 
	C981.929504,641.452209 981.805237,641.092896 981.680969,640.733521 
	C953.609985,640.733521 925.539062,640.733521 896.891724,640.733521 
	C896.891724,633.640991 896.891724,627.055786 896.891724,620.149597 
	C894.847046,620.149597 893.356262,619.974670 891.919861,620.179993 
	C885.725220,621.065674 879.547180,622.067566 873.361755,623.018127 
	C857.887024,625.396362 842.406433,627.737610 826.937805,630.155029 
	C814.731079,632.062561 802.538452,634.060730 790.339844,636.020203 
	C776.353882,638.266785 762.376953,640.571594 748.379700,642.744995 
	C736.487244,644.591675 724.571350,646.287659 711.790405,648.166504 
M630.865479,823.119019 
	C633.231812,815.449768 635.494629,807.746704 637.989319,800.119446 
	C641.547485,789.240967 645.275574,778.418152 648.883606,767.712341 
	C635.320496,754.631775 622.021240,741.805664 607.871155,728.158997 
	C607.871155,738.667114 607.871155,748.051697 607.871155,758.010498 
	C582.091492,758.010498 556.851685,758.010498 531.308228,758.010498 
	C513.551147,901.175415 495.862183,1043.791138 478.099670,1187.000000 
	C486.890106,1187.000000 495.211243,1186.638550 503.482056,1187.128052 
	C508.919373,1187.449829 510.843292,1185.164185 512.196411,1180.314087 
	C514.801880,1170.975098 518.103516,1161.830078 521.131714,1152.609619 
	C525.441162,1139.488281 529.783203,1126.377808 534.076416,1113.251099 
	C538.524719,1099.650513 542.821716,1085.999512 547.385254,1072.437988 
	C552.464905,1057.342407 557.880432,1042.359741 562.946106,1027.259644 
	C567.756836,1012.919800 572.266602,998.479309 576.977783,984.105774 
	C582.296021,967.880310 587.724915,951.691162 593.041504,935.465271 
	C596.523132,924.839294 599.783508,914.139954 603.334961,903.537781 
	C608.697571,887.528442 614.223755,871.573853 619.687927,855.598633 
	C623.307129,845.017456 626.939575,834.440857 630.865479,823.119019 
M2159.000000,747.500000 
	C2159.000000,735.742371 2159.000000,723.984680 2159.000000,712.354126 
	C2138.291260,712.354126 2118.233398,712.354126 2098.000000,712.354126 
	C2098.000000,713.863037 2098.006592,715.018188 2097.999023,716.173279 
	C2097.666748,766.746582 2097.497803,817.321960 2096.860596,867.891418 
	C2096.734619,877.902344 2093.912842,887.716309 2086.379883,894.997620 
	C2073.925293,907.036560 2058.277588,905.881409 2042.832764,904.293152 
	C2035.241943,903.512634 2028.382324,900.371155 2023.132202,894.583252 
	C2014.229614,884.768738 2012.246094,872.385681 2012.149658,860.007385 
	C2011.779663,812.525635 2012.000000,765.039246 2012.000000,717.554626 
	C2012.000000,715.790283 2012.000000,714.025940 2012.000000,712.337585 
	C1991.323120,712.337585 1971.265381,712.337585 1950.999634,712.337585 
	C1950.999634,714.491516 1950.999634,716.308899 1950.999634,718.126343 
	C1950.999756,765.777588 1950.845093,813.429688 1951.135864,861.079163 
	C1951.191406,870.181519 1952.100708,879.485046 1954.175293,888.330078 
	C1960.406250,914.895996 1977.023438,932.499451 2002.467651,942.210083 
	C2020.457764,949.075989 2039.085938,950.067505 2058.042236,950.124756 
	C2076.239014,950.179688 2093.878418,947.811646 2110.743408,940.940308 
	C2128.488770,933.710266 2142.050049,921.673523 2150.248047,904.212524 
	C2156.277832,891.369019 2158.929443,877.620850 2158.966064,863.462708 
	C2159.065430,825.142029 2159.000000,786.820923 2159.000000,747.500000 
M491.500000,608.000000 
	C502.977417,608.000000 514.454834,608.000000 526.459656,608.000000 
	C525.002380,601.223999 523.697205,594.844177 522.249084,588.497009 
	C520.233337,579.662109 518.009033,570.873962 516.054504,562.026001 
	C511.936829,543.385986 508.002380,524.705017 503.767609,506.092163 
	C503.414917,504.541992 501.529999,502.446350 500.070129,502.180664 
	C485.814697,499.586578 471.496338,497.339142 457.199493,494.971252 
	C440.625946,492.226318 424.055145,489.464691 407.484772,486.700684 
	C388.158936,483.477051 368.830933,480.266388 349.511200,477.006744 
	C330.515167,473.801697 311.533264,470.512970 292.534424,467.324982 
	C286.930817,466.384705 281.290771,465.661530 274.985779,464.739166 
	C274.985779,475.544464 274.985779,485.457184 274.985779,495.619659 
	C271.423859,495.895233 268.407013,496.128632 264.610992,496.422302 
	C329.293396,554.491394 393.282959,611.938416 458.209625,670.226746 
	C458.209625,648.764038 458.209625,628.674561 458.209625,608.000000 
	C469.271423,608.000000 479.885712,608.000000 491.500000,608.000000 
M1160.001221,843.726929 
	C1159.667480,847.651672 1158.820557,851.613586 1159.101807,855.493774 
	C1159.787109,864.949036 1160.517456,874.447266 1162.095581,883.781738 
	C1165.106812,901.591675 1174.413818,916.166138 1188.131104,927.440918 
	C1206.204468,942.296082 1228.037109,948.256531 1250.864380,949.771606 
	C1264.534058,950.678894 1278.366333,949.608154 1292.101562,948.936584 
	C1308.994751,948.110596 1324.783936,942.457947 1340.500244,936.765137 
	C1341.560059,936.381287 1342.881592,934.781616 1342.892944,933.734375 
	C1343.050415,919.285522 1342.999268,904.834412 1342.999268,889.098877 
	C1338.820312,890.188538 1335.120605,890.599609 1331.932251,892.098511 
	C1325.057983,895.330322 1318.660034,899.622986 1311.688110,902.590637 
	C1289.160278,912.179810 1266.131958,913.258179 1242.971313,904.973999 
	C1226.109985,898.943054 1218.341797,884.867432 1217.220947,867.849487 
	C1260.121704,867.849487 1302.987671,867.849487 1345.922485,867.849487 
	C1346.122192,849.513733 1346.572510,831.804382 1341.065186,814.510742 
	C1333.863892,791.897583 1319.052734,777.344849 1296.636353,769.798096 
	C1283.934204,765.521729 1271.011719,765.047424 1257.857300,764.902405 
	C1244.960205,764.760376 1232.323242,766.050293 1220.102783,770.082458 
	C1196.446167,777.887939 1177.931519,792.013855 1168.101196,815.469116 
	C1164.448975,824.183533 1162.650879,833.675110 1160.001221,843.726929 
M1854.707275,767.929504 
	C1851.032715,767.283264 1847.380493,766.433472 1843.679688,766.024536 
	C1823.116943,763.752258 1802.704590,763.919739 1782.952393,771.072693 
	C1760.282104,779.282288 1743.912964,794.613098 1735.211060,816.979553 
	C1726.719727,838.805115 1725.940552,861.604370 1731.062378,884.442444 
	C1735.408691,903.823120 1744.919312,920.319946 1760.962158,932.297363 
	C1775.342285,943.033264 1792.061157,948.775146 1809.799316,949.755127 
	C1825.201538,950.606018 1840.713135,950.832092 1856.082642,947.113525 
	C1894.618408,937.790039 1917.062500,909.435974 1920.700928,871.454895 
	C1921.914062,858.793152 1920.614502,845.664124 1918.792969,832.988770 
	C1915.704590,811.499756 1904.330322,794.433044 1886.960449,781.593628 
	C1877.629883,774.696594 1867.122803,770.005493 1854.707275,767.929504 
M1493.000000,831.500000 
	C1493.000000,850.992249 1492.980225,870.484497 1493.025024,889.976624 
	C1493.030640,892.398743 1492.698364,893.970398 1490.183716,895.517578 
	C1479.347046,902.184814 1467.688232,904.453552 1455.115845,904.094543 
	C1443.252808,903.755859 1435.103271,898.568115 1433.050049,887.451599 
	C1431.365601,878.332336 1430.255371,868.984741 1430.133301,859.721985 
	C1429.764160,831.738159 1430.000000,803.746399 1430.000000,775.757690 
	C1430.000000,773.973999 1430.000000,772.190308 1430.000000,770.264893 
	C1410.803101,770.264893 1392.080322,770.264893 1373.000000,770.264893 
	C1373.000000,772.323669 1373.000000,774.121826 1373.000000,775.920044 
	C1373.000000,810.739319 1372.868042,845.559387 1373.091675,880.377197 
	C1373.148438,889.222168 1373.648071,898.180359 1375.170044,906.871826 
	C1377.296509,919.015381 1383.060547,929.697021 1392.515991,937.787903 
	C1408.018066,951.052673 1426.930786,951.012634 1445.688721,949.770203 
	C1454.678833,949.174744 1463.362183,946.146606 1471.138916,941.028748 
	C1478.235596,936.358521 1485.573120,932.054077 1493.180176,927.356445 
	C1493.180176,933.356140 1493.180176,938.972290 1493.180176,944.738770 
	C1512.188599,944.738770 1530.911377,944.738770 1549.727051,944.738770 
	C1549.727051,886.432434 1549.727051,828.387756 1549.727051,770.300903 
	C1530.729736,770.300903 1512.006714,770.300903 1493.000000,770.300903 
	C1493.000000,790.567017 1493.000000,810.533508 1493.000000,831.500000 
M2685.095215,908.468689 
	C2688.551514,900.529602 2688.566406,892.247681 2688.093018,883.768311 
	C2687.531006,873.699951 2683.699951,865.230469 2677.240234,857.741272 
	C2666.578125,845.379883 2651.799561,841.327881 2636.773193,838.071716 
	C2624.400391,835.390503 2611.838867,833.576843 2599.477051,830.851135 
	C2594.819092,829.824036 2589.775635,828.192505 2586.175781,825.272949 
	C2580.797363,820.910706 2580.836914,811.407532 2591.327637,807.263123 
	C2602.902344,802.690430 2615.148926,802.972534 2626.924316,804.357483 
	C2642.383545,806.175659 2657.071533,811.524475 2670.585449,819.721741 
	C2673.397705,821.427368 2677.034668,821.773682 2680.806885,822.900391 
	C2680.806885,806.786438 2680.806885,792.027161 2680.806885,777.213928 
	C2664.692139,770.228699 2647.812500,766.258362 2630.663574,765.275452 
	C2608.061523,763.979980 2585.311279,763.940186 2563.673584,772.916870 
	C2554.201660,776.846558 2545.456299,782.034180 2538.488770,789.282715 
	C2526.969482,801.266357 2521.992432,815.576660 2524.827393,832.658203 
	C2527.618652,849.474670 2536.443115,861.205444 2551.174316,869.031250 
	C2566.065186,876.941589 2582.520996,878.996216 2598.745117,882.111267 
	C2607.429932,883.778809 2616.148926,885.930176 2624.381592,889.089539 
	C2631.471436,891.810364 2632.459229,899.618164 2626.652100,904.552551 
	C2623.602051,907.144470 2619.349609,909.534058 2615.509277,909.756409 
	C2603.876221,910.430054 2592.078125,910.970398 2580.531738,909.765503 
	C2564.777100,908.121521 2550.025391,902.523315 2536.527588,894.012756 
	C2532.528320,891.491211 2528.654785,888.681824 2523.247559,890.436462 
	C2523.247559,905.749084 2523.247559,921.184082 2523.247559,936.426819 
	C2540.329346,943.826111 2558.193848,948.516174 2576.468994,949.660522 
	C2595.353760,950.843079 2614.562500,951.642761 2633.216797,946.861389 
	C2655.332275,941.192932 2674.936035,931.718201 2685.095215,908.468689 
M712.147766,575.814209 
	C716.156372,564.192078 720.164978,552.569946 724.463989,540.105835 
	C654.697693,528.302246 585.574341,516.607422 515.596863,504.768066 
	C523.393005,539.813843 530.921997,573.658875 538.606689,608.203613 
	C561.657715,608.203613 584.680481,608.203613 608.256409,608.203613 
	C608.256409,623.486084 608.256409,638.032227 608.256409,652.687012 
	C620.248535,651.023315 631.675659,649.538879 643.069397,647.832153 
	C657.720215,645.637512 672.340454,643.239624 686.983032,640.988708 
	C690.004211,640.524231 691.954773,639.432922 692.602051,636.013123 
	C693.299194,632.330505 694.759583,628.787659 695.943787,625.202637 
	C701.295776,609.000488 706.667847,592.804993 712.147766,575.814209 
M419.826660,373.146942 
	C436.830841,368.649231 453.835022,364.151520 471.086029,359.588501 
	C467.773773,344.625214 464.622253,330.164642 461.362854,315.728394 
	C458.316132,302.234283 455.048920,288.789429 452.070679,275.280579 
	C448.207031,257.755890 444.542877,240.187256 440.767426,222.643005 
	C440.225433,220.124557 439.000580,218.757416 435.981598,218.919235 
	C430.498169,219.213135 424.984161,218.893906 419.490967,219.075058 
	C417.976959,219.124985 415.973663,219.589935 415.071381,220.627045 
	C403.424194,234.014847 391.867950,247.483597 380.426300,261.047913 
	C369.306732,274.230347 358.475800,287.657654 347.274231,300.769073 
	C338.191528,311.400391 328.620636,321.613678 319.493378,332.208008 
	C306.417358,347.385834 293.518494,362.716888 280.620819,378.047119 
	C278.556244,380.501038 275.517822,383.182831 275.298096,385.947540 
	C274.606567,394.648193 275.043365,403.438538 275.043365,412.277100 
	C276.766144,412.101654 277.971527,412.150116 279.076904,411.841034 
	C300.141388,405.951294 321.172302,399.940399 342.256989,394.124329 
	C356.229370,390.270111 370.285004,386.718750 384.285309,382.964478 
	C395.897644,379.850555 407.483582,376.638214 419.826660,373.146942 
M2203.999023,753.498169 
	C2203.999023,758.926819 2203.999023,764.355408 2203.999023,770.247131 
	C2195.946289,770.247131 2188.539795,770.247131 2181.222656,770.247131 
	C2181.222656,783.005493 2181.222656,795.282288 2181.222656,808.036499 
	C2188.834229,808.036499 2196.239502,808.036499 2203.999023,808.036499 
	C2203.999023,810.142822 2203.999268,811.773315 2203.999268,813.403748 
	C2203.999268,835.902222 2203.808350,858.403137 2204.090576,880.898071 
	C2204.208008,890.249939 2204.615234,899.711365 2206.176758,908.904541 
	C2208.333984,921.606506 2214.333984,932.163330 2226.005615,939.111023 
	C2235.052490,944.496521 2244.931152,947.413879 2255.014404,947.747498 
	C2274.678955,948.398071 2294.540283,949.508179 2313.662109,943.399902 
	C2313.662109,930.616699 2313.662109,917.868469 2313.662109,904.085510 
	C2306.999756,905.688721 2300.959717,907.906738 2294.777344,908.424744 
	C2287.982910,908.993958 2280.863770,908.887207 2274.241455,907.443970 
	C2267.062988,905.879639 2262.013428,896.499451 2262.006836,887.589050 
	C2261.987793,862.424072 2261.998047,837.259033 2262.013916,812.094055 
	C2262.014648,810.819946 2262.177002,809.546021 2262.295410,807.817627 
	C2279.652832,807.817627 2296.718750,807.817627 2313.632812,807.817627 
	C2313.632812,794.938110 2313.632812,782.541870 2313.632812,769.852051 
	C2296.322754,769.852051 2279.378174,769.852051 2261.960938,769.852051 
	C2261.960938,753.156677 2261.960938,736.756409 2261.960938,720.292419 
	C2242.420898,720.292419 2223.359863,720.292419 2203.999023,720.292419 
	C2203.999023,731.221252 2203.999023,741.859924 2203.999023,753.498169 
M512.460510,178.970932 
	C506.854767,177.305984 501.249023,175.641037 495.031219,173.794312 
	C495.031219,186.005997 494.980072,197.473618 495.111786,208.939102 
	C495.124725,210.063171 495.994507,211.529068 496.923950,212.228806 
	C500.569366,214.973373 504.399323,217.472610 508.158417,220.066330 
	C517.076294,226.219482 526.034607,232.315125 534.898376,238.545197 
	C544.088013,245.004288 553.150635,251.643906 562.333374,258.112915 
	C571.191467,264.353241 580.172424,270.419373 589.025085,276.667267 
	C598.070129,283.050995 607.047607,289.531372 616.011108,296.029541 
	C621.967407,300.347595 627.733643,304.937500 633.805603,309.082520 
	C637.218018,311.411957 640.409851,313.750000 645.530762,312.215179 
	C664.286255,306.593719 683.218872,301.554443 702.128174,296.456879 
	C725.185364,290.241180 748.272766,284.135773 771.374695,278.088196 
	C781.479309,275.443054 781.513428,275.561768 780.855774,265.320374 
	C780.836060,265.012573 780.605591,264.718323 780.467773,264.420349 
	C763.664551,259.124359 746.845886,253.876770 730.061401,248.522079 
	C697.628235,238.175018 665.210266,227.780273 632.794861,217.377792 
	C622.285217,214.005173 611.819275,210.496277 601.305542,207.136871 
	C571.965454,197.761963 542.610779,188.432678 512.460510,178.970932 
M326.575836,410.990387 
	C324.551880,411.674408 322.557770,412.468750 320.499237,413.024658 
	C306.510864,416.801971 292.495483,420.480438 278.533325,424.351410 
	C277.213593,424.717285 275.229553,426.159302 275.198059,427.153717 
	C274.930969,435.594055 275.045410,444.046478 275.045410,452.734314 
	C350.213806,465.427307 424.840973,478.028900 500.409210,490.789429 
	C491.396484,450.424652 482.594147,411.002106 473.683258,371.093506 
	C461.044586,374.698273 448.889038,378.297913 436.659485,381.625702 
	C411.400726,388.498779 386.106567,395.242126 360.818634,402.007690 
	C349.680115,404.987701 338.521240,407.891724 326.575836,410.990387 
M2466.500000,702.000000 
	C2456.410889,702.000000 2446.321533,702.000000 2436.298584,702.000000 
	C2436.298584,783.331604 2436.298584,864.020874 2436.298584,944.679138 
	C2455.318604,944.679138 2474.038330,944.679138 2492.701660,944.679138 
	C2492.701660,863.668640 2492.701660,782.979370 2492.701660,702.000000 
	C2484.103760,702.000000 2475.802002,702.000000 2466.500000,702.000000 
M1673.412598,777.935791 
	C1665.337402,783.117249 1657.262207,788.298645 1648.867065,793.685425 
	C1648.867065,785.853760 1648.867065,778.100220 1648.867065,770.289124 
	C1629.750732,770.289124 1611.029053,770.289124 1592.294189,770.289124 
	C1592.294189,828.619690 1592.294189,886.660645 1592.294189,944.679688 
	C1611.312500,944.679688 1630.034668,944.679688 1649.006104,944.679688 
	C1649.006104,906.080078 1649.006104,867.799622 1649.006104,829.687561 
	C1672.070312,819.955139 1695.977783,823.156067 1719.709473,824.038452 
	C1719.709473,805.751526 1719.709473,788.028625 1719.709473,770.348389 
	C1703.693970,768.932007 1688.355835,770.010071 1673.412598,777.935791 
M877.486023,479.989258 
	C883.751770,484.503815 890.017578,489.018372 897.278931,494.250275 
	C897.278931,483.773193 897.278931,474.547577 897.278931,464.879120 
	C910.297241,464.879120 922.695435,464.879120 935.614075,464.879120 
	C934.961426,463.420715 934.685791,462.483398 934.171448,461.703430 
	C924.370239,446.838531 914.560120,431.979431 904.713257,417.144775 
	C887.778625,391.632233 870.795227,366.152039 853.877075,340.628571 
	C846.063721,328.841003 838.238403,317.058136 830.655701,305.122375 
	C827.430847,300.046265 822.697021,302.319427 818.593201,302.245300 
	C817.226013,302.220551 815.157349,304.560852 814.537537,306.237122 
	C812.384583,312.059296 810.798218,318.087921 808.866516,323.995544 
	C804.277222,338.030151 799.628296,352.045319 794.975952,366.059204 
	C790.010132,381.017181 785.012695,395.964661 779.848816,411.457489 
	C790.954468,419.209595 802.082886,426.925415 813.155884,434.720032 
	C826.910095,444.402100 840.600464,454.174927 854.353821,463.858215 
	C861.842957,469.131042 869.405640,474.299561 877.486023,479.989258 
M984.500000,588.000000 
	C973.076416,588.000000 961.652893,588.000000 949.776428,588.000000 
	C949.776428,552.634644 949.776428,517.914185 949.776428,483.375427 
	C937.914001,483.375427 926.519836,483.375427 915.391968,483.375427 
	C915.391968,530.132019 915.391968,576.512512 915.391968,622.770142 
	C962.047058,622.770142 1008.309814,622.770142 1054.754517,622.770142 
	C1054.754517,576.159119 1054.754517,529.778198 1054.754517,483.276611 
	C1043.115723,483.276611 1031.724243,483.276611 1019.870178,483.276611 
	C1019.870178,518.270752 1019.870178,552.991150 1019.870178,588.000000 
	C1008.104919,588.000000 996.802490,588.000000 984.500000,588.000000 
M499.373932,351.878754 
	C513.478638,347.927948 527.549011,343.849365 541.695679,340.054901 
	C565.710449,333.613525 589.784424,327.392670 613.802551,320.963470 
	C616.938171,320.124146 619.890625,318.600616 623.123108,317.316467 
	C613.260864,310.391388 604.043396,303.897308 594.801208,297.438629 
	C590.226318,294.241577 585.566711,291.164886 581.014099,287.936920 
	C571.714905,281.343414 562.491150,274.643188 553.179077,268.068085 
	C547.696655,264.197083 542.050842,260.557373 536.573975,256.678864 
	C528.330566,250.841248 520.171448,244.884598 511.975098,238.980453 
	C505.225403,234.118408 498.538544,229.165161 491.692749,224.442337 
	C488.733856,222.401047 485.534424,219.524445 482.289124,219.303284 
	C472.377686,218.627869 462.390869,219.058044 451.811859,219.058044 
	C462.076782,265.065613 472.200195,310.438751 482.456879,356.409210 
	C488.174255,354.893494 493.387604,353.511383 499.373932,351.878754 
M715.528259,605.923462 
	C712.052917,616.315979 708.577637,626.708435 704.955566,637.539856 
	C708.867798,637.174927 711.802490,637.061646 714.682617,636.604370 
	C726.070618,634.796204 737.426941,632.785522 748.822510,631.028320 
	C762.994995,628.842896 777.208313,626.921814 791.379150,624.725891 
	C809.613098,621.900391 827.812195,618.850220 846.045288,616.019043 
	C861.842163,613.566284 877.681213,611.378784 893.449585,608.760864 
	C894.828857,608.531921 896.795410,605.999634 896.837097,604.491577 
	C897.131287,593.833923 896.920654,583.163513 897.040039,572.499084 
	C897.073608,569.496460 895.657288,568.445251 892.978210,568.008667 
	C870.864258,564.404724 848.760803,560.736389 826.653442,557.091797 
	C796.754944,552.162659 766.855957,547.237366 736.682190,542.265137 
	C736.355347,543.036072 735.921997,543.892944 735.620667,544.793945 
	C731.717346,556.462402 727.792114,568.123840 723.957214,579.814880 
	C721.189636,588.251831 718.548523,596.730225 715.528259,605.923462 
M788.370178,539.047485 
	C799.729065,541.026611 811.083557,543.031616 822.447876,544.978943 
	C841.443176,548.233826 860.439941,551.480408 879.446716,554.667603 
	C885.054565,555.607971 890.697937,556.336609 896.462708,557.182495 
	C896.726624,555.764099 896.946411,555.130066 896.947754,554.495483 
	C896.977600,540.665710 897.058716,526.834900 896.880127,513.007507 
	C896.861572,511.573029 895.582275,509.758911 894.355347,508.808167 
	C890.222107,505.605255 885.826477,502.743256 881.571289,499.694916 
	C873.355469,493.809235 865.201355,487.836731 856.955139,481.994202 
	C851.322083,478.003082 845.518555,474.252258 839.894104,470.249451 
	C831.117065,464.003113 822.442810,457.612610 813.695312,451.324554 
	C807.728760,447.035553 801.747375,442.765350 795.707397,438.580994 
	C789.127319,434.022461 782.471863,429.572876 775.495483,424.835602 
	C763.640320,460.518677 752.026733,495.474640 740.239929,530.952026 
	C756.369751,533.698792 771.934875,536.349426 788.370178,539.047485 
M483.000000,637.643494 
	C483.000000,669.366150 483.000000,701.088745 483.000000,732.649658 
	C516.735840,732.649658 549.775818,732.649658 582.646667,732.649658 
	C582.646667,699.258240 582.646667,666.218201 582.646667,633.001343 
	C550.168762,633.001343 518.043701,633.042847 485.919159,632.935974 
	C482.772308,632.925476 482.868530,634.575134 483.000000,637.643494 
M2337.000000,778.551208 
	C2337.000000,833.936829 2337.000000,889.322388 2337.000000,944.684021 
	C2356.312988,944.684021 2375.030518,944.684021 2393.700195,944.684021 
	C2393.700195,886.340576 2393.700195,828.313599 2393.700195,770.319336 
	C2374.680908,770.319336 2355.963379,770.319336 2337.000000,770.319336 
	C2337.000000,772.947876 2337.000000,775.258972 2337.000000,778.551208 
M745.053162,297.470215 
	C715.026489,305.663849 684.999878,313.857513 653.501892,322.452667 
	C692.664978,350.026306 730.866150,376.922699 769.420288,404.067627 
	C780.741394,369.799805 791.840576,336.203613 803.224548,301.745361 
	C795.389954,301.745361 788.334106,301.745361 780.747192,301.745361 
	C780.747192,296.812927 780.747192,292.577026 780.747192,287.785553 
	C768.657104,291.025848 757.235657,294.086884 745.053162,297.470215 
M145.107758,366.775604 
	C145.107758,403.044983 145.107758,439.314362 145.107758,475.731842 
	C153.531448,475.731842 161.591339,475.731842 170.175095,475.731842 
	C170.175095,450.143402 170.175095,424.818665 170.175095,398.241608 
	C172.008148,400.731720 173.023941,402.167908 174.096527,403.560333 
	C191.894867,426.666260 209.675018,449.786377 227.565964,472.820435 
	C228.663010,474.232819 230.612595,475.786011 232.227020,475.856049 
	C239.664581,476.178680 247.123962,475.998260 254.749176,475.998260 
	C254.749176,439.158783 254.749176,402.772156 254.749176,366.284149 
	C246.435608,366.284149 238.375534,366.284149 229.787567,366.284149 
	C229.787567,391.883575 229.787567,417.202911 229.787567,443.733704 
	C227.973846,441.254486 226.959198,439.803131 225.879745,438.401642 
	C208.092133,415.307587 190.345215,392.181580 172.400085,369.210449 
	C171.108154,367.556702 168.397507,366.255798 166.275787,366.144989 
	C159.466507,365.789398 152.623993,366.069794 145.107758,366.775604 
M453.500000,204.000000 
	C462.252991,204.000000 471.005981,204.000000 479.683594,204.000000 
	C479.683594,176.994736 479.683594,150.623718 479.683594,124.316284 
	C452.994965,124.316284 426.623962,124.316284 400.316162,124.316284 
	C400.316162,151.004807 400.316162,177.375824 400.316162,204.000000 
	C417.920746,204.000000 435.210388,204.000000 453.500000,204.000000 
M899.000000,900.500000 
	C899.000000,890.416077 899.000000,880.332092 899.000000,870.313599 
	C873.666870,870.313599 848.962524,870.313599 824.313477,870.313599 
	C824.313477,895.332825 824.313477,920.036987 824.313477,944.686646 
	C849.332642,944.686646 874.036987,944.686646 899.000000,944.686646 
	C899.000000,930.083191 899.000000,915.791565 899.000000,900.500000 
M296.113373,339.629456 
	C302.573212,331.881042 308.955139,324.065979 315.511505,316.400116 
	C324.900726,305.422028 334.431396,294.565033 343.874756,283.633087 
	C350.771271,275.649475 357.649841,267.650055 364.491119,259.619171 
	C374.818329,247.496201 385.119629,235.351028 395.386536,223.177002 
	C396.267120,222.132874 396.808167,220.802460 397.725464,219.230560 
	C393.078979,219.025009 389.180176,218.852539 384.820465,218.659683 
	C384.820465,210.677429 384.820465,203.294205 384.820465,195.064545 
	C383.043945,196.667572 381.879150,197.550140 380.915253,198.614609 
	C371.824341,208.653549 362.790802,218.744461 353.695068,228.778976 
	C343.481781,240.046448 333.221863,251.271622 322.981110,262.514191 
	C312.742218,273.754669 302.546295,285.034760 292.250763,296.223145 
	C279.815155,309.737274 267.267090,323.147980 254.833679,336.664185 
	C252.318939,339.397919 250.098953,342.402802 247.044739,346.136353 
	C256.841400,346.136353 265.702942,346.136353 275.236572,346.136353 
	C275.236572,351.921906 275.236572,357.063477 275.236572,362.205078 
	C275.602905,362.310883 275.969238,362.416718 276.335571,362.522552 
	C282.848511,355.119293 289.361420,347.716064 296.113373,339.629456 
M653.432556,752.608948 
	C664.661499,719.328857 675.890381,686.048767 687.343933,652.102905 
	C660.313782,656.302368 634.359619,660.334656 608.044739,664.422974 
	C608.044739,679.225708 607.964600,693.682373 608.160217,708.135315 
	C608.181335,709.697449 609.493774,711.557129 610.724915,712.739746 
	C624.662109,726.127502 638.700378,739.409973 653.432556,752.608948 
M451.000000,1236.500000 
	C451.000000,1246.582397 451.000000,1256.664795 451.000000,1266.688721 
	C472.995392,1266.688721 494.366425,1266.688721 515.688843,1266.688721 
	C515.688843,1245.004883 515.688843,1223.633789 515.688843,1202.311035 
	C494.005219,1202.311035 472.634155,1202.311035 451.000000,1202.311035 
	C451.000000,1213.580078 451.000000,1224.540039 451.000000,1236.500000 
M2336.000000,739.383972 
	C2336.000000,741.152161 2336.000000,742.920410 2336.000000,744.719849 
	C2356.271484,744.719849 2375.973633,744.719849 2395.712402,744.719849 
	C2395.712402,730.394592 2395.712402,716.351440 2395.712402,702.284607 
	C2375.721191,702.284607 2356.019043,702.284607 2336.000000,702.284607 
	C2336.000000,714.514526 2336.000000,726.462463 2336.000000,739.383972 
M823.498657,242.000000 
	C812.754578,242.000000 802.010559,242.000000 791.305115,242.000000 
	C791.305115,258.983521 791.305115,275.354675 791.305115,291.695007 
	C807.983276,291.695007 824.354431,291.695007 840.695129,291.695007 
	C840.695129,275.016998 840.695129,258.645813 840.695129,242.000000 
	C835.094482,242.000000 829.796204,242.000000 823.498657,242.000000 
z"/>
<path fill="#084B83" opacity="1.000000" stroke="none" 
	d="
M458.000000,697.087036 
	C458.000000,717.396362 458.000000,737.219238 458.000000,757.805847 
	C478.654846,757.805847 499.020477,757.805847 520.111694,757.805847 
	C502.310760,901.253235 484.614441,1043.857422 466.855560,1186.965576 
	C460.280670,1186.965576 454.130981,1187.274414 448.055328,1186.740845 
	C446.600098,1186.613037 444.784607,1183.884521 444.159485,1182.010254 
	C434.352997,1152.609131 424.765533,1123.135132 415.023376,1093.712280 
	C404.919800,1063.197998 394.664581,1032.734131 384.545807,1002.224976 
	C367.985107,952.292358 351.492004,902.337280 334.950104,852.398438 
	C318.459534,802.614563 301.934845,752.841919 285.442017,703.058777 
	C268.949615,653.276917 252.451126,603.497009 236.011948,553.697571 
	C230.165848,535.987915 224.484146,518.224060 218.734985,500.482452 
	C218.331985,499.238831 217.992004,497.974823 217.431641,496.071198 
	C226.068787,496.071198 234.510056,494.984497 242.458847,496.492920 
	C246.976242,497.350189 250.858582,502.260376 254.730209,505.681183 
	C266.186279,515.803162 277.499237,526.087219 288.859711,536.317322 
	C298.172913,544.703796 307.456268,553.123474 316.785309,561.492310 
	C326.463501,570.174377 336.191162,578.801270 345.878265,587.473389 
	C358.495697,598.768738 371.089966,610.089905 383.702728,621.390381 
	C393.385895,630.066101 403.110870,638.695312 412.765717,647.402405 
	C425.576111,658.955322 438.051453,670.903931 451.264343,681.974121 
	C456.253418,686.154236 458.955902,690.235718 458.000000,697.087036 
z"/>
<path fill="#084B83" opacity="1.000000" stroke="none" 
	d="
M628.899170,866.875000 
	C633.882202,851.857422 638.846130,837.252380 643.713196,822.615112 
	C647.863708,810.132690 651.898987,797.612000 655.994141,785.111145 
	C656.803162,782.641479 657.652954,780.185120 658.691040,777.109192 
	C664.161682,782.324219 669.405518,787.328735 674.655579,792.326843 
	C688.325195,805.340149 702.092834,818.252380 715.640869,831.391052 
	C728.354004,843.719910 740.726624,856.400085 753.453247,868.714722 
	C764.326355,879.235840 775.502930,889.442993 786.516052,899.820068 
	C790.295105,903.381042 794.180664,906.864014 797.605469,910.746277 
	C798.735779,912.027588 798.930420,914.448730 798.942444,916.352539 
	C799.042480,932.179565 798.999573,948.007446 798.999939,963.835083 
	C799.000000,965.633972 799.000000,967.432861 799.000000,969.895020 
	C811.658020,969.895020 823.846619,969.895020 836.035217,969.895020 
	C836.216797,970.347717 836.398376,970.800354 836.579895,971.253052 
	C735.001099,1053.615723 633.422363,1135.978394 531.056763,1218.978882 
	C531.056763,1207.993896 531.056763,1197.812134 531.056763,1187.398071 
	C528.184143,1187.140747 525.917358,1186.937622 522.977600,1186.674194 
	C525.309509,1179.439087 527.516479,1172.464844 529.804810,1165.517456 
	C535.206299,1149.118530 540.603699,1132.718018 546.082520,1116.344849 
	C552.126465,1098.283081 558.319580,1080.271118 564.335876,1062.200317 
	C569.623291,1046.319336 574.720947,1030.375366 579.966675,1014.480530 
	C586.037537,996.085449 592.212463,977.724731 598.279846,959.328491 
	C604.553284,940.307495 610.708191,921.247375 616.999390,902.232300 
	C620.863770,890.552307 624.886475,878.924744 628.899170,866.875000 
z"/>
<path fill="#084B83" opacity="1.000000" stroke="none" 
	d="
M695.761230,368.230164 
	C703.021118,373.317200 710.081238,378.060425 716.972717,383.037109 
	C729.148071,391.829498 741.175659,400.826660 753.363159,409.601990 
	C757.156311,412.333191 761.266052,414.624847 764.920410,416.922485 
	C759.050171,435.095459 753.569031,452.284943 747.937744,469.425140 
	C743.635559,482.519928 739.143494,495.552277 734.735657,508.612335 
	C732.842163,514.222778 730.696777,519.765320 729.157959,525.471436 
	C728.360840,528.427429 727.546936,528.924316 724.420959,528.381287 
	C699.586487,524.066833 674.684875,520.141418 649.831116,515.935120 
	C627.260132,512.115173 604.741882,507.982635 582.166016,504.192566 
	C562.991333,500.973450 543.768188,498.043518 524.565247,494.993347 
	C522.122498,494.605316 519.683411,494.117950 517.223328,493.930847 
	C512.221985,493.550507 511.979980,489.498596 511.182800,486.084137 
	C509.012512,476.787994 507.047272,467.443939 505.010742,458.116669 
	C501.006592,439.777618 497.041046,421.430084 492.997375,403.099731 
	C490.481659,391.695618 487.851929,380.316681 485.088745,368.110657 
	C492.486969,366.100464 499.876312,364.064117 507.281158,362.085663 
	C537.513062,354.008209 567.757996,345.979492 597.980530,337.866974 
	C610.067383,334.622528 622.059326,331.005310 634.215515,328.056519 
	C636.413269,327.523407 639.567200,328.871277 641.652710,330.279388 
	C653.035828,337.965057 664.232361,345.927612 675.473938,353.822174 
	C682.162598,358.519409 688.816162,363.266693 695.761230,368.230164 
z"/>
<path fill="#5DB1F1" opacity="1.000000" stroke="none" 
	d="
M940.000000,945.000000 
	C931.195007,945.000000 922.889954,945.000000 914.293701,945.000000 
	C914.293701,867.318054 914.293701,789.934143 914.293701,712.207947 
	C915.592590,712.137878 916.870728,712.009644 918.148987,712.008911 
	C939.644653,711.996521 961.140442,712.038208 982.635803,711.956787 
	C985.695496,711.945190 987.564636,712.716675 989.373047,715.584351 
	C1009.444275,747.412476 1029.744629,779.096130 1049.970825,810.826599 
	C1056.719360,821.413757 1063.433228,832.023071 1070.817871,843.653687 
	C1070.817871,799.187927 1070.817871,755.969421 1070.817871,712.375793 
	C1089.523926,712.375793 1107.917603,712.375793 1126.656006,712.375793 
	C1126.656006,789.587097 1126.656006,866.970764 1126.656006,944.677429 
	C1107.009521,944.677429 1087.260620,944.677429 1067.506592,944.677429 
	C1035.375854,892.653992 1003.183350,840.530518 970.307678,787.300842 
	C970.307678,840.441345 970.307678,892.394836 970.307678,945.000000 
	C960.019531,945.000000 950.259766,945.000000 940.000000,945.000000 
z"/>
<path fill="#084B83" opacity="1.000000" stroke="none" 
	d="
M712.228149,648.108398 
	C724.571350,646.287659 736.487244,644.591675 748.379700,642.744995 
	C762.376953,640.571594 776.353882,638.266785 790.339844,636.020203 
	C802.538452,634.060730 814.731079,632.062561 826.937805,630.155029 
	C842.406433,627.737610 857.887024,625.396362 873.361755,623.018127 
	C879.547180,622.067566 885.725220,621.065674 891.919861,620.179993 
	C893.356262,619.974670 894.847046,620.149597 896.891724,620.149597 
	C896.891724,627.055786 896.891724,633.640991 896.891724,640.733521 
	C925.539062,640.733521 953.609985,640.733521 981.680969,640.733521 
	C981.805237,641.092896 981.929504,641.452209 982.053772,641.811584 
	C980.351868,642.901184 978.729126,644.146912 976.936096,645.056946 
	C950.664307,658.388977 924.346863,671.631042 898.087036,684.986450 
	C869.925232,699.309265 841.795044,713.694580 813.690674,728.129700 
	C806.649048,731.746460 799.758972,735.658203 792.208923,739.754761 
	C812.332397,774.552979 832.467285,809.371033 853.048157,844.960266 
	C834.657227,844.960266 817.243652,844.960266 799.183350,844.960266 
	C799.183350,860.942871 799.183350,876.480225 799.183350,892.017578 
	C798.794067,892.192993 798.404785,892.368469 798.015503,892.543945 
	C753.229065,849.430908 708.442627,806.317871 663.353821,762.913757 
	C667.584717,750.227173 671.860107,737.526245 676.054382,724.798584 
	C680.737915,710.586243 685.299072,696.333496 690.006836,682.129211 
	C693.162964,672.606506 696.487366,663.139526 699.724365,653.643494 
	C700.820312,650.428467 702.915894,648.842041 706.434631,648.945190 
	C708.210754,648.997314 710.004578,648.445374 712.228149,648.108398 
z"/>
<path fill="#084B83" opacity="1.000000" stroke="none" 
	d="
M630.715820,823.490601 
	C626.939575,834.440857 623.307129,845.017456 619.687927,855.598633 
	C614.223755,871.573853 608.697571,887.528442 603.334961,903.537781 
	C599.783508,914.139954 596.523132,924.839294 593.041504,935.465271 
	C587.724915,951.691162 582.296021,967.880310 576.977783,984.105774 
	C572.266602,998.479309 567.756836,1012.919800 562.946106,1027.259644 
	C557.880432,1042.359741 552.464905,1057.342407 547.385254,1072.437988 
	C542.821716,1085.999512 538.524719,1099.650513 534.076416,1113.251099 
	C529.783203,1126.377808 525.441162,1139.488281 521.131714,1152.609619 
	C518.103516,1161.830078 514.801880,1170.975098 512.196411,1180.314087 
	C510.843292,1185.164185 508.919373,1187.449829 503.482056,1187.128052 
	C495.211243,1186.638550 486.890106,1187.000000 478.099670,1187.000000 
	C495.862183,1043.791138 513.551147,901.175415 531.308228,758.010498 
	C556.851685,758.010498 582.091492,758.010498 607.871155,758.010498 
	C607.871155,748.051697 607.871155,738.667114 607.871155,728.158997 
	C622.021240,741.805664 635.320496,754.631775 648.883606,767.712341 
	C645.275574,778.418152 641.547485,789.240967 637.989319,800.119446 
	C635.494629,807.746704 633.231812,815.449768 630.715820,823.490601 
z"/>
<path fill="#5DB1F1" opacity="1.000000" stroke="none" 
	d="
M2159.000000,748.000000 
	C2159.000000,786.820923 2159.065430,825.142029 2158.966064,863.462708 
	C2158.929443,877.620850 2156.277832,891.369019 2150.248047,904.212524 
	C2142.050049,921.673523 2128.488770,933.710266 2110.743408,940.940308 
	C2093.878418,947.811646 2076.239014,950.179688 2058.042236,950.124756 
	C2039.085938,950.067505 2020.457764,949.075989 2002.467651,942.210083 
	C1977.023438,932.499451 1960.406250,914.895996 1954.175293,888.330078 
	C1952.100708,879.485046 1951.191406,870.181519 1951.135864,861.079163 
	C1950.845093,813.429688 1950.999756,765.777588 1950.999634,718.126343 
	C1950.999634,716.308899 1950.999634,714.491516 1950.999634,712.337585 
	C1971.265381,712.337585 1991.323120,712.337585 2012.000000,712.337585 
	C2012.000000,714.025940 2012.000000,715.790283 2012.000000,717.554626 
	C2012.000000,765.039246 2011.779663,812.525635 2012.149658,860.007385 
	C2012.246094,872.385681 2014.229614,884.768738 2023.132202,894.583252 
	C2028.382324,900.371155 2035.241943,903.512634 2042.832764,904.293152 
	C2058.277588,905.881409 2073.925293,907.036560 2086.379883,894.997620 
	C2093.912842,887.716309 2096.734619,877.902344 2096.860596,867.891418 
	C2097.497803,817.321960 2097.666748,766.746582 2097.999023,716.173279 
	C2098.006592,715.018188 2098.000000,713.863037 2098.000000,712.354126 
	C2118.233398,712.354126 2138.291260,712.354126 2159.000000,712.354126 
	C2159.000000,723.984680 2159.000000,735.742371 2159.000000,748.000000 
z"/>
<path fill="#084B83" opacity="1.000000" stroke="none" 
	d="
M491.000000,608.000000 
	C479.885712,608.000000 469.271423,608.000000 458.209625,608.000000 
	C458.209625,628.674561 458.209625,648.764038 458.209625,670.226746 
	C393.282959,611.938416 329.293396,554.491394 264.610992,496.422302 
	C268.407013,496.128632 271.423859,495.895233 274.985779,495.619659 
	C274.985779,485.457184 274.985779,475.544464 274.985779,464.739166 
	C281.290771,465.661530 286.930817,466.384705 292.534424,467.324982 
	C311.533264,470.512970 330.515167,473.801697 349.511200,477.006744 
	C368.830933,480.266388 388.158936,483.477051 407.484772,486.700684 
	C424.055145,489.464691 440.625946,492.226318 457.199493,494.971252 
	C471.496338,497.339142 485.814697,499.586578 500.070129,502.180664 
	C501.529999,502.446350 503.414917,504.541992 503.767609,506.092163 
	C508.002380,524.705017 511.936829,543.385986 516.054504,562.026001 
	C518.009033,570.873962 520.233337,579.662109 522.249084,588.497009 
	C523.697205,594.844177 525.002380,601.223999 526.459656,608.000000 
	C514.454834,608.000000 502.977417,608.000000 491.000000,608.000000 
z"/>
<path fill="#5DB1F1" opacity="1.000000" stroke="none" 
	d="
M1160.004272,843.269653 
	C1162.650879,833.675110 1164.448975,824.183533 1168.101196,815.469116 
	C1177.931519,792.013855 1196.446167,777.887939 1220.102783,770.082458 
	C1232.323242,766.050293 1244.960205,764.760376 1257.857300,764.902405 
	C1271.011719,765.047424 1283.934204,765.521729 1296.636353,769.798096 
	C1319.052734,777.344849 1333.863892,791.897583 1341.065186,814.510742 
	C1346.572510,831.804382 1346.122192,849.513733 1345.922485,867.849487 
	C1302.987671,867.849487 1260.121704,867.849487 1217.220947,867.849487 
	C1218.341797,884.867432 1226.109985,898.943054 1242.971313,904.973999 
	C1266.131958,913.258179 1289.160278,912.179810 1311.688110,902.590637 
	C1318.660034,899.622986 1325.057983,895.330322 1331.932251,892.098511 
	C1335.120605,890.599609 1338.820312,890.188538 1342.999268,889.098877 
	C1342.999268,904.834412 1343.050415,919.285522 1342.892944,933.734375 
	C1342.881592,934.781616 1341.560059,936.381287 1340.500244,936.765137 
	C1324.783936,942.457947 1308.994751,948.110596 1292.101562,948.936584 
	C1278.366333,949.608154 1264.534058,950.678894 1250.864380,949.771606 
	C1228.037109,948.256531 1206.204468,942.296082 1188.131104,927.440918 
	C1174.413818,916.166138 1165.106812,901.591675 1162.095581,883.781738 
	C1160.517456,874.447266 1159.787109,864.949036 1159.101807,855.493774 
	C1158.820557,851.613586 1159.667480,847.651672 1160.004272,843.269653 
M1240.500000,835.000000 
	C1256.584106,835.000000 1272.668213,835.000000 1289.262817,835.000000 
	C1288.786011,831.543091 1288.522705,828.646851 1287.970825,825.806763 
	C1285.816406,814.717468 1280.492188,805.811462 1269.051636,802.667114 
	C1255.880371,799.047241 1242.874268,799.914062 1230.794678,807.051025 
	C1223.022705,811.642883 1216.100342,826.327698 1217.652100,835.000000 
	C1224.901611,835.000000 1232.200806,835.000000 1240.500000,835.000000 
z"/>
<path fill="#5DB1F1" opacity="1.000000" stroke="none" 
	d="
M1855.136963,767.960327 
	C1867.122803,770.005493 1877.629883,774.696594 1886.960449,781.593628 
	C1904.330322,794.433044 1915.704590,811.499756 1918.792969,832.988770 
	C1920.614502,845.664124 1921.914062,858.793152 1920.700928,871.454895 
	C1917.062500,909.435974 1894.618408,937.790039 1856.082642,947.113525 
	C1840.713135,950.832092 1825.201538,950.606018 1809.799316,949.755127 
	C1792.061157,948.775146 1775.342285,943.033264 1760.962158,932.297363 
	C1744.919312,920.319946 1735.408691,903.823120 1731.062378,884.442444 
	C1725.940552,861.604370 1726.719727,838.805115 1735.211060,816.979553 
	C1743.912964,794.613098 1760.282104,779.282288 1782.952393,771.072693 
	C1802.704590,763.919739 1823.116943,763.752258 1843.679688,766.024536 
	C1847.380493,766.433472 1851.032715,767.283264 1855.136963,767.960327 
M1787.999878,861.476929 
	C1788.671021,868.142944 1788.825195,874.913147 1790.143066,881.448792 
	C1791.819946,889.765808 1795.339355,897.237305 1802.072144,903.088623 
	C1811.064209,910.903198 1821.757080,910.520020 1832.341064,909.804565 
	C1838.271362,909.403687 1843.692261,906.711365 1848.286987,902.334412 
	C1858.232666,892.860107 1861.185547,880.657715 1861.845581,867.815186 
	C1862.310059,858.775757 1862.071533,849.554138 1860.763794,840.616211 
	C1859.729980,833.549927 1857.633057,826.207397 1854.163574,820.022400 
	C1847.634033,808.382019 1836.666748,804.814453 1823.453613,804.760193 
	C1807.595459,804.695007 1797.217896,813.505005 1791.942871,827.513550 
	C1787.903320,838.240967 1787.805176,849.315796 1787.999878,861.476929 
z"/>
<path fill="#5DB1F1" opacity="1.000000" stroke="none" 
	d="
M1493.000000,831.000000 
	C1493.000000,810.533508 1493.000000,790.567017 1493.000000,770.300903 
	C1512.006714,770.300903 1530.729736,770.300903 1549.727051,770.300903 
	C1549.727051,828.387756 1549.727051,886.432434 1549.727051,944.738770 
	C1530.911377,944.738770 1512.188599,944.738770 1493.180176,944.738770 
	C1493.180176,938.972290 1493.180176,933.356140 1493.180176,927.356445 
	C1485.573120,932.054077 1478.235596,936.358521 1471.138916,941.028748 
	C1463.362183,946.146606 1454.678833,949.174744 1445.688721,949.770203 
	C1426.930786,951.012634 1408.018066,951.052673 1392.515991,937.787903 
	C1383.060547,929.697021 1377.296509,919.015381 1375.170044,906.871826 
	C1373.648071,898.180359 1373.148438,889.222168 1373.091675,880.377197 
	C1372.868042,845.559387 1373.000000,810.739319 1373.000000,775.920044 
	C1373.000000,774.121826 1373.000000,772.323669 1373.000000,770.264893 
	C1392.080322,770.264893 1410.803101,770.264893 1430.000000,770.264893 
	C1430.000000,772.190308 1430.000000,773.973999 1430.000000,775.757690 
	C1430.000000,803.746399 1429.764160,831.738159 1430.133301,859.721985 
	C1430.255371,868.984741 1431.365601,878.332336 1433.050049,887.451599 
	C1435.103271,898.568115 1443.252808,903.755859 1455.115845,904.094543 
	C1467.688232,904.453552 1479.347046,902.184814 1490.183716,895.517578 
	C1492.698364,893.970398 1493.030640,892.398743 1493.025024,889.976624 
	C1492.980225,870.484497 1493.000000,850.992249 1493.000000,831.000000 
z"/>
<path fill="#5DB1F1" opacity="1.000000" stroke="none" 
	d="
M2685.026367,908.858643 
	C2674.936035,931.718201 2655.332275,941.192932 2633.216797,946.861389 
	C2614.562500,951.642761 2595.353760,950.843079 2576.468994,949.660522 
	C2558.193848,948.516174 2540.329346,943.826111 2523.247559,936.426819 
	C2523.247559,921.184082 2523.247559,905.749084 2523.247559,890.436462 
	C2528.654785,888.681824 2532.528320,891.491211 2536.527588,894.012756 
	C2550.025391,902.523315 2564.777100,908.121521 2580.531738,909.765503 
	C2592.078125,910.970398 2603.876221,910.430054 2615.509277,909.756409 
	C2619.349609,909.534058 2623.602051,907.144470 2626.652100,904.552551 
	C2632.459229,899.618164 2631.471436,891.810364 2624.381592,889.089539 
	C2616.148926,885.930176 2607.429932,883.778809 2598.745117,882.111267 
	C2582.520996,878.996216 2566.065186,876.941589 2551.174316,869.031250 
	C2536.443115,861.205444 2527.618652,849.474670 2524.827393,832.658203 
	C2521.992432,815.576660 2526.969482,801.266357 2538.488770,789.282715 
	C2545.456299,782.034180 2554.201660,776.846558 2563.673584,772.916870 
	C2585.311279,763.940186 2608.061523,763.979980 2630.663574,765.275452 
	C2647.812500,766.258362 2664.692139,770.228699 2680.806885,777.213928 
	C2680.806885,792.027161 2680.806885,806.786438 2680.806885,822.900391 
	C2677.034668,821.773682 2673.397705,821.427368 2670.585449,819.721741 
	C2657.071533,811.524475 2642.383545,806.175659 2626.924316,804.357483 
	C2615.148926,802.972534 2602.902344,802.690430 2591.327637,807.263123 
	C2580.836914,811.407532 2580.797363,820.910706 2586.175781,825.272949 
	C2589.775635,828.192505 2594.819092,829.824036 2599.477051,830.851135 
	C2611.838867,833.576843 2624.400391,835.390503 2636.773193,838.071716 
	C2651.799561,841.327881 2666.578125,845.379883 2677.240234,857.741272 
	C2683.699951,865.230469 2687.531006,873.699951 2688.093018,883.768311 
	C2688.566406,892.247681 2688.551514,900.529602 2685.026367,908.858643 
z"/>
<path fill="#084B83" opacity="1.000000" stroke="none" 
	d="
M712.090271,576.210693 
	C706.667847,592.804993 701.295776,609.000488 695.943787,625.202637 
	C694.759583,628.787659 693.299194,632.330505 692.602051,636.013123 
	C691.954773,639.432922 690.004211,640.524231 686.983032,640.988708 
	C672.340454,643.239624 657.720215,645.637512 643.069397,647.832153 
	C631.675659,649.538879 620.248535,651.023315 608.256409,652.687012 
	C608.256409,638.032227 608.256409,623.486084 608.256409,608.203613 
	C584.680481,608.203613 561.657715,608.203613 538.606689,608.203613 
	C530.921997,573.658875 523.393005,539.813843 515.596863,504.768066 
	C585.574341,516.607422 654.697693,528.302246 724.463989,540.105835 
	C720.164978,552.569946 716.156372,564.192078 712.090271,576.210693 
z"/>
<path fill="#084B83" opacity="1.000000" stroke="none" 
	d="
M419.453918,373.308197 
	C407.483582,376.638214 395.897644,379.850555 384.285309,382.964478 
	C370.285004,386.718750 356.229370,390.270111 342.256989,394.124329 
	C321.172302,399.940399 300.141388,405.951294 279.076904,411.841034 
	C277.971527,412.150116 276.766144,412.101654 275.043365,412.277100 
	C275.043365,403.438538 274.606567,394.648193 275.298096,385.947540 
	C275.517822,383.182831 278.556244,380.501038 280.620819,378.047119 
	C293.518494,362.716888 306.417358,347.385834 319.493378,332.208008 
	C328.620636,321.613678 338.191528,311.400391 347.274231,300.769073 
	C358.475800,287.657654 369.306732,274.230347 380.426300,261.047913 
	C391.867950,247.483597 403.424194,234.014847 415.071381,220.627045 
	C415.973663,219.589935 417.976959,219.124985 419.490967,219.075058 
	C424.984161,218.893906 430.498169,219.213135 435.981598,218.919235 
	C439.000580,218.757416 440.225433,220.124557 440.767426,222.643005 
	C444.542877,240.187256 448.207031,257.755890 452.070679,275.280579 
	C455.048920,288.789429 458.316132,302.234283 461.362854,315.728394 
	C464.622253,330.164642 467.773773,344.625214 471.086029,359.588501 
	C453.835022,364.151520 436.830841,368.649231 419.453918,373.308197 
z"/>
<path fill="#5DB1F1" opacity="1.000000" stroke="none" 
	d="
M2203.999023,752.998413 
	C2203.999023,741.859924 2203.999023,731.221252 2203.999023,720.292419 
	C2223.359863,720.292419 2242.420898,720.292419 2261.960938,720.292419 
	C2261.960938,736.756409 2261.960938,753.156677 2261.960938,769.852051 
	C2279.378174,769.852051 2296.322754,769.852051 2313.632812,769.852051 
	C2313.632812,782.541870 2313.632812,794.938110 2313.632812,807.817627 
	C2296.718750,807.817627 2279.652832,807.817627 2262.295410,807.817627 
	C2262.177002,809.546021 2262.014648,810.819946 2262.013916,812.094055 
	C2261.998047,837.259033 2261.987793,862.424072 2262.006836,887.589050 
	C2262.013428,896.499451 2267.062988,905.879639 2274.241455,907.443970 
	C2280.863770,908.887207 2287.982910,908.993958 2294.777344,908.424744 
	C2300.959717,907.906738 2306.999756,905.688721 2313.662109,904.085510 
	C2313.662109,917.868469 2313.662109,930.616699 2313.662109,943.399902 
	C2294.540283,949.508179 2274.678955,948.398071 2255.014404,947.747498 
	C2244.931152,947.413879 2235.052490,944.496521 2226.005615,939.111023 
	C2214.333984,932.163330 2208.333984,921.606506 2206.176758,908.904541 
	C2204.615234,899.711365 2204.208008,890.249939 2204.090576,880.898071 
	C2203.808350,858.403137 2203.999268,835.902222 2203.999268,813.403748 
	C2203.999268,811.773315 2203.999023,810.142822 2203.999023,808.036499 
	C2196.239502,808.036499 2188.834229,808.036499 2181.222656,808.036499 
	C2181.222656,795.282288 2181.222656,783.005493 2181.222656,770.247131 
	C2188.539795,770.247131 2195.946289,770.247131 2203.999023,770.247131 
	C2203.999023,764.355408 2203.999023,758.926819 2203.999023,752.998413 
z"/>
<path fill="#084B83" opacity="1.000000" stroke="none" 
	d="
M512.861206,179.028168 
	C542.610779,188.432678 571.965454,197.761963 601.305542,207.136871 
	C611.819275,210.496277 622.285217,214.005173 632.794861,217.377792 
	C665.210266,227.780273 697.628235,238.175018 730.061401,248.522079 
	C746.845886,253.876770 763.664551,259.124359 780.470581,264.419067 
	C780.605591,264.718323 780.836060,265.012573 780.855774,265.320374 
	C781.513428,275.561768 781.479309,275.443054 771.374695,278.088196 
	C748.272766,284.135773 725.185364,290.241180 702.128174,296.456879 
	C683.218872,301.554443 664.286255,306.593719 645.530762,312.215179 
	C640.409851,313.750000 637.218018,311.411957 633.805603,309.082520 
	C627.733643,304.937500 621.967407,300.347595 616.011108,296.029541 
	C607.047607,289.531372 598.070129,283.050995 589.025085,276.667267 
	C580.172424,270.419373 571.191467,264.353241 562.333374,258.112915 
	C553.150635,251.643906 544.088013,245.004288 534.898376,238.545197 
	C526.034607,232.315125 517.076294,226.219482 508.158417,220.066330 
	C504.399323,217.472610 500.569366,214.973373 496.923950,212.228806 
	C495.994507,211.529068 495.124725,210.063171 495.111786,208.939102 
	C494.980072,197.473618 495.031219,186.005997 495.031219,173.794312 
	C501.249023,175.641037 506.854767,177.305984 512.861206,179.028168 
z"/>
<path fill="#084B83" opacity="1.000000" stroke="none" 
	d="
M326.973724,410.910339 
	C338.521240,407.891724 349.680115,404.987701 360.818634,402.007690 
	C386.106567,395.242126 411.400726,388.498779 436.659485,381.625702 
	C448.889038,378.297913 461.044586,374.698273 473.683258,371.093506 
	C482.594147,411.002106 491.396484,450.424652 500.409210,490.789429 
	C424.840973,478.028900 350.213806,465.427307 275.045410,452.734314 
	C275.045410,444.046478 274.930969,435.594055 275.198059,427.153717 
	C275.229553,426.159302 277.213593,424.717285 278.533325,424.351410 
	C292.495483,420.480438 306.510864,416.801971 320.499237,413.024658 
	C322.557770,412.468750 324.551880,411.674408 326.973724,410.910339 
z"/>
<path fill="#5DB1F1" opacity="1.000000" stroke="none" 
	d="
M2467.000000,702.000000 
	C2475.802002,702.000000 2484.103760,702.000000 2492.701660,702.000000 
	C2492.701660,782.979370 2492.701660,863.668640 2492.701660,944.679138 
	C2474.038330,944.679138 2455.318604,944.679138 2436.298584,944.679138 
	C2436.298584,864.020874 2436.298584,783.331604 2436.298584,702.000000 
	C2446.321533,702.000000 2456.410889,702.000000 2467.000000,702.000000 
z"/>
<path fill="#5DB1F1" opacity="1.000000" stroke="none" 
	d="
M1673.718872,777.703796 
	C1688.355835,770.010071 1703.693970,768.932007 1719.709473,770.348389 
	C1719.709473,788.028625 1719.709473,805.751526 1719.709473,824.038452 
	C1695.977783,823.156067 1672.070312,819.955139 1649.006104,829.687561 
	C1649.006104,867.799622 1649.006104,906.080078 1649.006104,944.679688 
	C1630.034668,944.679688 1611.312500,944.679688 1592.294189,944.679688 
	C1592.294189,886.660645 1592.294189,828.619690 1592.294189,770.289124 
	C1611.029053,770.289124 1629.750732,770.289124 1648.867065,770.289124 
	C1648.867065,778.100220 1648.867065,785.853760 1648.867065,793.685425 
	C1657.262207,788.298645 1665.337402,783.117249 1673.718872,777.703796 
z"/>
<path fill="#084B83" opacity="1.000000" stroke="none" 
	d="
M877.210571,479.752197 
	C869.405640,474.299561 861.842957,469.131042 854.353821,463.858215 
	C840.600464,454.174927 826.910095,444.402100 813.155884,434.720032 
	C802.082886,426.925415 790.954468,419.209595 779.848816,411.457489 
	C785.012695,395.964661 790.010132,381.017181 794.975952,366.059204 
	C799.628296,352.045319 804.277222,338.030151 808.866516,323.995544 
	C810.798218,318.087921 812.384583,312.059296 814.537537,306.237122 
	C815.157349,304.560852 817.226013,302.220551 818.593201,302.245300 
	C822.697021,302.319427 827.430847,300.046265 830.655701,305.122375 
	C838.238403,317.058136 846.063721,328.841003 853.877075,340.628571 
	C870.795227,366.152039 887.778625,391.632233 904.713257,417.144775 
	C914.560120,431.979431 924.370239,446.838531 934.171448,461.703430 
	C934.685791,462.483398 934.961426,463.420715 935.614075,464.879120 
	C922.695435,464.879120 910.297241,464.879120 897.278931,464.879120 
	C897.278931,474.547577 897.278931,483.773193 897.278931,494.250275 
	C890.017578,489.018372 883.751770,484.503815 877.210571,479.752197 
z"/>
<path fill="#5DB1F1" opacity="1.000000" stroke="none" 
	d="
M985.000000,588.000000 
	C996.802490,588.000000 1008.104919,588.000000 1019.870178,588.000000 
	C1019.870178,552.991150 1019.870178,518.270752 1019.870178,483.276611 
	C1031.724243,483.276611 1043.115723,483.276611 1054.754517,483.276611 
	C1054.754517,529.778198 1054.754517,576.159119 1054.754517,622.770142 
	C1008.309814,622.770142 962.047058,622.770142 915.391968,622.770142 
	C915.391968,576.512512 915.391968,530.132019 915.391968,483.375427 
	C926.519836,483.375427 937.914001,483.375427 949.776428,483.375427 
	C949.776428,517.914185 949.776428,552.634644 949.776428,588.000000 
	C961.652893,588.000000 973.076416,588.000000 985.000000,588.000000 
z"/>
<path fill="#084B83" opacity="1.000000" stroke="none" 
	d="
M498.987427,352.004028 
	C493.387604,353.511383 488.174255,354.893494 482.456879,356.409210 
	C472.200195,310.438751 462.076782,265.065613 451.811859,219.058044 
	C462.390869,219.058044 472.377686,218.627869 482.289124,219.303284 
	C485.534424,219.524445 488.733856,222.401047 491.692749,224.442337 
	C498.538544,229.165161 505.225403,234.118408 511.975098,238.980453 
	C520.171448,244.884598 528.330566,250.841248 536.573975,256.678864 
	C542.050842,260.557373 547.696655,264.197083 553.179077,268.068085 
	C562.491150,274.643188 571.714905,281.343414 581.014099,287.936920 
	C585.566711,291.164886 590.226318,294.241577 594.801208,297.438629 
	C604.043396,303.897308 613.260864,310.391388 623.123108,317.316467 
	C619.890625,318.600616 616.938171,320.124146 613.802551,320.963470 
	C589.784424,327.392670 565.710449,333.613525 541.695679,340.054901 
	C527.549011,343.849365 513.478638,347.927948 498.987427,352.004028 
z"/>
<path fill="#084B83" opacity="1.000000" stroke="none" 
	d="
M715.689636,605.556824 
	C718.548523,596.730225 721.189636,588.251831 723.957214,579.814880 
	C727.792114,568.123840 731.717346,556.462402 735.620667,544.793945 
	C735.921997,543.892944 736.355347,543.036072 736.682190,542.265137 
	C766.855957,547.237366 796.754944,552.162659 826.653442,557.091797 
	C848.760803,560.736389 870.864258,564.404724 892.978210,568.008667 
	C895.657288,568.445251 897.073608,569.496460 897.040039,572.499084 
	C896.920654,583.163513 897.131287,593.833923 896.837097,604.491577 
	C896.795410,605.999634 894.828857,608.531921 893.449585,608.760864 
	C877.681213,611.378784 861.842163,613.566284 846.045288,616.019043 
	C827.812195,618.850220 809.613098,621.900391 791.379150,624.725891 
	C777.208313,626.921814 762.994995,628.842896 748.822510,631.028320 
	C737.426941,632.785522 726.070618,634.796204 714.682617,636.604370 
	C711.802490,637.061646 708.867798,637.174927 704.955566,637.539856 
	C708.577637,626.708435 712.052917,616.315979 715.689636,605.556824 
z"/>
<path fill="#084B83" opacity="1.000000" stroke="none" 
	d="
M787.935059,539.023743 
	C771.934875,536.349426 756.369751,533.698792 740.239929,530.952026 
	C752.026733,495.474640 763.640320,460.518677 775.495483,424.835602 
	C782.471863,429.572876 789.127319,434.022461 795.707397,438.580994 
	C801.747375,442.765350 807.728760,447.035553 813.695312,451.324554 
	C822.442810,457.612610 831.117065,464.003113 839.894104,470.249451 
	C845.518555,474.252258 851.322083,478.003082 856.955139,481.994202 
	C865.201355,487.836731 873.355469,493.809235 881.571289,499.694916 
	C885.826477,502.743256 890.222107,505.605255 894.355347,508.808167 
	C895.582275,509.758911 896.861572,511.573029 896.880127,513.007507 
	C897.058716,526.834900 896.977600,540.665710 896.947754,554.495483 
	C896.946411,555.130066 896.726624,555.764099 896.462708,557.182495 
	C890.697937,556.336609 885.054565,555.607971 879.446716,554.667603 
	C860.439941,551.480408 841.443176,548.233826 822.447876,544.978943 
	C811.083557,543.031616 799.729065,541.026611 787.935059,539.023743 
z"/>
<path fill="#5DB1F1" opacity="1.000000" stroke="none" 
	d="
M483.000092,637.160522 
	C482.868530,634.575134 482.772308,632.925476 485.919159,632.935974 
	C518.043701,633.042847 550.168762,633.001343 582.646667,633.001343 
	C582.646667,666.218201 582.646667,699.258240 582.646667,732.649658 
	C549.775818,732.649658 516.735840,732.649658 483.000000,732.649658 
	C483.000000,701.088745 483.000000,669.366150 483.000092,637.160522 
z"/>
<path fill="#5DB1F1" opacity="1.000000" stroke="none" 
	d="
M2337.000000,778.060669 
	C2337.000000,775.258972 2337.000000,772.947876 2337.000000,770.319336 
	C2355.963379,770.319336 2374.680908,770.319336 2393.700195,770.319336 
	C2393.700195,828.313599 2393.700195,886.340576 2393.700195,944.684021 
	C2375.030518,944.684021 2356.312988,944.684021 2337.000000,944.684021 
	C2337.000000,889.322388 2337.000000,833.936829 2337.000000,778.060669 
z"/>
<path fill="#084B83" opacity="1.000000" stroke="none" 
	d="
M745.433716,297.309082 
	C757.235657,294.086884 768.657104,291.025848 780.747192,287.785553 
	C780.747192,292.577026 780.747192,296.812927 780.747192,301.745361 
	C788.334106,301.745361 795.389954,301.745361 803.224548,301.745361 
	C791.840576,336.203613 780.741394,369.799805 769.420288,404.067627 
	C730.866150,376.922699 692.664978,350.026306 653.501892,322.452667 
	C684.999878,313.857513 715.026489,305.663849 745.433716,297.309082 
z"/>
<path fill="#5DB1F1" opacity="1.000000" stroke="none" 
	d="
M145.451035,366.440186 
	C152.623993,366.069794 159.466507,365.789398 166.275787,366.144989 
	C168.397507,366.255798 171.108154,367.556702 172.400085,369.210449 
	C190.345215,392.181580 208.092133,415.307587 225.879745,438.401642 
	C226.959198,439.803131 227.973846,441.254486 229.787567,443.733704 
	C229.787567,417.202911 229.787567,391.883575 229.787567,366.284149 
	C238.375534,366.284149 246.435608,366.284149 254.749176,366.284149 
	C254.749176,402.772156 254.749176,439.158783 254.749176,475.998260 
	C247.123962,475.998260 239.664581,476.178680 232.227020,475.856049 
	C230.612595,475.786011 228.663010,474.232819 227.565964,472.820435 
	C209.675018,449.786377 191.894867,426.666260 174.096527,403.560333 
	C173.023941,402.167908 172.008148,400.731720 170.175095,398.241608 
	C170.175095,424.818665 170.175095,450.143402 170.175095,475.731842 
	C161.591339,475.731842 153.531448,475.731842 145.107758,475.731842 
	C145.107758,439.314362 145.107758,403.044983 145.451035,366.440186 
z"/>
<path fill="#5DB1F1" opacity="1.000000" stroke="none" 
	d="
M453.000000,204.000000 
	C435.210388,204.000000 417.920746,204.000000 400.316162,204.000000 
	C400.316162,177.375824 400.316162,151.004807 400.316162,124.316284 
	C426.623962,124.316284 452.994965,124.316284 479.683594,124.316284 
	C479.683594,150.623718 479.683594,176.994736 479.683594,204.000000 
	C471.005981,204.000000 462.252991,204.000000 453.000000,204.000000 
z"/>
<path fill="#5DB1F1" opacity="1.000000" stroke="none" 
	d="
M899.000000,901.000000 
	C899.000000,915.791565 899.000000,930.083191 899.000000,944.686646 
	C874.036987,944.686646 849.332642,944.686646 824.313477,944.686646 
	C824.313477,920.036987 824.313477,895.332825 824.313477,870.313599 
	C848.962524,870.313599 873.666870,870.313599 899.000000,870.313599 
	C899.000000,880.332092 899.000000,890.416077 899.000000,901.000000 
z"/>
<path fill="#084B83" opacity="1.000000" stroke="none" 
	d="
M295.993866,339.971130 
	C289.361420,347.716064 282.848511,355.119293 276.335571,362.522552 
	C275.969238,362.416718 275.602905,362.310883 275.236572,362.205078 
	C275.236572,357.063477 275.236572,351.921906 275.236572,346.136353 
	C265.702942,346.136353 256.841400,346.136353 247.044739,346.136353 
	C250.098953,342.402802 252.318939,339.397919 254.833679,336.664185 
	C267.267090,323.147980 279.815155,309.737274 292.250763,296.223145 
	C302.546295,285.034760 312.742218,273.754669 322.981110,262.514191 
	C333.221863,251.271622 343.481781,240.046448 353.695068,228.778976 
	C362.790802,218.744461 371.824341,208.653549 380.915253,198.614609 
	C381.879150,197.550140 383.043945,196.667572 384.820465,195.064545 
	C384.820465,203.294205 384.820465,210.677429 384.820465,218.659683 
	C389.180176,218.852539 393.078979,219.025009 397.725464,219.230560 
	C396.808167,220.802460 396.267120,222.132874 395.386536,223.177002 
	C385.119629,235.351028 374.818329,247.496201 364.491119,259.619171 
	C357.649841,267.650055 350.771271,275.649475 343.874756,283.633087 
	C334.431396,294.565033 324.900726,305.422028 315.511505,316.400116 
	C308.955139,324.065979 302.573212,331.881042 295.993866,339.971130 
z"/>
<path fill="#084B83" opacity="1.000000" stroke="none" 
	d="
M653.072083,752.664795 
	C638.700378,739.409973 624.662109,726.127502 610.724915,712.739746 
	C609.493774,711.557129 608.181335,709.697449 608.160217,708.135315 
	C607.964600,693.682373 608.044739,679.225708 608.044739,664.422974 
	C634.359619,660.334656 660.313782,656.302368 687.343933,652.102905 
	C675.890381,686.048767 664.661499,719.328857 653.072083,752.664795 
z"/>
<path fill="#5DB1F1" opacity="1.000000" stroke="none" 
	d="
M451.000000,1236.000000 
	C451.000000,1224.540039 451.000000,1213.580078 451.000000,1202.311035 
	C472.634155,1202.311035 494.005219,1202.311035 515.688843,1202.311035 
	C515.688843,1223.633789 515.688843,1245.004883 515.688843,1266.688721 
	C494.366425,1266.688721 472.995392,1266.688721 451.000000,1266.688721 
	C451.000000,1256.664795 451.000000,1246.582397 451.000000,1236.000000 
z"/>
<path fill="#5DB1F1" opacity="1.000000" stroke="none" 
	d="
M2336.000000,738.897217 
	C2336.000000,726.462463 2336.000000,714.514526 2336.000000,702.284607 
	C2356.019043,702.284607 2375.721191,702.284607 2395.712402,702.284607 
	C2395.712402,716.351440 2395.712402,730.394592 2395.712402,744.719849 
	C2375.973633,744.719849 2356.271484,744.719849 2336.000000,744.719849 
	C2336.000000,742.920410 2336.000000,741.152161 2336.000000,738.897217 
z"/>
<path fill="#5DB1F1" opacity="1.000000" stroke="none" 
	d="
M823.998291,242.000000 
	C829.796204,242.000000 835.094482,242.000000 840.695129,242.000000 
	C840.695129,258.645813 840.695129,275.016998 840.695129,291.695007 
	C824.354431,291.695007 807.983276,291.695007 791.305115,291.695007 
	C791.305115,275.354675 791.305115,258.983521 791.305115,242.000000 
	C802.010559,242.000000 812.754578,242.000000 823.998291,242.000000 
z"/>
<path fill="#000000" opacity="1.000000" stroke="none" 
	d="
M1240.000000,835.000000 
	C1232.200806,835.000000 1224.901611,835.000000 1217.652100,835.000000 
	C1216.100342,826.327698 1223.022705,811.642883 1230.794678,807.051025 
	C1242.874268,799.914062 1255.880371,799.047241 1269.051636,802.667114 
	C1280.492188,805.811462 1285.816406,814.717468 1287.970825,825.806763 
	C1288.522705,828.646851 1288.786011,831.543091 1289.262817,835.000000 
	C1272.668213,835.000000 1256.584106,835.000000 1240.000000,835.000000 
z"/>
<path fill="#000000" opacity="1.000000" stroke="none" 
	d="
M1788.000000,860.980713 
	C1787.805176,849.315796 1787.903320,838.240967 1791.942871,827.513550 
	C1797.217896,813.505005 1807.595459,804.695007 1823.453613,804.760193 
	C1836.666748,804.814453 1847.634033,808.382019 1854.163574,820.022400 
	C1857.633057,826.207397 1859.729980,833.549927 1860.763794,840.616211 
	C1862.071533,849.554138 1862.310059,858.775757 1861.845581,867.815186 
	C1861.185547,880.657715 1858.232666,892.860107 1848.286987,902.334412 
	C1843.692261,906.711365 1838.271362,909.403687 1832.341064,909.804565 
	C1821.757080,910.520020 1811.064209,910.903198 1802.072144,903.088623 
	C1795.339355,897.237305 1791.819946,889.765808 1790.143066,881.448792 
	C1788.825195,874.913147 1788.671021,868.142944 1788.000000,860.980713 
z"/>
</svg>