<svg version="1.1" id="Layer_1" xmlns="http://www.w3.org/2000/svg" xmlns:xlink="http://www.w3.org/1999/xlink" x="0px" y="0px"
	 width="100%" viewBox="0 0 2800 1400" enable-background="new 0 0 2800 1400" xml:space="preserve">

z"/>
<path fill="#084B83" opacity="1.000000" stroke="none" 
	d="
M242.222687,496.135620 
	C254.636398,506.914459 266.622223,517.628601 278.628815,528.319397 
	C297.225708,544.878296 315.882050,561.370728 334.425232,577.989441 
	C345.965851,588.332336 357.300201,598.905212 368.810211,609.282715 
	C377.389618,617.018005 386.123199,624.581970 394.749329,632.265808 
	C403.254303,639.841797 411.724548,647.457031 420.182831,655.085205 
	C425.398804,659.789246 430.537537,664.578979 435.758575,669.277405 
	C441.993378,674.888000 448.199951,680.534912 454.582733,685.973633 
	C457.031799,688.060608 458.109497,690.223022 458.081635,693.542969 
	C457.916504,713.206970 458.000244,732.873169 458.000275,752.538574 
	C458.000275,754.175415 458.000275,755.812256 458.000275,757.904724 
	C478.376373,757.904724 498.447479,757.904724 519.358154,757.904724 
	C501.578979,901.191589 483.868591,1043.924072 466.115814,1186.998291 
	C459.924774,1186.998291 454.107819,1187.173218 448.318359,1186.852173 
	C447.142853,1186.787109 445.475037,1185.051270 445.038544,1183.748779 
	C433.620331,1149.679199 422.334900,1115.564819 411.026215,1081.458496 
	C402.631866,1056.141602 394.228943,1030.827759 385.843933,1005.507751 
	C369.205902,955.266357 352.584290,905.019592 335.943390,854.779114 
	C319.561493,805.320496 303.151123,755.871399 286.777222,706.410095 
	C270.149506,656.182129 253.550400,605.944580 236.940170,555.710754 
	C230.753586,537.000916 224.565140,518.291626 218.401596,499.574219 
	C218.051849,498.512115 217.920929,497.377991 217.642303,496.060455 
	C225.827438,496.060455 233.815781,496.060455 242.222687,496.135620 
z"/>
<path fill="#094B83" opacity="1.000000" stroke="none" 
	d="
M530.999023,1201.999878 
	C530.999023,1196.859863 530.999023,1192.217773 530.999023,1187.212280 
	C528.317993,1187.087891 525.895386,1186.975342 522.987122,1186.840332 
	C568.107727,1050.774292 613.155212,914.928589 658.468750,778.280823 
	C666.940796,786.288147 674.749695,793.547485 682.422302,800.948059 
	C694.825867,812.912048 707.057251,825.055359 719.514404,836.962891 
	C732.873291,849.732422 746.456665,862.266663 759.849487,875.001038 
	C767.865417,882.622803 775.708496,890.426453 783.620117,898.157776 
	C788.346619,902.776489 793.174133,907.302429 797.682312,912.126099 
	C798.704590,913.219971 798.939087,915.373291 798.947388,917.041809 
	C799.034180,934.506287 799.000977,951.971313 799.000977,969.885376 
	C811.665710,969.885376 824.041687,969.885376 837.891296,969.885376 
	C735.130859,1053.203491 633.484741,1135.618164 530.999023,1218.713501 
	C530.999023,1212.640381 530.999023,1207.569092 530.999023,1201.999878 
z"/>
<path fill="#094B83" opacity="1.000000" stroke="none" 
	d="
M760.798706,415.287659 
	C762.912231,416.624023 764.281311,417.178619 763.177734,420.319733 
	C757.487183,436.516571 752.301575,452.891174 746.964966,469.212006 
	C740.928467,487.673157 734.950562,506.153534 728.860657,524.597046 
	C728.011780,527.167786 727.231995,529.127747 723.111694,528.274231 
	C710.735168,525.710510 698.158081,524.133545 685.694580,521.967896 
	C666.988770,518.717651 648.333313,515.175110 629.617493,511.985596 
	C616.608337,509.768585 603.512756,508.061584 590.494812,505.892456 
	C579.353455,504.036041 568.296082,501.671783 557.149658,499.850006 
	C544.103455,497.717743 531.023560,495.753174 517.912109,494.076935 
	C512.461548,493.380157 511.984192,489.254028 511.085297,485.530640 
	C508.679047,475.563904 506.578735,465.522858 504.394073,455.503204 
	C500.648224,438.323395 496.952087,421.132721 493.189453,403.956604 
	C491.887451,398.013092 490.378876,392.114594 489.094482,386.167511 
	C487.866058,380.479492 486.806427,374.755035 485.582306,368.591980 
	C501.712433,364.256104 517.884766,359.946747 534.035889,355.559326 
	C565.872253,346.911041 597.727356,338.328125 629.493286,329.427643 
	C634.217590,328.103943 637.723267,328.431702 641.755066,331.333801 
	C659.411804,344.043152 677.294678,356.438263 695.089478,368.955933 
	C716.910339,384.305725 738.725098,399.664093 760.798706,415.287659 
z"/>
<path fill="#5EB1F1" opacity="1.000000" stroke="none" 
	d="
M931.002563,711.998291 
	C948.331787,711.998291 965.162109,712.054260 981.991333,711.945251 
	C984.920532,711.926270 986.580688,712.677368 988.294128,715.386108 
	C1014.331848,756.548828 1040.562866,797.589233 1066.756592,838.653137 
	C1067.709839,840.147583 1068.743530,841.590637 1070.941162,842.801086 
	C1070.941162,799.370728 1070.941162,755.940369 1070.941162,712.264404 
	C1089.704224,712.264404 1107.607422,712.264404 1125.796631,712.264404 
	C1125.796631,789.771606 1125.796631,867.013306 1125.796631,944.550781 
	C1124.676025,944.702026 1123.572510,944.979126 1122.468384,944.981018 
	C1105.638428,945.009094 1088.806763,945.112549 1071.980835,944.852844 
	C1069.998047,944.822266 1067.248657,943.246216 1066.197144,941.552856 
	C1035.019897,891.343262 1004.014282,841.026978 972.966309,790.737061 
	C972.286194,789.635437 971.428345,788.643494 969.883606,786.564270 
	C969.883606,839.911621 969.883606,892.182373 969.883606,944.724731 
	C951.278442,944.724731 933.379639,944.724731 915.187866,944.724731 
	C915.187866,867.233643 915.187866,789.992493 915.187866,711.998291 
	C920.306396,711.998291 925.404846,711.998291 931.002563,711.998291 
z"/>
<path fill="#094B83" opacity="1.000000" stroke="none" 
	d="
M672.313660,771.639954 
	C671.413391,770.734375 670.826660,770.012268 670.098999,769.484314 
	C659.939514,762.112610 666.944458,753.768188 669.126221,746.056519 
	C672.357788,734.634277 676.460327,723.458008 680.209167,712.182678 
	C684.500183,699.276489 688.822388,686.380615 693.105713,673.471863 
	C695.103821,667.450439 696.969971,661.384338 699.036011,655.386719 
	C700.190247,652.035889 701.512756,650.191650 706.236023,649.622498 
	C724.773743,647.388733 743.142639,643.782166 761.602539,640.864380 
	C774.783447,638.780945 788.022400,637.066711 801.212585,635.038940 
	C822.163086,631.817993 843.088928,628.437561 864.036133,625.195190 
	C874.800781,623.528992 885.589050,622.015381 896.776245,620.372681 
	C896.776245,627.109863 896.776245,633.708191 896.776245,640.735229 
	C925.552307,640.735229 953.940063,640.735229 982.327820,640.735229 
	C982.415588,641.050415 982.503357,641.365601 982.591125,641.680725 
	C919.108032,674.178894 855.624878,706.677063 791.679993,739.411621 
	C812.010986,774.541565 832.203003,809.431213 852.726074,844.892944 
	C834.615845,844.892944 817.078857,844.892944 798.804688,844.892944 
	C798.804688,860.793518 798.804688,876.277954 798.804688,891.762451 
	C798.182556,892.132080 797.560486,892.501709 796.938354,892.871338 
	C787.173889,882.657898 777.632080,872.218384 767.570251,862.306824 
	C760.307434,855.152466 752.184814,848.878601 744.757996,841.880615 
	C738.429443,835.917542 732.641785,829.384766 726.444336,823.277100 
	C716.837341,813.809326 707.091858,804.481934 697.392456,795.108154 
	C689.677246,787.651794 681.949097,780.208801 674.201843,772.785828 
	C673.771545,772.373596 673.113586,772.198975 672.313660,771.639954 
z"/>
<path fill="#094B83" opacity="1.000000" stroke="none" 
	d="
M607.998535,753.847351 
	C607.998596,745.769775 607.998596,738.175781 607.998596,729.389587 
	C617.282837,738.382507 625.686523,746.557312 634.132996,754.687561 
	C637.768127,758.186523 641.519958,761.564026 645.165771,765.052063 
	C647.592468,767.373657 648.254272,769.559143 646.596252,773.160522 
	C643.530273,779.820251 641.391602,786.921326 639.068359,793.905701 
	C633.652039,810.188477 628.378540,826.518677 623.004822,842.815674 
	C614.329102,869.126770 605.659485,895.440063 596.911316,921.727051 
	C590.083679,942.243286 583.064636,962.695801 576.267029,983.221863 
	C566.455200,1012.849731 556.800659,1042.529785 547.014221,1072.166016 
	C539.944641,1093.574829 532.730652,1114.935791 525.654724,1136.342529 
	C520.373779,1152.319092 515.245667,1168.346436 509.917358,1184.307007 
	C509.554901,1185.392700 508.096497,1186.858887 507.122437,1186.878296 
	C497.493042,1187.070679 487.858337,1186.994751 478.244324,1186.994751 
	C496.019043,1043.901733 513.741699,901.227905 531.533325,757.998657 
	C533.054504,757.998657 534.834717,757.998718 536.614990,757.998718 
	C559.105591,757.998657 581.596436,757.951050 604.086487,758.057495 
	C606.955566,758.071045 608.634644,757.622620 607.998535,753.847351 
z"/>
<path fill="#5EB1F1" opacity="1.000000" stroke="none" 
	d="
M2098.093750,819.000000 
	C2098.093994,783.212585 2098.093994,747.925110 2098.093994,712.319092 
	C2118.155518,712.319092 2137.736572,712.319092 2157.799805,712.319092 
	C2157.918701,713.691650 2158.148926,715.111633 2158.148926,716.531555 
	C2158.154053,766.023376 2158.220703,815.515503 2158.076416,865.006958 
	C2158.029297,881.182739 2154.403320,896.598206 2145.859863,910.505859 
	C2133.864502,930.032837 2115.431152,940.159851 2093.882324,945.915466 
	C2075.666992,950.780701 2057.052002,950.922791 2038.645508,949.691284 
	C2018.483276,948.342346 1998.828369,943.676208 1982.080078,931.005249 
	C1965.828491,918.710205 1956.212769,902.471985 1953.261475,882.414917 
	C1952.229736,875.402588 1951.831055,868.240417 1951.812622,861.144897 
	C1951.687866,813.153076 1951.742676,765.160767 1951.739380,717.168640 
	C1951.739258,715.690369 1951.739380,714.212158 1951.739380,712.366455 
	C1971.823853,712.366455 1991.529053,712.366455 2011.789062,712.366455 
	C2011.789062,714.541443 2011.786499,716.497070 2011.789307,718.452759 
	C2011.859497,767.943604 2011.510742,817.440613 2012.229614,866.922058 
	C2012.479858,884.149170 2019.438232,898.050537 2035.644165,903.196960 
	C2051.676270,908.288147 2067.750732,908.010071 2082.405762,898.764038 
	C2090.623535,893.579529 2095.163330,884.853699 2095.900635,875.566162 
	C2097.379150,856.936768 2097.444824,838.195251 2098.093750,819.000000 
z"/>
<path fill="#094C83" opacity="1.000000" stroke="none" 
	d="
M293.047180,468.006012 
	C306.951599,470.342285 320.413208,472.715912 333.892487,474.984314 
	C350.487488,477.777069 367.105530,480.433319 383.698334,483.238861 
	C400.614044,486.098969 417.506744,489.094635 434.417572,491.983856 
	C456.028381,495.676056 477.654236,499.281647 499.246338,503.079346 
	C500.617310,503.320465 502.594604,504.698853 502.872162,505.881042 
	C506.728027,522.301941 510.262817,538.797791 514.029724,555.240051 
	C516.623413,566.561462 519.584900,577.799133 522.127380,589.131348 
	C523.500183,595.250000 524.338013,601.488647 525.485474,608.064392 
	C502.946838,608.064392 480.698029,608.064392 457.751648,608.064392 
	C457.751648,628.408081 457.751648,648.410645 457.751648,669.323425 
	C393.075592,611.298462 329.251709,554.038086 264.872955,496.279846 
	C268.393829,496.279846 271.394012,496.279846 274.955109,496.279846 
	C274.955109,485.586945 274.955109,475.359650 274.955109,464.908081 
	C281.230499,466.005768 286.921326,467.001251 293.047180,468.006012 
z"/>
<path fill="#5EB1F1" opacity="1.000000" stroke="none" 
	d="
M1344.229248,833.690796 
	C1344.359131,845.217712 1344.359131,856.308228 1344.359131,867.942261 
	C1302.227905,867.942261 1259.833618,867.942261 1217.523315,867.942261 
	C1215.640991,880.644348 1224.357056,896.269226 1236.470093,902.885681 
	C1246.733154,908.491577 1257.774414,910.568787 1269.337402,911.046265 
	C1293.091064,912.027222 1314.110596,904.589661 1333.459839,891.284119 
	C1335.490967,889.887390 1338.679688,890.173706 1342.027588,889.549377 
	C1342.027588,901.730286 1342.027588,913.010742 1342.027588,924.291260 
	C1342.027588,935.322021 1342.200073,935.923523 1331.712769,938.931152 
	C1318.130493,942.826172 1304.382568,946.667236 1290.438232,948.621033 
	C1277.713135,950.404053 1264.537964,950.786804 1251.726440,949.747925 
	C1228.118164,947.833496 1205.490479,941.946716 1186.819458,926.106812 
	C1177.858398,918.504578 1171.401978,908.937256 1166.796265,898.114685 
	C1162.775391,888.666138 1161.097290,878.790222 1159.925293,868.598633 
	C1157.842651,850.489319 1160.640869,833.127258 1167.525269,816.667175 
	C1170.871216,808.667358 1176.699585,801.495972 1182.307983,794.694641 
	C1195.174194,779.091919 1212.560913,771.211792 1232.081543,767.656799 
	C1255.618896,763.370300 1278.967651,763.574341 1301.563965,772.375977 
	C1323.515625,780.926331 1336.090088,797.775391 1341.918701,820.074158 
	C1343.040161,824.364441 1343.392334,828.855835 1344.229248,833.690796 
M1286.828125,818.903687 
	C1282.934448,808.430420 1275.379028,802.341736 1264.398682,800.804260 
	C1259.659546,800.140625 1254.784424,799.888550 1250.008423,800.145325 
	C1229.962402,801.223083 1217.307983,814.439819 1216.770874,834.657837 
	C1240.809326,834.657837 1264.842773,834.657837 1289.851196,834.657837 
	C1288.847168,829.327637 1287.937500,824.498230 1286.828125,818.903687 
z"/>
<path fill="#5EB1F1" opacity="1.000000" stroke="none" 
	d="
M1824.977905,765.002808 
	C1845.903198,765.578735 1865.828735,768.534302 1883.304932,780.044434 
	C1903.842285,793.570557 1915.254517,813.034241 1919.053833,837.225647 
	C1922.352295,858.227234 1921.324585,878.747192 1913.153809,898.609619 
	C1902.249756,925.116272 1881.715942,939.808960 1854.670898,946.975037 
	C1840.139282,950.825439 1825.322144,950.888916 1810.778198,949.691162 
	C1789.063354,947.902771 1769.092163,940.974060 1753.156250,924.604126 
	C1740.136841,911.230103 1732.568604,895.631409 1730.185303,877.344421 
	C1729.251221,870.176392 1727.928955,862.932495 1728.145996,855.764465 
	C1728.808716,833.890503 1733.641968,813.097107 1747.970093,795.765625 
	C1760.305420,780.844543 1776.429321,771.736206 1795.386719,768.221985 
	C1804.957642,766.447693 1814.780273,766.032227 1824.977905,765.002808 
M1805.223389,808.587219 
	C1798.061035,813.250671 1793.552734,819.938782 1791.133545,827.959412 
	C1785.221313,847.562439 1785.301025,867.288391 1790.954346,886.909058 
	C1793.318481,895.114197 1797.880005,901.961426 1805.577881,906.356873 
	C1826.565552,918.340698 1851.505615,909.118774 1859.067871,886.265015 
	C1864.199219,870.757812 1863.634888,854.816956 1861.333984,838.907349 
	C1860.108398,830.433289 1857.589233,822.289429 1852.016602,815.572083 
	C1841.800171,803.257385 1821.721558,800.142639 1805.223389,808.587219 
z"/>
<path fill="#5EB1F1" opacity="1.000000" stroke="none" 
	d="
M1375.698120,908.317017 
	C1374.703003,899.953308 1373.286865,891.960449 1373.232544,883.958252 
	C1372.984863,847.470276 1373.117554,810.979736 1373.126587,774.490112 
	C1373.126831,773.194397 1373.264038,771.898682 1373.354004,770.309692 
	C1392.167236,770.309692 1410.708252,770.309692 1429.789917,770.309692 
	C1429.789917,772.391846 1429.786621,774.182007 1429.790405,775.972229 
	C1429.860352,808.962097 1429.776001,841.953735 1430.151245,874.940125 
	C1430.215454,880.595215 1431.563843,886.474548 1433.510132,891.816284 
	C1436.872070,901.043579 1444.840820,904.249756 1453.968140,904.972107 
	C1466.751587,905.983826 1478.420288,902.437500 1489.541626,896.312805 
	C1492.817749,894.508606 1493.156616,892.112488 1493.151978,888.951782 
	C1493.097656,851.462463 1493.117065,813.973145 1493.117065,776.483765 
	C1493.117065,774.526184 1493.117065,772.568542 1493.117065,770.307617 
	C1511.870850,770.307617 1530.114380,770.307617 1548.755127,770.307617 
	C1548.755127,828.373352 1548.755127,886.390076 1548.755127,944.705017 
	C1530.374390,944.705017 1512.122192,944.705017 1493.286987,944.705017 
	C1493.286987,938.926514 1493.286987,933.188110 1493.286987,926.319946 
	C1491.027222,927.603760 1489.613159,928.259705 1488.358643,929.142517 
	C1475.448730,938.227234 1462.401001,947.297241 1446.248779,949.265137 
	C1425.693604,951.769470 1405.744385,949.991821 1389.827759,934.863708 
	C1382.521484,927.919617 1377.697266,918.925964 1375.698120,908.317017 
z"/>
<path fill="#5EB1F1" opacity="1.000000" stroke="none" 
	d="
M2599.995605,949.978638 
	C2576.764160,950.734558 2554.635254,947.447449 2533.123535,940.048767 
	C2530.807617,939.252197 2528.390869,938.625366 2526.255127,937.481934 
	C2525.211182,936.923035 2524.066406,935.362915 2524.055176,934.244934 
	C2523.908691,919.765930 2523.958252,905.284973 2523.958252,889.731750 
	C2526.484131,890.299927 2528.943359,890.201538 2530.565918,891.318542 
	C2547.591553,903.036987 2566.603760,909.581360 2586.910645,911.687500 
	C2597.852783,912.822388 2609.190674,913.313721 2619.915771,909.260864 
	C2624.874512,907.387085 2629.482666,905.221375 2630.162842,898.713440 
	C2630.797852,892.636169 2626.057373,887.624817 2617.708008,885.869202 
	C2602.856201,882.746155 2587.838867,880.358215 2573.077881,876.870789 
	C2560.887695,873.990601 2549.211182,869.289368 2539.618164,860.888306 
	C2531.805176,854.045898 2527.387939,844.918091 2525.187988,834.929688 
	C2522.463867,822.564453 2524.294189,810.640747 2530.947510,799.785583 
	C2539.496338,785.837708 2552.226318,777.111572 2567.545654,772.100403 
	C2586.837402,765.789917 2606.564697,764.155945 2626.848877,765.793091 
	C2642.800049,767.080566 2658.162354,770.387146 2673.378906,774.973022 
	C2678.166504,776.415894 2680.476074,778.609436 2680.206787,784.293213 
	C2679.624268,796.578003 2680.027588,808.909485 2680.027588,822.601746 
	C2676.614746,821.576721 2673.535156,821.256592 2671.115967,819.822205 
	C2659.727295,813.069092 2647.695801,807.848572 2634.711426,805.439941 
	C2619.921631,802.696533 2605.000488,801.546753 2590.428955,806.999512 
	C2585.836182,808.718201 2582.239014,811.438416 2582.010254,816.905029 
	C2581.777344,822.467041 2583.975830,826.614502 2589.759521,828.264282 
	C2600.351562,831.285522 2611.124268,833.757751 2621.927002,835.936279 
	C2638.602783,839.299133 2655.485107,841.653748 2669.898926,851.963684 
	C2684.274658,862.246277 2689.682373,880.610474 2687.401123,895.889343 
	C2682.903564,926.011841 2661.021484,938.071594 2635.202148,945.710754 
	C2623.946289,949.041016 2612.289551,950.387878 2599.995605,949.978638 
z"/>
<path fill="#094B83" opacity="1.000000" stroke="none" 
	d="
M607.998657,629.000122 
	C607.998657,621.860291 607.998657,615.220459 607.998657,608.135986 
	C584.647766,608.135986 561.573914,608.135986 538.692200,608.135986 
	C536.260803,597.393799 533.873413,587.132019 531.623108,576.840210 
	C527.801208,559.361206 524.098999,541.856079 520.273254,524.377991 
	C519.142151,519.210632 518.016968,514.016846 516.413818,508.986603 
	C515.296265,505.480255 517.760925,505.058685 519.546509,505.326904 
	C525.690918,506.249908 531.751404,507.721100 537.855896,508.922455 
	C546.593140,510.641876 555.316345,512.450134 564.090271,513.960754 
	C575.538452,515.931763 587.040039,517.590027 598.500732,519.490906 
	C611.194641,521.596375 623.869812,523.815491 636.550476,526.000305 
	C651.527405,528.580872 666.490967,531.240784 681.479980,533.748657 
	C695.137939,536.033997 708.822205,538.162109 723.151733,540.465027 
	C720.374329,549.107910 717.628967,557.435181 715.024780,565.806396 
	C711.222290,578.029724 707.756714,590.363098 703.709595,602.503662 
	C699.786499,614.272339 695.416077,625.897583 690.948303,637.472412 
	C690.361816,638.991943 688.154358,640.604248 686.490906,640.867615 
	C678.377991,642.152222 670.180908,642.892029 662.039917,644.015442 
	C650.631165,645.589844 639.225281,647.207153 627.858276,649.053223 
	C621.485107,650.088257 615.192871,651.621582 607.998657,653.109375 
	C607.998657,644.363525 607.998657,636.931824 607.998657,629.000122 
z"/>
<path fill="#094C83" opacity="1.000000" stroke="none" 
	d="
M409.706238,375.429565 
	C400.759125,378.004852 392.167053,380.324005 383.605133,382.749695 
	C367.321655,387.362915 351.085052,392.144379 334.771393,396.647369 
	C324.228088,399.557617 313.563873,402.026825 302.988708,404.825439 
	C294.898468,406.966431 286.868164,409.333069 278.796661,411.546234 
	C277.721924,411.840912 276.561493,411.822845 275.091949,411.989075 
	C275.091949,403.477844 274.501404,395.114563 275.377258,386.907776 
	C275.736786,383.538513 278.971954,380.267670 281.393890,377.364960 
	C289.618958,367.507019 298.051605,357.821899 306.430206,348.092499 
	C315.516205,337.541718 324.663208,327.043274 333.721985,316.469269 
	C340.882355,308.111237 347.916077,299.644745 355.067352,291.278839 
	C362.709534,282.338684 370.469299,273.498962 378.095947,264.545715 
	C390.611298,249.853302 403.038239,235.085449 415.595917,220.429474 
	C416.319244,219.585251 417.873047,219.084564 419.053162,219.060837 
	C425.536285,218.930435 432.023376,218.998596 438.950104,218.998596 
	C449.408600,265.795319 459.836578,312.455597 470.192078,358.791443 
	C461.534729,361.563904 453.313507,364.436066 444.950073,366.806580 
	C436.856018,369.100769 428.620117,370.897156 420.437408,372.874664 
	C416.995239,373.706604 413.529785,374.442169 409.706238,375.429565 
z"/>
<path fill="#5EB1F1" opacity="1.000000" stroke="none" 
	d="
M2204.012451,808.171509 
	C2196.898926,808.171509 2189.785645,808.171509 2182.290527,808.171509 
	C2182.290527,795.321228 2182.290527,782.988098 2182.290527,769.958923 
	C2189.252441,769.958923 2196.166992,769.958923 2203.779297,769.886597 
	C2204.807617,769.637695 2204.912354,769.372131 2204.791260,769.017517 
	C2204.791260,752.918274 2204.791260,736.818970 2204.791260,720.360779 
	C2223.656250,720.360779 2242.002930,720.360779 2261.063965,720.360779 
	C2261.063965,736.295837 2261.063965,752.188599 2261.118652,768.786682 
	C2261.351318,769.827148 2261.622803,769.944153 2261.988281,769.843079 
	C2279.056396,769.843079 2296.124268,769.843079 2313.500000,769.843079 
	C2313.500000,782.720398 2313.500000,794.938721 2313.500000,808.037903 
	C2296.630615,808.037903 2279.775146,808.037903 2262.214844,808.103271 
	C2261.173096,808.348877 2261.062012,808.621277 2261.176758,808.985901 
	C2261.153564,834.962952 2260.671631,860.950256 2261.253174,886.913757 
	C2261.714600,907.502075 2275.643555,911.785767 2293.003174,909.513489 
	C2297.825684,908.882141 2302.431885,906.705627 2307.197021,905.468201 
	C2309.067383,904.982483 2311.101807,905.128174 2313.493408,904.955017 
	C2313.616211,906.753357 2313.793701,908.192200 2313.799072,909.631714 
	C2313.827393,917.292236 2313.812500,924.953003 2313.812500,932.613647 
	C2313.812500,944.008301 2313.055664,945.138855 2301.556641,945.898499 
	C2286.890137,946.867371 2272.114258,948.554565 2257.523193,947.668640 
	C2240.488770,946.634338 2223.785156,942.611755 2213.393311,926.764160 
	C2207.979980,918.509216 2205.257812,909.242920 2205.206787,899.339172 
	C2205.053711,869.531189 2205.002930,839.722717 2204.858398,809.215820 
	C2204.632568,808.191101 2204.368652,808.075867 2204.012451,808.171509 
z"/>
<path fill="#094B83" opacity="1.000000" stroke="none" 
	d="
M494.998810,203.839325 
	C494.998810,193.708786 494.998810,184.057663 494.998810,173.779984 
	C510.469208,178.680084 525.528992,183.413269 540.565186,188.220459 
	C571.058044,197.969238 601.520020,207.815109 632.028198,217.515701 
	C668.417542,229.086304 704.844666,240.537872 741.249573,252.059753 
	C752.671143,255.674606 764.002197,259.601471 775.520386,262.872131 
	C780.048645,264.157990 781.837219,266.232147 781.030945,270.763153 
	C780.830933,271.886902 781.001099,273.076477 781.001099,274.570282 
	C764.444275,279.067047 747.927002,283.540100 731.417053,288.040009 
	C702.821411,295.833832 674.178711,303.462982 645.676147,311.583862 
	C639.116882,313.452759 635.780273,309.024689 631.730591,306.251495 
	C614.743958,294.619019 598.012695,282.613434 581.191528,270.739471 
	C560.055176,255.819443 538.945190,240.861694 517.773254,225.992371 
	C511.719452,221.740738 505.675568,217.416122 499.274048,213.739883 
	C495.206085,211.403763 494.594330,208.284439 494.998810,203.839325 
z"/>
<path fill="#0A4C83" opacity="1.000000" stroke="none" 
	d="
M275.141418,426.685974 
	C284.397614,423.599060 293.559448,421.009003 302.671631,418.254761 
	C311.417480,415.611206 320.077911,412.681061 328.847290,410.121460 
	C331.922272,409.223907 335.292816,409.353516 338.384155,408.494812 
	C348.230591,405.759766 357.962280,402.607178 367.825592,399.938538 
	C380.660156,396.465973 393.618256,393.449341 406.449493,389.965118 
	C419.270508,386.483643 431.955353,382.498901 444.785950,379.055267 
	C453.879974,376.614502 463.117035,374.706665 473.194824,372.349335 
	C481.786499,410.777405 490.485474,449.685455 499.549835,490.227692 
	C461.778473,484.039185 424.860107,478.121124 387.990570,471.913239 
	C350.415741,465.586639 312.888916,458.975006 275.025360,452.433594 
	C275.025360,444.054230 275.025360,435.582611 275.141418,426.685974 
z"/>
<path fill="#5EB1F1" opacity="1.000000" stroke="none" 
	d="
M2481.974609,945.001892 
	C2466.845703,945.001892 2452.213623,945.001892 2437.209717,945.001892 
	C2437.209717,863.928101 2437.209717,783.255920 2437.209717,702.290649 
	C2455.623047,702.290649 2473.872314,702.290649 2492.490479,702.290649 
	C2492.490479,783.057800 2492.490479,863.739075 2492.490479,945.001892 
	C2489.040039,945.001892 2485.755615,945.001892 2481.974609,945.001892 
z"/>
<path fill="#0A4C83" opacity="1.000000" stroke="none" 
	d="
M842.742310,324.234497 
	C873.911133,371.188751 904.820190,417.878723 936.059692,465.067841 
	C922.755859,465.067841 910.150635,465.067841 897.125732,465.067841 
	C897.125732,474.233826 897.125732,483.156372 897.125732,493.644958 
	C857.347290,465.638916 818.588806,438.350952 780.126709,411.271698 
	C784.303101,398.710754 788.264404,386.730469 792.270264,374.765106 
	C797.417175,359.391388 802.650208,344.046204 807.744263,328.655060 
	C810.009399,321.810944 811.862000,314.827026 814.248413,308.028198 
	C815.022644,305.822418 816.916199,302.311005 818.266357,302.325470 
	C822.261475,302.368286 827.054993,299.666199 830.195251,305.260254 
	C833.838806,311.750793 838.348694,317.755005 842.742310,324.234497 
z"/>
<path fill="#5EB1F1" opacity="1.000000" stroke="none" 
	d="
M1595.242676,944.980835 
	C1594.123535,943.849731 1592.920166,942.735046 1592.918823,941.618774 
	C1592.847168,884.988098 1592.877563,828.357361 1592.908447,771.726562 
	C1592.908691,771.408630 1593.069946,771.090759 1593.260864,770.385620 
	C1611.520874,770.385620 1629.886719,770.385620 1648.706543,770.385620 
	C1648.706543,778.422302 1648.706543,786.338684 1648.706543,795.459534 
	C1669.401489,777.032654 1691.962524,766.943970 1719.540771,770.905701 
	C1719.540771,788.691650 1719.540771,805.949707 1719.540771,823.658691 
	C1718.049316,823.766602 1716.612549,824.049438 1715.205322,823.942444 
	C1707.497803,823.356812 1699.776855,821.960938 1692.099365,822.184082 
	C1678.449097,822.580688 1664.621216,822.745056 1651.703003,828.088196 
	C1650.265991,828.682495 1648.995239,831.578064 1648.979248,833.418091 
	C1648.791382,854.903076 1648.858643,876.390381 1648.858643,897.877014 
	C1648.858643,913.338379 1648.858643,928.799744 1648.858643,944.996521 
	C1630.879639,944.996521 1613.299438,944.996521 1595.242676,944.980835 
z"/>
<path fill="#5DB1F1" opacity="1.000000" stroke="none" 
	d="
M973.000000,623.000000 
	C953.541077,623.000000 934.582153,623.000000 915.313232,623.000000 
	C915.313232,576.306641 915.313232,530.058594 915.313232,483.404907 
	C926.627380,483.404907 937.999634,483.404907 949.823853,483.404907 
	C949.823853,518.029724 949.823853,552.615173 949.823853,587.599121 
	C973.303833,587.599121 996.340271,587.599121 1019.826538,587.599121 
	C1019.826538,552.967651 1019.826538,518.382385 1019.826538,483.399597 
	C1031.638428,483.399597 1043.010620,483.399597 1054.693481,483.399597 
	C1054.693481,529.706665 1054.693481,575.954773 1054.693481,623.000000 
	C1027.654175,623.000000 1000.577087,623.000000 973.000000,623.000000 
z"/>
<path fill="#0A4C83" opacity="1.000000" stroke="none" 
	d="
M750.826904,545.032776 
	C758.281006,546.372314 765.277649,547.785156 772.312195,548.973145 
	C785.757263,551.243591 799.230591,553.346375 812.679932,555.591797 
	C829.228271,558.354614 845.759827,561.217834 862.307007,563.987732 
	C872.947571,565.768921 883.617676,567.380127 894.229797,569.313354 
	C895.311340,569.510376 896.859436,571.384705 896.880676,572.505554 
	C897.082581,583.160156 897.100098,593.822388 896.859680,604.475342 
	C896.833374,605.640503 894.984375,607.586487 893.760315,607.780762 
	C871.485779,611.316772 849.163818,614.552307 826.881042,618.037903 
	C811.362061,620.465393 795.904724,623.286499 780.387390,625.725220 
	C764.132446,628.279907 747.829529,630.528870 731.566833,633.036072 
	C725.997009,633.894775 720.497498,635.201294 714.941711,636.163452 
	C712.100281,636.655640 709.205383,636.839172 705.440735,637.262695 
	C707.550598,630.405029 709.307495,624.369995 711.264282,618.400513 
	C715.534058,605.374512 719.922852,592.387634 724.229858,579.373840 
	C727.931763,568.188721 731.468933,556.946045 735.427551,545.853149 
	C735.877319,544.592834 738.595947,543.422424 740.236511,543.456726 
	C743.629150,543.527832 747.004211,544.438904 750.826904,545.032776 
z"/>
<path fill="#0A4C83" opacity="1.000000" stroke="none" 
	d="
M472.247925,311.553284 
	C471.081421,305.366577 470.368988,299.515472 469.073914,293.796265 
	C466.580231,282.783875 463.601837,271.881165 461.109680,260.868439 
	C458.010284,247.172394 455.199615,233.411011 452.122803,219.016205 
	C462.003235,219.016205 471.991058,218.224792 481.747620,219.382385 
	C486.007202,219.887756 489.846558,224.308929 493.783569,227.084045 
	C503.474792,233.915176 513.098572,240.841934 522.773804,247.695877 
	C543.067139,262.071533 563.342468,276.473053 583.691101,290.770203 
	C596.337585,299.655731 609.104797,308.369507 622.510620,317.639465 
	C575.593689,330.409058 529.471680,342.962280 482.776764,355.671448 
	C479.343384,341.150482 475.891083,326.549500 472.247925,311.553284 
z"/>
<path fill="#094C83" opacity="1.000000" stroke="none" 
	d="
M753.208496,490.502380 
	C757.888306,477.191437 762.453064,464.276337 766.910461,451.324280 
	C769.762573,443.036743 772.456055,434.694672 775.439331,425.718842 
	C782.703430,430.723083 789.513428,435.299988 796.201355,440.048798 
	C806.178711,447.133240 816.013733,454.418518 826.011353,461.473846 
	C840.316895,471.569244 854.718506,481.528412 869.071228,491.556976 
	C877.615906,497.527313 886.172668,503.481323 894.646912,509.550323 
	C895.677185,510.288177 896.888000,511.689880 896.899536,512.795532 
	C897.050171,527.244812 896.999634,541.696228 896.999634,556.996399 
	C893.031860,556.602051 889.507996,556.479492 886.070251,555.870605 
	C871.653198,553.316956 857.288513,550.460999 842.852844,548.022217 
	C831.549316,546.112549 820.137451,544.845215 808.832581,542.942688 
	C796.673767,540.896423 784.604919,538.319153 772.456482,536.205811 
	C763.284363,534.610291 754.055908,533.329346 744.837402,532.014343 
	C741.528076,531.542297 740.687439,529.542358 741.958008,525.974548 
	C745.817017,515.138672 749.496643,504.238556 753.178894,493.340729 
	C753.422974,492.618591 753.104736,491.706421 753.208496,490.502380 
z"/>
<path fill="#5DB1F1" opacity="1.000000" stroke="none" 
	d="
M538.000000,633.000000 
	C553.126709,633.000000 567.753479,633.000000 582.687866,633.000000 
	C582.687866,666.363953 582.687866,699.281006 582.687866,732.599487 
	C549.695618,732.599487 516.660706,732.599487 483.312134,732.599487 
	C483.312134,699.636169 483.312134,666.719055 483.312134,633.000000 
	C501.340912,633.000000 519.420471,633.000000 538.000000,633.000000 
z"/>
<path fill="#5EB1F1" opacity="1.000000" stroke="none" 
	d="
M2337.834473,934.970825 
	C2337.834473,879.871765 2337.834473,825.267029 2337.834473,770.330811 
	C2356.531738,770.330811 2374.783691,770.330811 2393.447754,770.330811 
	C2393.447754,828.297058 2393.447754,886.313843 2393.447754,944.666748 
	C2375.150635,944.666748 2356.913574,944.666748 2337.834717,944.666748 
	C2337.834717,941.624512 2337.834717,938.544861 2337.834473,934.970825 
z"/>
<path fill="#0A4C83" opacity="1.000000" stroke="none" 
	d="
M781.159790,365.345825 
	C777.026550,378.150085 773.019897,390.571930 769.004150,403.022064 
	C730.974731,376.183868 693.333862,349.619904 655.092773,322.632355 
	C697.469055,311.130798 738.932495,299.876984 780.946533,288.473724 
	C780.946533,293.284302 780.946533,297.387238 780.946533,301.889038 
	C788.089661,301.889038 794.852661,301.889038 802.557495,301.889038 
	C795.321106,323.346832 788.303772,344.155121 781.159790,365.345825 
z"/>
<path fill="#66B4F1" opacity="1.000000" stroke="none" 
	d="
M223.291946,435.673553 
	C225.360565,438.189423 227.214706,440.416046 229.916351,443.660461 
	C229.916351,417.113373 229.916351,391.913605 229.916351,366.358765 
	C238.275360,366.358765 246.192734,366.358765 254.557495,366.358765 
	C254.557495,402.564026 254.557495,438.916016 254.557495,475.955750 
	C246.901932,475.955750 239.137024,476.125092 231.392639,475.802338 
	C229.969818,475.743042 228.354935,473.899109 227.293106,472.521088 
	C208.837555,448.569397 190.456299,424.560425 172.043091,400.576080 
	C171.690613,400.116943 171.148178,399.803619 170.008469,398.845886 
	C170.008469,424.924072 170.008469,450.135712 170.008469,475.671448 
	C161.660614,475.671448 153.742752,475.671448 145.410095,475.671448 
	C145.410095,439.380157 145.410095,403.025726 145.410095,366.024078 
	C153.001083,366.024078 160.602463,365.942078 168.197906,366.117401 
	C169.268524,366.142120 170.592300,367.206299 171.323700,368.155487 
	C187.373154,388.984619 203.353180,409.867249 219.355011,430.733093 
	C220.563187,432.308533 221.835159,433.835052 223.291946,435.673553 
z"/>
<path fill="#5DB1F1" opacity="1.000000" stroke="none" 
	d="
M400.000000,188.995911 
	C400.000000,167.205597 400.000000,145.914719 400.000000,124.313431 
	C426.694122,124.313431 452.944763,124.313431 479.598267,124.313431 
	C479.598267,150.634613 479.598267,177.003036 479.598267,203.686737 
	C453.305542,203.686737 427.054901,203.686737 400.000000,203.686737 
	C400.000000,199.004929 400.000000,194.250137 400.000000,188.995911 
z"/>
<path fill="#5DB1F1" opacity="1.000000" stroke="none" 
	d="
M899.000000,921.000000 
	C899.000000,929.127869 899.000000,936.755737 899.000000,944.688843 
	C873.968018,944.688843 849.384216,944.688843 824.399536,944.688843 
	C824.399536,920.027832 824.399536,895.326172 824.399536,870.311157 
	C849.031860,870.311157 873.615723,870.311157 899.000000,870.311157 
	C899.000000,887.008850 899.000000,903.754456 899.000000,921.000000 
z"/>
<path fill="#094C83" opacity="1.000000" stroke="none" 
	d="
M281.776367,307.720154 
	C292.088562,296.400909 302.197113,285.378967 312.206909,274.268005 
	C323.421906,261.819214 334.532593,249.276489 345.720947,236.803589 
	C349.122894,233.011047 352.630219,229.313019 356.091888,225.574112 
	C365.456329,215.459717 374.822174,205.346634 384.957336,194.401611 
	C384.957336,203.189529 384.957336,210.886047 384.957336,218.818207 
	C389.368561,218.818207 393.320038,218.818207 398.017090,218.818207 
	C356.912018,267.024994 316.245087,314.717926 275.106750,362.963745 
	C275.106750,357.131134 275.106750,351.792969 275.106750,346.010986 
	C265.591095,346.010986 256.560120,346.010986 246.555328,346.010986 
	C258.668762,332.838013 270.098969,320.408112 281.776367,307.720154 
z"/>
<path fill="#0A4C84" opacity="1.000000" stroke="none" 
	d="
M647.685303,747.194580 
	C637.213318,737.225098 627.678589,726.664612 616.738037,717.848816 
	C608.960632,711.582092 607.369324,704.600586 607.870239,695.571472 
	C608.422119,685.624268 607.996094,675.622864 607.996094,664.932739 
	C633.897400,660.933105 659.736145,656.943115 686.155762,652.863464 
	C675.231018,685.668213 664.203186,718.782532 652.949646,752.574524 
	C650.954651,750.459473 649.488037,748.904541 647.685303,747.194580 
z"/>
<path fill="#5DB1F1" opacity="1.000000" stroke="none" 
	d="
M516.000000,1229.000000 
	C516.000000,1241.792847 516.000000,1254.085693 516.000000,1266.687012 
	C494.305695,1266.687012 473.055023,1266.687012 451.401428,1266.687012 
	C451.401428,1245.365601 451.401428,1223.997192 451.401428,1202.313110 
	C472.694092,1202.313110 493.944794,1202.313110 516.000000,1202.313110 
	C516.000000,1210.997192 516.000000,1219.748535 516.000000,1229.000000 
z"/>
<path fill="#5DB1F1" opacity="1.000000" stroke="none" 
	d="
M2395.131348,706.162842 
	C2395.132080,719.240784 2395.132080,731.837280 2395.132080,744.713135 
	C2375.350830,744.713135 2356.109131,744.713135 2336.433105,744.713135 
	C2336.433105,730.777649 2336.433105,716.754883 2336.433105,702.412476 
	C2337.236084,702.289978 2338.172607,702.023926 2339.109375,702.022522 
	C2356.411377,701.996399 2373.713623,702.044983 2391.015137,701.956543 
	C2393.779785,701.942444 2395.642822,702.348328 2395.131348,706.162842 
z"/>
<path fill="#5DB1F1" opacity="1.000000" stroke="none" 
	d="
M792.334534,291.880341 
	C791.615662,291.393127 791.138184,290.988983 791.137207,290.583771 
	C791.099548,274.616821 791.105225,258.649811 791.105225,242.342514 
	C807.637207,242.342514 823.892273,242.342514 840.574707,242.342514 
	C840.574707,258.588593 840.574707,274.961121 840.574707,291.962921 
	C824.664734,291.962921 808.731445,291.962921 792.334534,291.880341 
z"/>
</svg>