<svg version="1.1" id="Layer_1" xmlns="http://www.w3.org/2000/svg" xmlns:xlink="http://www.w3.org/1999/xlink" x="0px" y="0px"
	 width="100%" viewBox="0 0 2800 1400" enable-background="new 0 0 2800 1400" xml:space="preserve">
<path fill="#FFFFFF" opacity="1.000000" stroke="none" 
	d="
M2026.000000,1401.000000 
	C1350.666626,1401.000000 675.833313,1401.000000 1.000000,1401.000000 
	C1.000000,934.333313 1.000000,467.666656 1.000000,1.000000 
	C934.333313,1.000000 1867.666626,1.000000 2801.000000,1.000000 
	C2801.000000,467.666656 2801.000000,934.333313 2801.000000,1401.000000 
	C2542.833252,1401.000000 2284.666748,1401.000000 2026.000000,1401.000000 
M2261.063965,768.081360 
	C2261.063965,752.188599 2261.063965,736.295837 2261.063965,720.360779 
	C2242.002930,720.360779 2223.656250,720.360779 2204.791260,720.360779 
	C2204.791260,736.818970 2204.791260,752.918274 2204.458252,769.210327 
	C2204.253174,769.375488 2204.104492,769.581604 2203.081787,769.958923 
	C2196.166992,769.958923 2189.252441,769.958923 2182.290527,769.958923 
	C2182.290527,782.988098 2182.290527,795.321228 2182.290527,808.171509 
	C2189.785645,808.171509 2196.898926,808.171509 2204.193115,808.511475 
	C2204.347656,808.725403 2204.547363,808.882324 2204.912109,809.914429 
	C2205.002930,839.722717 2205.053711,869.531189 2205.206787,899.339172 
	C2205.257812,909.242920 2207.979980,918.509216 2213.393311,926.764160 
	C2223.785156,942.611755 2240.488770,946.634338 2257.523193,947.668640 
	C2272.114258,948.554565 2286.890137,946.867371 2301.556641,945.898499 
	C2313.055664,945.138855 2313.812500,944.008301 2313.812500,932.613647 
	C2313.812500,924.953003 2313.827393,917.292236 2313.799072,909.631714 
	C2313.793701,908.192200 2313.616211,906.753357 2313.493408,904.955017 
	C2311.101807,905.128174 2309.067383,904.982483 2307.197021,905.468201 
	C2302.431885,906.705627 2297.825684,908.882141 2293.003174,909.513489 
	C2275.643555,911.785767 2261.714600,907.502075 2261.253174,886.913757 
	C2260.671631,860.950256 2261.153564,834.962952 2261.522461,808.790649 
	C2261.736328,808.622681 2261.891602,808.411438 2262.919678,808.037903 
	C2279.775146,808.037903 2296.630615,808.037903 2313.500000,808.037903 
	C2313.500000,794.938721 2313.500000,782.720398 2313.500000,769.843079 
	C2296.124268,769.843079 2279.056396,769.843079 2261.799805,769.493347 
	C2261.637695,769.274536 2261.429932,769.114746 2261.063965,768.081360 
M241.804123,496.060455 
	C233.815781,496.060455 225.827438,496.060455 217.642303,496.060455 
	C217.920929,497.377991 218.051849,498.512115 218.401596,499.574219 
	C224.565140,518.291626 230.753586,537.000916 236.940170,555.710754 
	C253.550400,605.944580 270.149506,656.182129 286.777222,706.410095 
	C303.151123,755.871399 319.561493,805.320496 335.943390,854.779114 
	C352.584290,905.019592 369.205902,955.266357 385.843933,1005.507751 
	C394.228943,1030.827759 402.631866,1056.141602 411.026215,1081.458496 
	C422.334900,1115.564819 433.620331,1149.679199 445.038544,1183.748779 
	C445.475037,1185.051270 447.142853,1186.787109 448.318359,1186.852173 
	C454.107819,1187.173218 459.924774,1186.998291 466.115814,1186.998291 
	C483.868591,1043.924072 501.578979,901.191589 519.358154,757.904724 
	C498.447479,757.904724 478.376373,757.904724 458.000275,757.904724 
	C458.000275,755.812256 458.000275,754.175415 458.000275,752.538574 
	C458.000244,732.873169 457.916504,713.206970 458.081635,693.542969 
	C458.109497,690.223022 457.031799,688.060608 454.582733,685.973633 
	C448.199951,680.534912 441.993378,674.888000 435.758575,669.277405 
	C430.537537,664.578979 425.398804,659.789246 420.182831,655.085205 
	C411.724548,647.457031 403.254303,639.841797 394.749329,632.265808 
	C386.123199,624.581970 377.389618,617.018005 368.810211,609.282715 
	C357.300201,598.905212 345.965851,588.332336 334.425232,577.989441 
	C315.882050,561.370728 297.225708,544.878296 278.628815,528.319397 
	C266.622223,517.628601 254.636398,506.914459 241.804123,496.060455 
M530.999023,1202.497803 
	C530.999023,1207.569092 530.999023,1212.640381 530.999023,1218.713501 
	C633.484741,1135.618164 735.130859,1053.203491 837.891296,969.885376 
	C824.041687,969.885376 811.665710,969.885376 799.000977,969.885376 
	C799.000977,951.971313 799.034180,934.506287 798.947388,917.041809 
	C798.939087,915.373291 798.704590,913.219971 797.682312,912.126099 
	C793.174133,907.302429 788.346619,902.776489 783.620117,898.157776 
	C775.708496,890.426453 767.865417,882.622803 759.849487,875.001038 
	C746.456665,862.266663 732.873291,849.732422 719.514404,836.962891 
	C707.057251,825.055359 694.825867,812.912048 682.422302,800.948059 
	C674.749695,793.547485 666.940796,786.288147 658.468750,778.280823 
	C613.155212,914.928589 568.107727,1050.774292 522.987122,1186.840332 
	C525.895386,1186.975342 528.317993,1187.087891 530.999023,1187.212280 
	C530.999023,1192.217773 530.999023,1196.859863 530.999023,1202.497803 
M760.542480,415.018768 
	C738.725098,399.664093 716.910339,384.305725 695.089478,368.955933 
	C677.294678,356.438263 659.411804,344.043152 641.755066,331.333801 
	C637.723267,328.431702 634.217590,328.103943 629.493286,329.427643 
	C597.727356,338.328125 565.872253,346.911041 534.035889,355.559326 
	C517.884766,359.946747 501.712433,364.256104 485.582306,368.591980 
	C486.806427,374.755035 487.866058,380.479492 489.094482,386.167511 
	C490.378876,392.114594 491.887451,398.013092 493.189453,403.956604 
	C496.952087,421.132721 500.648224,438.323395 504.394073,455.503204 
	C506.578735,465.522858 508.679047,475.563904 511.085297,485.530640 
	C511.984192,489.254028 512.461548,493.380157 517.912109,494.076935 
	C531.023560,495.753174 544.103455,497.717743 557.149658,499.850006 
	C568.296082,501.671783 579.353455,504.036041 590.494812,505.892456 
	C603.512756,508.061584 616.608337,509.768585 629.617493,511.985596 
	C648.333313,515.175110 666.988770,518.717651 685.694580,521.967896 
	C698.158081,524.133545 710.735168,525.710510 723.111694,528.274231 
	C727.231995,529.127747 728.011780,527.167786 728.860657,524.597046 
	C734.950562,506.153534 740.928467,487.673157 746.964966,469.212006 
	C752.301575,452.891174 757.487183,436.516571 763.177734,420.319733 
	C764.281311,417.178619 762.912231,416.624023 760.542480,415.018768 
M930.503357,711.998291 
	C925.404846,711.998291 920.306396,711.998291 915.187866,711.998291 
	C915.187866,789.992493 915.187866,867.233643 915.187866,944.724731 
	C933.379639,944.724731 951.278442,944.724731 969.883606,944.724731 
	C969.883606,892.182373 969.883606,839.911621 969.883606,786.564270 
	C971.428345,788.643494 972.286194,789.635437 972.966309,790.737061 
	C1004.014282,841.026978 1035.019897,891.343262 1066.197144,941.552856 
	C1067.248657,943.246216 1069.998047,944.822266 1071.980835,944.852844 
	C1088.806763,945.112549 1105.638428,945.009094 1122.468384,944.981018 
	C1123.572510,944.979126 1124.676025,944.702026 1125.796631,944.550781 
	C1125.796631,867.013306 1125.796631,789.771606 1125.796631,712.264404 
	C1107.607422,712.264404 1089.704224,712.264404 1070.941162,712.264404 
	C1070.941162,755.940369 1070.941162,799.370728 1070.941162,842.801086 
	C1068.743530,841.590637 1067.709839,840.147583 1066.756592,838.653137 
	C1040.562866,797.589233 1014.331848,756.548828 988.294128,715.386108 
	C986.580688,712.677368 984.920532,711.926270 981.991333,711.945251 
	C965.162109,712.054260 948.331787,711.998291 930.503357,711.998291 
M672.561646,771.913696 
	C673.113586,772.198975 673.771545,772.373596 674.201843,772.785828 
	C681.949097,780.208801 689.677246,787.651794 697.392456,795.108154 
	C707.091858,804.481934 716.837341,813.809326 726.444336,823.277100 
	C732.641785,829.384766 738.429443,835.917542 744.757996,841.880615 
	C752.184814,848.878601 760.307434,855.152466 767.570251,862.306824 
	C777.632080,872.218384 787.173889,882.657898 796.938354,892.871338 
	C797.560486,892.501709 798.182556,892.132080 798.804688,891.762451 
	C798.804688,876.277954 798.804688,860.793518 798.804688,844.892944 
	C817.078857,844.892944 834.615845,844.892944 852.726074,844.892944 
	C832.203003,809.431213 812.010986,774.541565 791.679993,739.411621 
	C855.624878,706.677063 919.108032,674.178894 982.591125,641.680725 
	C982.503357,641.365601 982.415588,641.050415 982.327820,640.735229 
	C953.940063,640.735229 925.552307,640.735229 896.776245,640.735229 
	C896.776245,633.708191 896.776245,627.109863 896.776245,620.372681 
	C885.589050,622.015381 874.800781,623.528992 864.036133,625.195190 
	C843.088928,628.437561 822.163086,631.817993 801.212585,635.038940 
	C788.022400,637.066711 774.783447,638.780945 761.602539,640.864380 
	C743.142639,643.782166 724.773743,647.388733 706.236023,649.622498 
	C701.512756,650.191650 700.190247,652.035889 699.036011,655.386719 
	C696.969971,661.384338 695.103821,667.450439 693.105713,673.471863 
	C688.822388,686.380615 684.500183,699.276489 680.209167,712.182678 
	C676.460327,723.458008 672.357788,734.634277 669.126221,746.056519 
	C666.944458,753.768188 659.939514,762.112610 670.098999,769.484314 
	C670.826660,770.012268 671.413391,770.734375 672.561646,771.913696 
M607.998474,754.330872 
	C608.634644,757.622620 606.955566,758.071045 604.086487,758.057495 
	C581.596436,757.951050 559.105591,757.998657 536.614990,757.998718 
	C534.834717,757.998718 533.054504,757.998657 531.533325,757.998657 
	C513.741699,901.227905 496.019043,1043.901733 478.244324,1186.994751 
	C487.858337,1186.994751 497.493042,1187.070679 507.122437,1186.878296 
	C508.096497,1186.858887 509.554901,1185.392700 509.917358,1184.307007 
	C515.245667,1168.346436 520.373779,1152.319092 525.654724,1136.342529 
	C532.730652,1114.935791 539.944641,1093.574829 547.014221,1072.166016 
	C556.800659,1042.529785 566.455200,1012.849731 576.267029,983.221863 
	C583.064636,962.695801 590.083679,942.243286 596.911316,921.727051 
	C605.659485,895.440063 614.329102,869.126770 623.004822,842.815674 
	C628.378540,826.518677 633.652039,810.188477 639.068359,793.905701 
	C641.391602,786.921326 643.530273,779.820251 646.596252,773.160522 
	C648.254272,769.559143 647.592468,767.373657 645.165771,765.052063 
	C641.519958,761.564026 637.768127,758.186523 634.132996,754.687561 
	C625.686523,746.557312 617.282837,738.382507 607.998596,729.389587 
	C607.998596,738.175781 607.998596,745.769775 607.998474,754.330872 
M2098.093750,819.500000 
	C2097.444824,838.195251 2097.379150,856.936768 2095.900635,875.566162 
	C2095.163330,884.853699 2090.623535,893.579529 2082.405762,898.764038 
	C2067.750732,908.010071 2051.676270,908.288147 2035.644165,903.196960 
	C2019.438232,898.050537 2012.479858,884.149170 2012.229614,866.922058 
	C2011.510742,817.440613 2011.859497,767.943604 2011.789307,718.452759 
	C2011.786499,716.497070 2011.789062,714.541443 2011.789062,712.366455 
	C1991.529053,712.366455 1971.823853,712.366455 1951.739380,712.366455 
	C1951.739380,714.212158 1951.739258,715.690369 1951.739380,717.168640 
	C1951.742676,765.160767 1951.687866,813.153076 1951.812622,861.144897 
	C1951.831055,868.240417 1952.229736,875.402588 1953.261475,882.414917 
	C1956.212769,902.471985 1965.828491,918.710205 1982.080078,931.005249 
	C1998.828369,943.676208 2018.483276,948.342346 2038.645508,949.691284 
	C2057.052002,950.922791 2075.666992,950.780701 2093.882324,945.915466 
	C2115.431152,940.159851 2133.864502,930.032837 2145.859863,910.505859 
	C2154.403320,896.598206 2158.029297,881.182739 2158.076416,865.006958 
	C2158.220703,815.515503 2158.154053,766.023376 2158.148926,716.531555 
	C2158.148926,715.111633 2157.918701,713.691650 2157.799805,712.319092 
	C2137.736572,712.319092 2118.155518,712.319092 2098.093994,712.319092 
	C2098.093994,747.925110 2098.093994,783.212585 2098.093750,819.500000 
M292.612183,467.996704 
	C286.921326,467.001251 281.230499,466.005768 274.955109,464.908081 
	C274.955109,475.359650 274.955109,485.586945 274.955109,496.279846 
	C271.394012,496.279846 268.393829,496.279846 264.872955,496.279846 
	C329.251709,554.038086 393.075592,611.298462 457.751648,669.323425 
	C457.751648,648.410645 457.751648,628.408081 457.751648,608.064392 
	C480.698029,608.064392 502.946838,608.064392 525.485474,608.064392 
	C524.338013,601.488647 523.500183,595.250000 522.127380,589.131348 
	C519.584900,577.799133 516.623413,566.561462 514.029724,555.240051 
	C510.262817,538.797791 506.728027,522.301941 502.872162,505.881042 
	C502.594604,504.698853 500.617310,503.320465 499.246338,503.079346 
	C477.654236,499.281647 456.028381,495.676056 434.417572,491.983856 
	C417.506744,489.094635 400.614044,486.098969 383.698334,483.238861 
	C367.105530,480.433319 350.487488,477.777069 333.892487,474.984314 
	C320.413208,472.715912 306.951599,470.342285 292.612183,467.996704 
M1344.099365,833.254456 
	C1343.392334,828.855835 1343.040161,824.364441 1341.918701,820.074158 
	C1336.090088,797.775391 1323.515625,780.926331 1301.563965,772.375977 
	C1278.967651,763.574341 1255.618896,763.370300 1232.081543,767.656799 
	C1212.560913,771.211792 1195.174194,779.091919 1182.307983,794.694641 
	C1176.699585,801.495972 1170.871216,808.667358 1167.525269,816.667175 
	C1160.640869,833.127258 1157.842651,850.489319 1159.925293,868.598633 
	C1161.097290,878.790222 1162.775391,888.666138 1166.796265,898.114685 
	C1171.401978,908.937256 1177.858398,918.504578 1186.819458,926.106812 
	C1205.490479,941.946716 1228.118164,947.833496 1251.726440,949.747925 
	C1264.537964,950.786804 1277.713135,950.404053 1290.438232,948.621033 
	C1304.382568,946.667236 1318.130493,942.826172 1331.712769,938.931152 
	C1342.200073,935.923523 1342.027588,935.322021 1342.027588,924.291260 
	C1342.027588,913.010742 1342.027588,901.730286 1342.027588,889.549377 
	C1338.679688,890.173706 1335.490967,889.887390 1333.459839,891.284119 
	C1314.110596,904.589661 1293.091064,912.027222 1269.337402,911.046265 
	C1257.774414,910.568787 1246.733154,908.491577 1236.470093,902.885681 
	C1224.357056,896.269226 1215.640991,880.644348 1217.523315,867.942261 
	C1259.833618,867.942261 1302.227905,867.942261 1344.359131,867.942261 
	C1344.359131,856.308228 1344.359131,845.217712 1344.099365,833.254456 
M1824.489136,765.002441 
	C1814.780273,766.032227 1804.957642,766.447693 1795.386719,768.221985 
	C1776.429321,771.736206 1760.305420,780.844543 1747.970093,795.765625 
	C1733.641968,813.097107 1728.808716,833.890503 1728.145996,855.764465 
	C1727.928955,862.932495 1729.251221,870.176392 1730.185303,877.344421 
	C1732.568604,895.631409 1740.136841,911.230103 1753.156250,924.604126 
	C1769.092163,940.974060 1789.063354,947.902771 1810.778198,949.691162 
	C1825.322144,950.888916 1840.139282,950.825439 1854.670898,946.975037 
	C1881.715942,939.808960 1902.249756,925.116272 1913.153809,898.609619 
	C1921.324585,878.747192 1922.352295,858.227234 1919.053833,837.225647 
	C1915.254517,813.034241 1903.842285,793.570557 1883.304932,780.044434 
	C1865.828735,768.534302 1845.903198,765.578735 1824.489136,765.002441 
M1375.904175,908.683594 
	C1377.697266,918.925964 1382.521484,927.919617 1389.827759,934.863708 
	C1405.744385,949.991821 1425.693604,951.769470 1446.248779,949.265137 
	C1462.401001,947.297241 1475.448730,938.227234 1488.358643,929.142517 
	C1489.613159,928.259705 1491.027222,927.603760 1493.286987,926.319946 
	C1493.286987,933.188110 1493.286987,938.926514 1493.286987,944.705017 
	C1512.122192,944.705017 1530.374390,944.705017 1548.755127,944.705017 
	C1548.755127,886.390076 1548.755127,828.373352 1548.755127,770.307617 
	C1530.114380,770.307617 1511.870850,770.307617 1493.117065,770.307617 
	C1493.117065,772.568542 1493.117065,774.526184 1493.117065,776.483765 
	C1493.117065,813.973145 1493.097656,851.462463 1493.151978,888.951782 
	C1493.156616,892.112488 1492.817749,894.508606 1489.541626,896.312805 
	C1478.420288,902.437500 1466.751587,905.983826 1453.968140,904.972107 
	C1444.840820,904.249756 1436.872070,901.043579 1433.510132,891.816284 
	C1431.563843,886.474548 1430.215454,880.595215 1430.151245,874.940125 
	C1429.776001,841.953735 1429.860352,808.962097 1429.790405,775.972229 
	C1429.786621,774.182007 1429.789917,772.391846 1429.789917,770.309692 
	C1410.708252,770.309692 1392.167236,770.309692 1373.354004,770.309692 
	C1373.264038,771.898682 1373.126831,773.194397 1373.126587,774.490112 
	C1373.117554,810.979736 1372.984863,847.470276 1373.232544,883.958252 
	C1373.286865,891.960449 1374.703003,899.953308 1375.904175,908.683594 
M2600.494629,949.971313 
	C2612.289551,950.387878 2623.946289,949.041016 2635.202148,945.710754 
	C2661.021484,938.071594 2682.903564,926.011841 2687.401123,895.889343 
	C2689.682373,880.610474 2684.274658,862.246277 2669.898926,851.963684 
	C2655.485107,841.653748 2638.602783,839.299133 2621.927002,835.936279 
	C2611.124268,833.757751 2600.351562,831.285522 2589.759521,828.264282 
	C2583.975830,826.614502 2581.777344,822.467041 2582.010254,816.905029 
	C2582.239014,811.438416 2585.836182,808.718201 2590.428955,806.999512 
	C2605.000488,801.546753 2619.921631,802.696533 2634.711426,805.439941 
	C2647.695801,807.848572 2659.727295,813.069092 2671.115967,819.822205 
	C2673.535156,821.256592 2676.614746,821.576721 2680.027588,822.601746 
	C2680.027588,808.909485 2679.624268,796.578003 2680.206787,784.293213 
	C2680.476074,778.609436 2678.166504,776.415894 2673.378906,774.973022 
	C2658.162354,770.387146 2642.800049,767.080566 2626.848877,765.793091 
	C2606.564697,764.155945 2586.837402,765.789917 2567.545654,772.100403 
	C2552.226318,777.111572 2539.496338,785.837708 2530.947510,799.785583 
	C2524.294189,810.640747 2522.463867,822.564453 2525.187988,834.929688 
	C2527.387939,844.918091 2531.805176,854.045898 2539.618164,860.888306 
	C2549.211182,869.289368 2560.887695,873.990601 2573.077881,876.870789 
	C2587.838867,880.358215 2602.856201,882.746155 2617.708008,885.869202 
	C2626.057373,887.624817 2630.797852,892.636169 2630.162842,898.713440 
	C2629.482666,905.221375 2624.874512,907.387085 2619.915771,909.260864 
	C2609.190674,913.313721 2597.852783,912.822388 2586.910645,911.687500 
	C2566.603760,909.581360 2547.591553,903.036987 2530.565918,891.318542 
	C2528.943359,890.201538 2526.484131,890.299927 2523.958252,889.731750 
	C2523.958252,905.284973 2523.908691,919.765930 2524.055176,934.244934 
	C2524.066406,935.362915 2525.211182,936.923035 2526.255127,937.481934 
	C2528.390869,938.625366 2530.807617,939.252197 2533.123535,940.048767 
	C2554.635254,947.447449 2576.764160,950.734558 2600.494629,949.971313 
M607.998657,629.500122 
	C607.998657,636.931824 607.998657,644.363525 607.998657,653.109375 
	C615.192871,651.621582 621.485107,650.088257 627.858276,649.053223 
	C639.225281,647.207153 650.631165,645.589844 662.039917,644.015442 
	C670.180908,642.892029 678.377991,642.152222 686.490906,640.867615 
	C688.154358,640.604248 690.361816,638.991943 690.948303,637.472412 
	C695.416077,625.897583 699.786499,614.272339 703.709595,602.503662 
	C707.756714,590.363098 711.222290,578.029724 715.024780,565.806396 
	C717.628967,557.435181 720.374329,549.107910 723.151733,540.465027 
	C708.822205,538.162109 695.137939,536.033997 681.479980,533.748657 
	C666.490967,531.240784 651.527405,528.580872 636.550476,526.000305 
	C623.869812,523.815491 611.194641,521.596375 598.500732,519.490906 
	C587.040039,517.590027 575.538452,515.931763 564.090271,513.960754 
	C555.316345,512.450134 546.593140,510.641876 537.855896,508.922455 
	C531.751404,507.721100 525.690918,506.249908 519.546509,505.326904 
	C517.760925,505.058685 515.296265,505.480255 516.413818,508.986603 
	C518.016968,514.016846 519.142151,519.210632 520.273254,524.377991 
	C524.098999,541.856079 527.801208,559.361206 531.623108,576.840210 
	C533.873413,587.132019 536.260803,597.393799 538.692200,608.135986 
	C561.573914,608.135986 584.647766,608.135986 607.998657,608.135986 
	C607.998657,615.220459 607.998657,621.860291 607.998657,629.500122 
M410.074890,375.221527 
	C413.529785,374.442169 416.995239,373.706604 420.437408,372.874664 
	C428.620117,370.897156 436.856018,369.100769 444.950073,366.806580 
	C453.313507,364.436066 461.534729,361.563904 470.192078,358.791443 
	C459.836578,312.455597 449.408600,265.795319 438.950104,218.998596 
	C432.023376,218.998596 425.536285,218.930435 419.053162,219.060837 
	C417.873047,219.084564 416.319244,219.585251 415.595917,220.429474 
	C403.038239,235.085449 390.611298,249.853302 378.095947,264.545715 
	C370.469299,273.498962 362.709534,282.338684 355.067352,291.278839 
	C347.916077,299.644745 340.882355,308.111237 333.721985,316.469269 
	C324.663208,327.043274 315.516205,337.541718 306.430206,348.092499 
	C298.051605,357.821899 289.618958,367.507019 281.393890,377.364960 
	C278.971954,380.267670 275.736786,383.538513 275.377258,386.907776 
	C274.501404,395.114563 275.091949,403.477844 275.091949,411.989075 
	C276.561493,411.822845 277.721924,411.840912 278.796661,411.546234 
	C286.868164,409.333069 294.898468,406.966431 302.988708,404.825439 
	C313.563873,402.026825 324.228088,399.557617 334.771393,396.647369 
	C351.085052,392.144379 367.321655,387.362915 383.605133,382.749695 
	C392.167053,380.324005 400.759125,378.004852 410.074890,375.221527 
M494.998810,204.318726 
	C494.594330,208.284439 495.206085,211.403763 499.274048,213.739883 
	C505.675568,217.416122 511.719452,221.740738 517.773254,225.992371 
	C538.945190,240.861694 560.055176,255.819443 581.191528,270.739471 
	C598.012695,282.613434 614.743958,294.619019 631.730591,306.251495 
	C635.780273,309.024689 639.116882,313.452759 645.676147,311.583862 
	C674.178711,303.462982 702.821411,295.833832 731.417053,288.040009 
	C747.927002,283.540100 764.444275,279.067047 781.001099,274.570282 
	C781.001099,273.076477 780.830933,271.886902 781.030945,270.763153 
	C781.837219,266.232147 780.048645,264.157990 775.520386,262.872131 
	C764.002197,259.601471 752.671143,255.674606 741.249573,252.059753 
	C704.844666,240.537872 668.417542,229.086304 632.028198,217.515701 
	C601.520020,207.815109 571.058044,197.969238 540.565186,188.220459 
	C525.528992,183.413269 510.469208,178.680084 494.998810,173.779984 
	C494.998810,184.057663 494.998810,193.708786 494.998810,204.318726 
M275.025360,427.111023 
	C275.025360,435.582611 275.025360,444.054230 275.025360,452.433594 
	C312.888916,458.975006 350.415741,465.586639 387.990570,471.913239 
	C424.860107,478.121124 461.778473,484.039185 499.549835,490.227692 
	C490.485474,449.685455 481.786499,410.777405 473.194824,372.349335 
	C463.117035,374.706665 453.879974,376.614502 444.785950,379.055267 
	C431.955353,382.498901 419.270508,386.483643 406.449493,389.965118 
	C393.618256,393.449341 380.660156,396.465973 367.825592,399.938538 
	C357.962280,402.607178 348.230591,405.759766 338.384155,408.494812 
	C335.292816,409.353516 331.922272,409.223907 328.847290,410.121460 
	C320.077911,412.681061 311.417480,415.611206 302.671631,418.254761 
	C293.559448,421.009003 284.397614,423.599060 275.025360,427.111023 
M2482.471191,945.001892 
	C2485.755615,945.001892 2489.040039,945.001892 2492.490479,945.001892 
	C2492.490479,863.739075 2492.490479,783.057800 2492.490479,702.290649 
	C2473.872314,702.290649 2455.623047,702.290649 2437.209717,702.290649 
	C2437.209717,783.255920 2437.209717,863.928101 2437.209717,945.001892 
	C2452.213623,945.001892 2466.845703,945.001892 2482.471191,945.001892 
M842.482544,323.970276 
	C838.348694,317.755005 833.838806,311.750793 830.195251,305.260254 
	C827.054993,299.666199 822.261475,302.368286 818.266357,302.325470 
	C816.916199,302.311005 815.022644,305.822418 814.248413,308.028198 
	C811.862000,314.827026 810.009399,321.810944 807.744263,328.655060 
	C802.650208,344.046204 797.417175,359.391388 792.270264,374.765106 
	C788.264404,386.730469 784.303101,398.710754 780.126709,411.271698 
	C818.588806,438.350952 857.347290,465.638916 897.125732,493.644958 
	C897.125732,483.156372 897.125732,474.233826 897.125732,465.067841 
	C910.150635,465.067841 922.755859,465.067841 936.059692,465.067841 
	C904.820190,417.878723 873.911133,371.188751 842.482544,323.970276 
M1595.719238,944.996521 
	C1613.299438,944.996521 1630.879639,944.996521 1648.858643,944.996521 
	C1648.858643,928.799744 1648.858643,913.338379 1648.858643,897.877014 
	C1648.858643,876.390381 1648.791382,854.903076 1648.979248,833.418091 
	C1648.995239,831.578064 1650.265991,828.682495 1651.703003,828.088196 
	C1664.621216,822.745056 1678.449097,822.580688 1692.099365,822.184082 
	C1699.776855,821.960938 1707.497803,823.356812 1715.205322,823.942444 
	C1716.612549,824.049438 1718.049316,823.766602 1719.540771,823.658691 
	C1719.540771,805.949707 1719.540771,788.691650 1719.540771,770.905701 
	C1691.962524,766.943970 1669.401489,777.032654 1648.706543,795.459534 
	C1648.706543,786.338684 1648.706543,778.422302 1648.706543,770.385620 
	C1629.886719,770.385620 1611.520874,770.385620 1593.260864,770.385620 
	C1593.069946,771.090759 1592.908691,771.408630 1592.908447,771.726562 
	C1592.877563,828.357361 1592.847168,884.988098 1592.918823,941.618774 
	C1592.920166,942.735046 1594.123535,943.849731 1595.719238,944.996521 
M973.500000,623.000000 
	C1000.577087,623.000000 1027.654175,623.000000 1054.693481,623.000000 
	C1054.693481,575.954773 1054.693481,529.706665 1054.693481,483.399597 
	C1043.010620,483.399597 1031.638428,483.399597 1019.826538,483.399597 
	C1019.826538,518.382385 1019.826538,552.967651 1019.826538,587.599121 
	C996.340271,587.599121 973.303833,587.599121 949.823853,587.599121 
	C949.823853,552.615173 949.823853,518.029724 949.823853,483.404907 
	C937.999634,483.404907 926.627380,483.404907 915.313232,483.404907 
	C915.313232,530.058594 915.313232,576.306641 915.313232,623.000000 
	C934.582153,623.000000 953.541077,623.000000 973.500000,623.000000 
M750.386475,545.004456 
	C747.004211,544.438904 743.629150,543.527832 740.236511,543.456726 
	C738.595947,543.422424 735.877319,544.592834 735.427551,545.853149 
	C731.468933,556.946045 727.931763,568.188721 724.229858,579.373840 
	C719.922852,592.387634 715.534058,605.374512 711.264282,618.400513 
	C709.307495,624.369995 707.550598,630.405029 705.440735,637.262695 
	C709.205383,636.839172 712.100281,636.655640 714.941711,636.163452 
	C720.497498,635.201294 725.997009,633.894775 731.566833,633.036072 
	C747.829529,630.528870 764.132446,628.279907 780.387390,625.725220 
	C795.904724,623.286499 811.362061,620.465393 826.881042,618.037903 
	C849.163818,614.552307 871.485779,611.316772 893.760315,607.780762 
	C894.984375,607.586487 896.833374,605.640503 896.859680,604.475342 
	C897.100098,593.822388 897.082581,583.160156 896.880676,572.505554 
	C896.859436,571.384705 895.311340,569.510376 894.229797,569.313354 
	C883.617676,567.380127 872.947571,565.768921 862.307007,563.987732 
	C845.759827,561.217834 829.228271,558.354614 812.679932,555.591797 
	C799.230591,553.346375 785.757263,551.243591 772.312195,548.973145 
	C765.277649,547.785156 758.281006,546.372314 750.386475,545.004456 
M472.438782,311.948486 
	C475.891083,326.549500 479.343384,341.150482 482.776764,355.671448 
	C529.471680,342.962280 575.593689,330.409058 622.510620,317.639465 
	C609.104797,308.369507 596.337585,299.655731 583.691101,290.770203 
	C563.342468,276.473053 543.067139,262.071533 522.773804,247.695877 
	C513.098572,240.841934 503.474792,233.915176 493.783569,227.084045 
	C489.846558,224.308929 486.007202,219.887756 481.747620,219.382385 
	C471.991058,218.224792 462.003235,219.016205 452.122803,219.016205 
	C455.199615,233.411011 458.010284,247.172394 461.109680,260.868439 
	C463.601837,271.881165 466.580231,282.783875 469.073914,293.796265 
	C470.368988,299.515472 471.081421,305.366577 472.438782,311.948486 
M753.048096,490.882629 
	C753.104736,491.706421 753.422974,492.618591 753.178894,493.340729 
	C749.496643,504.238556 745.817017,515.138672 741.958008,525.974548 
	C740.687439,529.542358 741.528076,531.542297 744.837402,532.014343 
	C754.055908,533.329346 763.284363,534.610291 772.456482,536.205811 
	C784.604919,538.319153 796.673767,540.896423 808.832581,542.942688 
	C820.137451,544.845215 831.549316,546.112549 842.852844,548.022217 
	C857.288513,550.460999 871.653198,553.316956 886.070251,555.870605 
	C889.507996,556.479492 893.031860,556.602051 896.999634,556.996399 
	C896.999634,541.696228 897.050171,527.244812 896.899536,512.795532 
	C896.888000,511.689880 895.677185,510.288177 894.646912,509.550323 
	C886.172668,503.481323 877.615906,497.527313 869.071228,491.556976 
	C854.718506,481.528412 840.316895,471.569244 826.011353,461.473846 
	C816.013733,454.418518 806.178711,447.133240 796.201355,440.048798 
	C789.513428,435.299988 782.703430,430.723083 775.439331,425.718842 
	C772.456055,434.694672 769.762573,443.036743 766.910461,451.324280 
	C762.453064,464.276337 757.888306,477.191437 753.048096,490.882629 
M537.500000,633.000000 
	C519.420471,633.000000 501.340912,633.000000 483.312134,633.000000 
	C483.312134,666.719055 483.312134,699.636169 483.312134,732.599487 
	C516.660706,732.599487 549.695618,732.599487 582.687866,732.599487 
	C582.687866,699.281006 582.687866,666.363953 582.687866,633.000000 
	C567.753479,633.000000 553.126709,633.000000 537.500000,633.000000 
M2337.834717,935.465149 
	C2337.834717,938.544861 2337.834717,941.624512 2337.834717,944.666748 
	C2356.913574,944.666748 2375.150635,944.666748 2393.447754,944.666748 
	C2393.447754,886.313843 2393.447754,828.297058 2393.447754,770.330811 
	C2374.783691,770.330811 2356.531738,770.330811 2337.834473,770.330811 
	C2337.834473,825.267029 2337.834473,879.871765 2337.834717,935.465149 
M781.286377,364.963379 
	C788.303772,344.155121 795.321106,323.346832 802.557495,301.889038 
	C794.852661,301.889038 788.089661,301.889038 780.946533,301.889038 
	C780.946533,297.387238 780.946533,293.284302 780.946533,288.473724 
	C738.932495,299.876984 697.469055,311.130798 655.092773,322.632355 
	C693.333862,349.619904 730.974731,376.183868 769.004150,403.022064 
	C773.019897,390.571930 777.026550,378.150085 781.286377,364.963379 
M223.077484,435.384308 
	C221.835159,433.835052 220.563187,432.308533 219.355011,430.733093 
	C203.353180,409.867249 187.373154,388.984619 171.323700,368.155487 
	C170.592300,367.206299 169.268524,366.142120 168.197906,366.117401 
	C160.602463,365.942078 153.001083,366.024078 145.410095,366.024078 
	C145.410095,403.025726 145.410095,439.380157 145.410095,475.671448 
	C153.742752,475.671448 161.660614,475.671448 170.008469,475.671448 
	C170.008469,450.135712 170.008469,424.924072 170.008469,398.845886 
	C171.148178,399.803619 171.690613,400.116943 172.043091,400.576080 
	C190.456299,424.560425 208.837555,448.569397 227.293106,472.521088 
	C228.354935,473.899109 229.969818,475.743042 231.392639,475.802338 
	C239.137024,476.125092 246.901932,475.955750 254.557495,475.955750 
	C254.557495,438.916016 254.557495,402.564026 254.557495,366.358765 
	C246.192734,366.358765 238.275360,366.358765 229.916351,366.358765 
	C229.916351,391.913605 229.916351,417.113373 229.916351,443.660461 
	C227.214706,440.416046 225.360565,438.189423 223.077484,435.384308 
M400.000000,189.495331 
	C400.000000,194.250137 400.000000,199.004929 400.000000,203.686737 
	C427.054901,203.686737 453.305542,203.686737 479.598267,203.686737 
	C479.598267,177.003036 479.598267,150.634613 479.598267,124.313431 
	C452.944763,124.313431 426.694122,124.313431 400.000000,124.313431 
	C400.000000,145.914719 400.000000,167.205597 400.000000,189.495331 
M899.000000,920.500000 
	C899.000000,903.754456 899.000000,887.008850 899.000000,870.311157 
	C873.615723,870.311157 849.031860,870.311157 824.399536,870.311157 
	C824.399536,895.326172 824.399536,920.027832 824.399536,944.688843 
	C849.384216,944.688843 873.968018,944.688843 899.000000,944.688843 
	C899.000000,936.755737 899.000000,929.127869 899.000000,920.500000 
M281.529144,307.978180 
	C270.098969,320.408112 258.668762,332.838013 246.555328,346.010986 
	C256.560120,346.010986 265.591095,346.010986 275.106750,346.010986 
	C275.106750,351.792969 275.106750,357.131134 275.106750,362.963745 
	C316.245087,314.717926 356.912018,267.024994 398.017090,218.818207 
	C393.320038,218.818207 389.368561,218.818207 384.957336,218.818207 
	C384.957336,210.886047 384.957336,203.189529 384.957336,194.401611 
	C374.822174,205.346634 365.456329,215.459717 356.091888,225.574112 
	C352.630219,229.313019 349.122894,233.011047 345.720947,236.803589 
	C334.532593,249.276489 323.421906,261.819214 312.206909,274.268005 
	C302.197113,285.378967 292.088562,296.400909 281.529144,307.978180 
M648.021362,747.349609 
	C649.488037,748.904541 650.954651,750.459473 652.949646,752.574524 
	C664.203186,718.782532 675.231018,685.668213 686.155762,652.863464 
	C659.736145,656.943115 633.897400,660.933105 607.996094,664.932739 
	C607.996094,675.622864 608.422119,685.624268 607.870239,695.571472 
	C607.369324,704.600586 608.960632,711.582092 616.738037,717.848816 
	C627.678589,726.664612 637.213318,737.225098 648.021362,747.349609 
M516.000000,1228.500000 
	C516.000000,1219.748535 516.000000,1210.997192 516.000000,1202.313110 
	C493.944794,1202.313110 472.694092,1202.313110 451.401428,1202.313110 
	C451.401428,1223.997192 451.401428,1245.365601 451.401428,1266.687012 
	C473.055023,1266.687012 494.305695,1266.687012 516.000000,1266.687012 
	C516.000000,1254.085693 516.000000,1241.792847 516.000000,1228.500000 
M2395.130859,705.681519 
	C2395.642822,702.348328 2393.779785,701.942444 2391.015137,701.956543 
	C2373.713623,702.044983 2356.411377,701.996399 2339.109375,702.022522 
	C2338.172607,702.023926 2337.236084,702.289978 2336.433105,702.412476 
	C2336.433105,716.754883 2336.433105,730.777649 2336.433105,744.713135 
	C2356.109131,744.713135 2375.350830,744.713135 2395.132080,744.713135 
	C2395.132080,731.837280 2395.132080,719.240784 2395.130859,705.681519 
M792.798157,291.962921 
	C808.731445,291.962921 824.664734,291.962921 840.574707,291.962921 
	C840.574707,274.961121 840.574707,258.588593 840.574707,242.342514 
	C823.892273,242.342514 807.637207,242.342514 791.105225,242.342514 
	C791.105225,258.649811 791.099548,274.616821 791.137207,290.583771 
	C791.138184,290.988983 791.615662,291.393127 792.798157,291.962921 
z"/>
<path fill="#084B83" opacity="1.000000" stroke="none" 
	d="
M242.222687,496.135620 
	C254.636398,506.914459 266.622223,517.628601 278.628815,528.319397 
	C297.225708,544.878296 315.882050,561.370728 334.425232,577.989441 
	C345.965851,588.332336 357.300201,598.905212 368.810211,609.282715 
	C377.389618,617.018005 386.123199,624.581970 394.749329,632.265808 
	C403.254303,639.841797 411.724548,647.457031 420.182831,655.085205 
	C425.398804,659.789246 430.537537,664.578979 435.758575,669.277405 
	C441.993378,674.888000 448.199951,680.534912 454.582733,685.973633 
	C457.031799,688.060608 458.109497,690.223022 458.081635,693.542969 
	C457.916504,713.206970 458.000244,732.873169 458.000275,752.538574 
	C458.000275,754.175415 458.000275,755.812256 458.000275,757.904724 
	C478.376373,757.904724 498.447479,757.904724 519.358154,757.904724 
	C501.578979,901.191589 483.868591,1043.924072 466.115814,1186.998291 
	C459.924774,1186.998291 454.107819,1187.173218 448.318359,1186.852173 
	C447.142853,1186.787109 445.475037,1185.051270 445.038544,1183.748779 
	C433.620331,1149.679199 422.334900,1115.564819 411.026215,1081.458496 
	C402.631866,1056.141602 394.228943,1030.827759 385.843933,1005.507751 
	C369.205902,955.266357 352.584290,905.019592 335.943390,854.779114 
	C319.561493,805.320496 303.151123,755.871399 286.777222,706.410095 
	C270.149506,656.182129 253.550400,605.944580 236.940170,555.710754 
	C230.753586,537.000916 224.565140,518.291626 218.401596,499.574219 
	C218.051849,498.512115 217.920929,497.377991 217.642303,496.060455 
	C225.827438,496.060455 233.815781,496.060455 242.222687,496.135620 
z"/>
<path fill="#094B83" opacity="1.000000" stroke="none" 
	d="
M530.999023,1201.999878 
	C530.999023,1196.859863 530.999023,1192.217773 530.999023,1187.212280 
	C528.317993,1187.087891 525.895386,1186.975342 522.987122,1186.840332 
	C568.107727,1050.774292 613.155212,914.928589 658.468750,778.280823 
	C666.940796,786.288147 674.749695,793.547485 682.422302,800.948059 
	C694.825867,812.912048 707.057251,825.055359 719.514404,836.962891 
	C732.873291,849.732422 746.456665,862.266663 759.849487,875.001038 
	C767.865417,882.622803 775.708496,890.426453 783.620117,898.157776 
	C788.346619,902.776489 793.174133,907.302429 797.682312,912.126099 
	C798.704590,913.219971 798.939087,915.373291 798.947388,917.041809 
	C799.034180,934.506287 799.000977,951.971313 799.000977,969.885376 
	C811.665710,969.885376 824.041687,969.885376 837.891296,969.885376 
	C735.130859,1053.203491 633.484741,1135.618164 530.999023,1218.713501 
	C530.999023,1212.640381 530.999023,1207.569092 530.999023,1201.999878 
z"/>
<path fill="#094B83" opacity="1.000000" stroke="none" 
	d="
M760.798706,415.287659 
	C762.912231,416.624023 764.281311,417.178619 763.177734,420.319733 
	C757.487183,436.516571 752.301575,452.891174 746.964966,469.212006 
	C740.928467,487.673157 734.950562,506.153534 728.860657,524.597046 
	C728.011780,527.167786 727.231995,529.127747 723.111694,528.274231 
	C710.735168,525.710510 698.158081,524.133545 685.694580,521.967896 
	C666.988770,518.717651 648.333313,515.175110 629.617493,511.985596 
	C616.608337,509.768585 603.512756,508.061584 590.494812,505.892456 
	C579.353455,504.036041 568.296082,501.671783 557.149658,499.850006 
	C544.103455,497.717743 531.023560,495.753174 517.912109,494.076935 
	C512.461548,493.380157 511.984192,489.254028 511.085297,485.530640 
	C508.679047,475.563904 506.578735,465.522858 504.394073,455.503204 
	C500.648224,438.323395 496.952087,421.132721 493.189453,403.956604 
	C491.887451,398.013092 490.378876,392.114594 489.094482,386.167511 
	C487.866058,380.479492 486.806427,374.755035 485.582306,368.591980 
	C501.712433,364.256104 517.884766,359.946747 534.035889,355.559326 
	C565.872253,346.911041 597.727356,338.328125 629.493286,329.427643 
	C634.217590,328.103943 637.723267,328.431702 641.755066,331.333801 
	C659.411804,344.043152 677.294678,356.438263 695.089478,368.955933 
	C716.910339,384.305725 738.725098,399.664093 760.798706,415.287659 
z"/>
<path fill="#5EB1F1" opacity="1.000000" stroke="none" 
	d="
M931.002563,711.998291 
	C948.331787,711.998291 965.162109,712.054260 981.991333,711.945251 
	C984.920532,711.926270 986.580688,712.677368 988.294128,715.386108 
	C1014.331848,756.548828 1040.562866,797.589233 1066.756592,838.653137 
	C1067.709839,840.147583 1068.743530,841.590637 1070.941162,842.801086 
	C1070.941162,799.370728 1070.941162,755.940369 1070.941162,712.264404 
	C1089.704224,712.264404 1107.607422,712.264404 1125.796631,712.264404 
	C1125.796631,789.771606 1125.796631,867.013306 1125.796631,944.550781 
	C1124.676025,944.702026 1123.572510,944.979126 1122.468384,944.981018 
	C1105.638428,945.009094 1088.806763,945.112549 1071.980835,944.852844 
	C1069.998047,944.822266 1067.248657,943.246216 1066.197144,941.552856 
	C1035.019897,891.343262 1004.014282,841.026978 972.966309,790.737061 
	C972.286194,789.635437 971.428345,788.643494 969.883606,786.564270 
	C969.883606,839.911621 969.883606,892.182373 969.883606,944.724731 
	C951.278442,944.724731 933.379639,944.724731 915.187866,944.724731 
	C915.187866,867.233643 915.187866,789.992493 915.187866,711.998291 
	C920.306396,711.998291 925.404846,711.998291 931.002563,711.998291 
z"/>
<path fill="#094B83" opacity="1.000000" stroke="none" 
	d="
M672.313660,771.639954 
	C671.413391,770.734375 670.826660,770.012268 670.098999,769.484314 
	C659.939514,762.112610 666.944458,753.768188 669.126221,746.056519 
	C672.357788,734.634277 676.460327,723.458008 680.209167,712.182678 
	C684.500183,699.276489 688.822388,686.380615 693.105713,673.471863 
	C695.103821,667.450439 696.969971,661.384338 699.036011,655.386719 
	C700.190247,652.035889 701.512756,650.191650 706.236023,649.622498 
	C724.773743,647.388733 743.142639,643.782166 761.602539,640.864380 
	C774.783447,638.780945 788.022400,637.066711 801.212585,635.038940 
	C822.163086,631.817993 843.088928,628.437561 864.036133,625.195190 
	C874.800781,623.528992 885.589050,622.015381 896.776245,620.372681 
	C896.776245,627.109863 896.776245,633.708191 896.776245,640.735229 
	C925.552307,640.735229 953.940063,640.735229 982.327820,640.735229 
	C982.415588,641.050415 982.503357,641.365601 982.591125,641.680725 
	C919.108032,674.178894 855.624878,706.677063 791.679993,739.411621 
	C812.010986,774.541565 832.203003,809.431213 852.726074,844.892944 
	C834.615845,844.892944 817.078857,844.892944 798.804688,844.892944 
	C798.804688,860.793518 798.804688,876.277954 798.804688,891.762451 
	C798.182556,892.132080 797.560486,892.501709 796.938354,892.871338 
	C787.173889,882.657898 777.632080,872.218384 767.570251,862.306824 
	C760.307434,855.152466 752.184814,848.878601 744.757996,841.880615 
	C738.429443,835.917542 732.641785,829.384766 726.444336,823.277100 
	C716.837341,813.809326 707.091858,804.481934 697.392456,795.108154 
	C689.677246,787.651794 681.949097,780.208801 674.201843,772.785828 
	C673.771545,772.373596 673.113586,772.198975 672.313660,771.639954 
z"/>
<path fill="#094B83" opacity="1.000000" stroke="none" 
	d="
M607.998535,753.847351 
	C607.998596,745.769775 607.998596,738.175781 607.998596,729.389587 
	C617.282837,738.382507 625.686523,746.557312 634.132996,754.687561 
	C637.768127,758.186523 641.519958,761.564026 645.165771,765.052063 
	C647.592468,767.373657 648.254272,769.559143 646.596252,773.160522 
	C643.530273,779.820251 641.391602,786.921326 639.068359,793.905701 
	C633.652039,810.188477 628.378540,826.518677 623.004822,842.815674 
	C614.329102,869.126770 605.659485,895.440063 596.911316,921.727051 
	C590.083679,942.243286 583.064636,962.695801 576.267029,983.221863 
	C566.455200,1012.849731 556.800659,1042.529785 547.014221,1072.166016 
	C539.944641,1093.574829 532.730652,1114.935791 525.654724,1136.342529 
	C520.373779,1152.319092 515.245667,1168.346436 509.917358,1184.307007 
	C509.554901,1185.392700 508.096497,1186.858887 507.122437,1186.878296 
	C497.493042,1187.070679 487.858337,1186.994751 478.244324,1186.994751 
	C496.019043,1043.901733 513.741699,901.227905 531.533325,757.998657 
	C533.054504,757.998657 534.834717,757.998718 536.614990,757.998718 
	C559.105591,757.998657 581.596436,757.951050 604.086487,758.057495 
	C606.955566,758.071045 608.634644,757.622620 607.998535,753.847351 
z"/>
<path fill="#5EB1F1" opacity="1.000000" stroke="none" 
	d="
M2098.093750,819.000000 
	C2098.093994,783.212585 2098.093994,747.925110 2098.093994,712.319092 
	C2118.155518,712.319092 2137.736572,712.319092 2157.799805,712.319092 
	C2157.918701,713.691650 2158.148926,715.111633 2158.148926,716.531555 
	C2158.154053,766.023376 2158.220703,815.515503 2158.076416,865.006958 
	C2158.029297,881.182739 2154.403320,896.598206 2145.859863,910.505859 
	C2133.864502,930.032837 2115.431152,940.159851 2093.882324,945.915466 
	C2075.666992,950.780701 2057.052002,950.922791 2038.645508,949.691284 
	C2018.483276,948.342346 1998.828369,943.676208 1982.080078,931.005249 
	C1965.828491,918.710205 1956.212769,902.471985 1953.261475,882.414917 
	C1952.229736,875.402588 1951.831055,868.240417 1951.812622,861.144897 
	C1951.687866,813.153076 1951.742676,765.160767 1951.739380,717.168640 
	C1951.739258,715.690369 1951.739380,714.212158 1951.739380,712.366455 
	C1971.823853,712.366455 1991.529053,712.366455 2011.789062,712.366455 
	C2011.789062,714.541443 2011.786499,716.497070 2011.789307,718.452759 
	C2011.859497,767.943604 2011.510742,817.440613 2012.229614,866.922058 
	C2012.479858,884.149170 2019.438232,898.050537 2035.644165,903.196960 
	C2051.676270,908.288147 2067.750732,908.010071 2082.405762,898.764038 
	C2090.623535,893.579529 2095.163330,884.853699 2095.900635,875.566162 
	C2097.379150,856.936768 2097.444824,838.195251 2098.093750,819.000000 
z"/>
<path fill="#094C83" opacity="1.000000" stroke="none" 
	d="
M293.047180,468.006012 
	C306.951599,470.342285 320.413208,472.715912 333.892487,474.984314 
	C350.487488,477.777069 367.105530,480.433319 383.698334,483.238861 
	C400.614044,486.098969 417.506744,489.094635 434.417572,491.983856 
	C456.028381,495.676056 477.654236,499.281647 499.246338,503.079346 
	C500.617310,503.320465 502.594604,504.698853 502.872162,505.881042 
	C506.728027,522.301941 510.262817,538.797791 514.029724,555.240051 
	C516.623413,566.561462 519.584900,577.799133 522.127380,589.131348 
	C523.500183,595.250000 524.338013,601.488647 525.485474,608.064392 
	C502.946838,608.064392 480.698029,608.064392 457.751648,608.064392 
	C457.751648,628.408081 457.751648,648.410645 457.751648,669.323425 
	C393.075592,611.298462 329.251709,554.038086 264.872955,496.279846 
	C268.393829,496.279846 271.394012,496.279846 274.955109,496.279846 
	C274.955109,485.586945 274.955109,475.359650 274.955109,464.908081 
	C281.230499,466.005768 286.921326,467.001251 293.047180,468.006012 
z"/>
<path fill="#5EB1F1" opacity="1.000000" stroke="none" 
	d="
M1344.229248,833.690796 
	C1344.359131,845.217712 1344.359131,856.308228 1344.359131,867.942261 
	C1302.227905,867.942261 1259.833618,867.942261 1217.523315,867.942261 
	C1215.640991,880.644348 1224.357056,896.269226 1236.470093,902.885681 
	C1246.733154,908.491577 1257.774414,910.568787 1269.337402,911.046265 
	C1293.091064,912.027222 1314.110596,904.589661 1333.459839,891.284119 
	C1335.490967,889.887390 1338.679688,890.173706 1342.027588,889.549377 
	C1342.027588,901.730286 1342.027588,913.010742 1342.027588,924.291260 
	C1342.027588,935.322021 1342.200073,935.923523 1331.712769,938.931152 
	C1318.130493,942.826172 1304.382568,946.667236 1290.438232,948.621033 
	C1277.713135,950.404053 1264.537964,950.786804 1251.726440,949.747925 
	C1228.118164,947.833496 1205.490479,941.946716 1186.819458,926.106812 
	C1177.858398,918.504578 1171.401978,908.937256 1166.796265,898.114685 
	C1162.775391,888.666138 1161.097290,878.790222 1159.925293,868.598633 
	C1157.842651,850.489319 1160.640869,833.127258 1167.525269,816.667175 
	C1170.871216,808.667358 1176.699585,801.495972 1182.307983,794.694641 
	C1195.174194,779.091919 1212.560913,771.211792 1232.081543,767.656799 
	C1255.618896,763.370300 1278.967651,763.574341 1301.563965,772.375977 
	C1323.515625,780.926331 1336.090088,797.775391 1341.918701,820.074158 
	C1343.040161,824.364441 1343.392334,828.855835 1344.229248,833.690796 
M1286.828125,818.903687 
	C1282.934448,808.430420 1275.379028,802.341736 1264.398682,800.804260 
	C1259.659546,800.140625 1254.784424,799.888550 1250.008423,800.145325 
	C1229.962402,801.223083 1217.307983,814.439819 1216.770874,834.657837 
	C1240.809326,834.657837 1264.842773,834.657837 1289.851196,834.657837 
	C1288.847168,829.327637 1287.937500,824.498230 1286.828125,818.903687 
z"/>
<path fill="#5EB1F1" opacity="1.000000" stroke="none" 
	d="
M1824.977905,765.002808 
	C1845.903198,765.578735 1865.828735,768.534302 1883.304932,780.044434 
	C1903.842285,793.570557 1915.254517,813.034241 1919.053833,837.225647 
	C1922.352295,858.227234 1921.324585,878.747192 1913.153809,898.609619 
	C1902.249756,925.116272 1881.715942,939.808960 1854.670898,946.975037 
	C1840.139282,950.825439 1825.322144,950.888916 1810.778198,949.691162 
	C1789.063354,947.902771 1769.092163,940.974060 1753.156250,924.604126 
	C1740.136841,911.230103 1732.568604,895.631409 1730.185303,877.344421 
	C1729.251221,870.176392 1727.928955,862.932495 1728.145996,855.764465 
	C1728.808716,833.890503 1733.641968,813.097107 1747.970093,795.765625 
	C1760.305420,780.844543 1776.429321,771.736206 1795.386719,768.221985 
	C1804.957642,766.447693 1814.780273,766.032227 1824.977905,765.002808 
M1805.223389,808.587219 
	C1798.061035,813.250671 1793.552734,819.938782 1791.133545,827.959412 
	C1785.221313,847.562439 1785.301025,867.288391 1790.954346,886.909058 
	C1793.318481,895.114197 1797.880005,901.961426 1805.577881,906.356873 
	C1826.565552,918.340698 1851.505615,909.118774 1859.067871,886.265015 
	C1864.199219,870.757812 1863.634888,854.816956 1861.333984,838.907349 
	C1860.108398,830.433289 1857.589233,822.289429 1852.016602,815.572083 
	C1841.800171,803.257385 1821.721558,800.142639 1805.223389,808.587219 
z"/>
<path fill="#5EB1F1" opacity="1.000000" stroke="none" 
	d="
M1375.698120,908.317017 
	C1374.703003,899.953308 1373.286865,891.960449 1373.232544,883.958252 
	C1372.984863,847.470276 1373.117554,810.979736 1373.126587,774.490112 
	C1373.126831,773.194397 1373.264038,771.898682 1373.354004,770.309692 
	C1392.167236,770.309692 1410.708252,770.309692 1429.789917,770.309692 
	C1429.789917,772.391846 1429.786621,774.182007 1429.790405,775.972229 
	C1429.860352,808.962097 1429.776001,841.953735 1430.151245,874.940125 
	C1430.215454,880.595215 1431.563843,886.474548 1433.510132,891.816284 
	C1436.872070,901.043579 1444.840820,904.249756 1453.968140,904.972107 
	C1466.751587,905.983826 1478.420288,902.437500 1489.541626,896.312805 
	C1492.817749,894.508606 1493.156616,892.112488 1493.151978,888.951782 
	C1493.097656,851.462463 1493.117065,813.973145 1493.117065,776.483765 
	C1493.117065,774.526184 1493.117065,772.568542 1493.117065,770.307617 
	C1511.870850,770.307617 1530.114380,770.307617 1548.755127,770.307617 
	C1548.755127,828.373352 1548.755127,886.390076 1548.755127,944.705017 
	C1530.374390,944.705017 1512.122192,944.705017 1493.286987,944.705017 
	C1493.286987,938.926514 1493.286987,933.188110 1493.286987,926.319946 
	C1491.027222,927.603760 1489.613159,928.259705 1488.358643,929.142517 
	C1475.448730,938.227234 1462.401001,947.297241 1446.248779,949.265137 
	C1425.693604,951.769470 1405.744385,949.991821 1389.827759,934.863708 
	C1382.521484,927.919617 1377.697266,918.925964 1375.698120,908.317017 
z"/>
<path fill="#5EB1F1" opacity="1.000000" stroke="none" 
	d="
M2599.995605,949.978638 
	C2576.764160,950.734558 2554.635254,947.447449 2533.123535,940.048767 
	C2530.807617,939.252197 2528.390869,938.625366 2526.255127,937.481934 
	C2525.211182,936.923035 2524.066406,935.362915 2524.055176,934.244934 
	C2523.908691,919.765930 2523.958252,905.284973 2523.958252,889.731750 
	C2526.484131,890.299927 2528.943359,890.201538 2530.565918,891.318542 
	C2547.591553,903.036987 2566.603760,909.581360 2586.910645,911.687500 
	C2597.852783,912.822388 2609.190674,913.313721 2619.915771,909.260864 
	C2624.874512,907.387085 2629.482666,905.221375 2630.162842,898.713440 
	C2630.797852,892.636169 2626.057373,887.624817 2617.708008,885.869202 
	C2602.856201,882.746155 2587.838867,880.358215 2573.077881,876.870789 
	C2560.887695,873.990601 2549.211182,869.289368 2539.618164,860.888306 
	C2531.805176,854.045898 2527.387939,844.918091 2525.187988,834.929688 
	C2522.463867,822.564453 2524.294189,810.640747 2530.947510,799.785583 
	C2539.496338,785.837708 2552.226318,777.111572 2567.545654,772.100403 
	C2586.837402,765.789917 2606.564697,764.155945 2626.848877,765.793091 
	C2642.800049,767.080566 2658.162354,770.387146 2673.378906,774.973022 
	C2678.166504,776.415894 2680.476074,778.609436 2680.206787,784.293213 
	C2679.624268,796.578003 2680.027588,808.909485 2680.027588,822.601746 
	C2676.614746,821.576721 2673.535156,821.256592 2671.115967,819.822205 
	C2659.727295,813.069092 2647.695801,807.848572 2634.711426,805.439941 
	C2619.921631,802.696533 2605.000488,801.546753 2590.428955,806.999512 
	C2585.836182,808.718201 2582.239014,811.438416 2582.010254,816.905029 
	C2581.777344,822.467041 2583.975830,826.614502 2589.759521,828.264282 
	C2600.351562,831.285522 2611.124268,833.757751 2621.927002,835.936279 
	C2638.602783,839.299133 2655.485107,841.653748 2669.898926,851.963684 
	C2684.274658,862.246277 2689.682373,880.610474 2687.401123,895.889343 
	C2682.903564,926.011841 2661.021484,938.071594 2635.202148,945.710754 
	C2623.946289,949.041016 2612.289551,950.387878 2599.995605,949.978638 
z"/>
<path fill="#094B83" opacity="1.000000" stroke="none" 
	d="
M607.998657,629.000122 
	C607.998657,621.860291 607.998657,615.220459 607.998657,608.135986 
	C584.647766,608.135986 561.573914,608.135986 538.692200,608.135986 
	C536.260803,597.393799 533.873413,587.132019 531.623108,576.840210 
	C527.801208,559.361206 524.098999,541.856079 520.273254,524.377991 
	C519.142151,519.210632 518.016968,514.016846 516.413818,508.986603 
	C515.296265,505.480255 517.760925,505.058685 519.546509,505.326904 
	C525.690918,506.249908 531.751404,507.721100 537.855896,508.922455 
	C546.593140,510.641876 555.316345,512.450134 564.090271,513.960754 
	C575.538452,515.931763 587.040039,517.590027 598.500732,519.490906 
	C611.194641,521.596375 623.869812,523.815491 636.550476,526.000305 
	C651.527405,528.580872 666.490967,531.240784 681.479980,533.748657 
	C695.137939,536.033997 708.822205,538.162109 723.151733,540.465027 
	C720.374329,549.107910 717.628967,557.435181 715.024780,565.806396 
	C711.222290,578.029724 707.756714,590.363098 703.709595,602.503662 
	C699.786499,614.272339 695.416077,625.897583 690.948303,637.472412 
	C690.361816,638.991943 688.154358,640.604248 686.490906,640.867615 
	C678.377991,642.152222 670.180908,642.892029 662.039917,644.015442 
	C650.631165,645.589844 639.225281,647.207153 627.858276,649.053223 
	C621.485107,650.088257 615.192871,651.621582 607.998657,653.109375 
	C607.998657,644.363525 607.998657,636.931824 607.998657,629.000122 
z"/>
<path fill="#094C83" opacity="1.000000" stroke="none" 
	d="
M409.706238,375.429565 
	C400.759125,378.004852 392.167053,380.324005 383.605133,382.749695 
	C367.321655,387.362915 351.085052,392.144379 334.771393,396.647369 
	C324.228088,399.557617 313.563873,402.026825 302.988708,404.825439 
	C294.898468,406.966431 286.868164,409.333069 278.796661,411.546234 
	C277.721924,411.840912 276.561493,411.822845 275.091949,411.989075 
	C275.091949,403.477844 274.501404,395.114563 275.377258,386.907776 
	C275.736786,383.538513 278.971954,380.267670 281.393890,377.364960 
	C289.618958,367.507019 298.051605,357.821899 306.430206,348.092499 
	C315.516205,337.541718 324.663208,327.043274 333.721985,316.469269 
	C340.882355,308.111237 347.916077,299.644745 355.067352,291.278839 
	C362.709534,282.338684 370.469299,273.498962 378.095947,264.545715 
	C390.611298,249.853302 403.038239,235.085449 415.595917,220.429474 
	C416.319244,219.585251 417.873047,219.084564 419.053162,219.060837 
	C425.536285,218.930435 432.023376,218.998596 438.950104,218.998596 
	C449.408600,265.795319 459.836578,312.455597 470.192078,358.791443 
	C461.534729,361.563904 453.313507,364.436066 444.950073,366.806580 
	C436.856018,369.100769 428.620117,370.897156 420.437408,372.874664 
	C416.995239,373.706604 413.529785,374.442169 409.706238,375.429565 
z"/>
<path fill="#5EB1F1" opacity="1.000000" stroke="none" 
	d="
M2204.012451,808.171509 
	C2196.898926,808.171509 2189.785645,808.171509 2182.290527,808.171509 
	C2182.290527,795.321228 2182.290527,782.988098 2182.290527,769.958923 
	C2189.252441,769.958923 2196.166992,769.958923 2203.779297,769.886597 
	C2204.807617,769.637695 2204.912354,769.372131 2204.791260,769.017517 
	C2204.791260,752.918274 2204.791260,736.818970 2204.791260,720.360779 
	C2223.656250,720.360779 2242.002930,720.360779 2261.063965,720.360779 
	C2261.063965,736.295837 2261.063965,752.188599 2261.118652,768.786682 
	C2261.351318,769.827148 2261.622803,769.944153 2261.988281,769.843079 
	C2279.056396,769.843079 2296.124268,769.843079 2313.500000,769.843079 
	C2313.500000,782.720398 2313.500000,794.938721 2313.500000,808.037903 
	C2296.630615,808.037903 2279.775146,808.037903 2262.214844,808.103271 
	C2261.173096,808.348877 2261.062012,808.621277 2261.176758,808.985901 
	C2261.153564,834.962952 2260.671631,860.950256 2261.253174,886.913757 
	C2261.714600,907.502075 2275.643555,911.785767 2293.003174,909.513489 
	C2297.825684,908.882141 2302.431885,906.705627 2307.197021,905.468201 
	C2309.067383,904.982483 2311.101807,905.128174 2313.493408,904.955017 
	C2313.616211,906.753357 2313.793701,908.192200 2313.799072,909.631714 
	C2313.827393,917.292236 2313.812500,924.953003 2313.812500,932.613647 
	C2313.812500,944.008301 2313.055664,945.138855 2301.556641,945.898499 
	C2286.890137,946.867371 2272.114258,948.554565 2257.523193,947.668640 
	C2240.488770,946.634338 2223.785156,942.611755 2213.393311,926.764160 
	C2207.979980,918.509216 2205.257812,909.242920 2205.206787,899.339172 
	C2205.053711,869.531189 2205.002930,839.722717 2204.858398,809.215820 
	C2204.632568,808.191101 2204.368652,808.075867 2204.012451,808.171509 
z"/>
<path fill="#094B83" opacity="1.000000" stroke="none" 
	d="
M494.998810,203.839325 
	C494.998810,193.708786 494.998810,184.057663 494.998810,173.779984 
	C510.469208,178.680084 525.528992,183.413269 540.565186,188.220459 
	C571.058044,197.969238 601.520020,207.815109 632.028198,217.515701 
	C668.417542,229.086304 704.844666,240.537872 741.249573,252.059753 
	C752.671143,255.674606 764.002197,259.601471 775.520386,262.872131 
	C780.048645,264.157990 781.837219,266.232147 781.030945,270.763153 
	C780.830933,271.886902 781.001099,273.076477 781.001099,274.570282 
	C764.444275,279.067047 747.927002,283.540100 731.417053,288.040009 
	C702.821411,295.833832 674.178711,303.462982 645.676147,311.583862 
	C639.116882,313.452759 635.780273,309.024689 631.730591,306.251495 
	C614.743958,294.619019 598.012695,282.613434 581.191528,270.739471 
	C560.055176,255.819443 538.945190,240.861694 517.773254,225.992371 
	C511.719452,221.740738 505.675568,217.416122 499.274048,213.739883 
	C495.206085,211.403763 494.594330,208.284439 494.998810,203.839325 
z"/>
<path fill="#0A4C83" opacity="1.000000" stroke="none" 
	d="
M275.141418,426.685974 
	C284.397614,423.599060 293.559448,421.009003 302.671631,418.254761 
	C311.417480,415.611206 320.077911,412.681061 328.847290,410.121460 
	C331.922272,409.223907 335.292816,409.353516 338.384155,408.494812 
	C348.230591,405.759766 357.962280,402.607178 367.825592,399.938538 
	C380.660156,396.465973 393.618256,393.449341 406.449493,389.965118 
	C419.270508,386.483643 431.955353,382.498901 444.785950,379.055267 
	C453.879974,376.614502 463.117035,374.706665 473.194824,372.349335 
	C481.786499,410.777405 490.485474,449.685455 499.549835,490.227692 
	C461.778473,484.039185 424.860107,478.121124 387.990570,471.913239 
	C350.415741,465.586639 312.888916,458.975006 275.025360,452.433594 
	C275.025360,444.054230 275.025360,435.582611 275.141418,426.685974 
z"/>
<path fill="#5EB1F1" opacity="1.000000" stroke="none" 
	d="
M2481.974609,945.001892 
	C2466.845703,945.001892 2452.213623,945.001892 2437.209717,945.001892 
	C2437.209717,863.928101 2437.209717,783.255920 2437.209717,702.290649 
	C2455.623047,702.290649 2473.872314,702.290649 2492.490479,702.290649 
	C2492.490479,783.057800 2492.490479,863.739075 2492.490479,945.001892 
	C2489.040039,945.001892 2485.755615,945.001892 2481.974609,945.001892 
z"/>
<path fill="#0A4C83" opacity="1.000000" stroke="none" 
	d="
M842.742310,324.234497 
	C873.911133,371.188751 904.820190,417.878723 936.059692,465.067841 
	C922.755859,465.067841 910.150635,465.067841 897.125732,465.067841 
	C897.125732,474.233826 897.125732,483.156372 897.125732,493.644958 
	C857.347290,465.638916 818.588806,438.350952 780.126709,411.271698 
	C784.303101,398.710754 788.264404,386.730469 792.270264,374.765106 
	C797.417175,359.391388 802.650208,344.046204 807.744263,328.655060 
	C810.009399,321.810944 811.862000,314.827026 814.248413,308.028198 
	C815.022644,305.822418 816.916199,302.311005 818.266357,302.325470 
	C822.261475,302.368286 827.054993,299.666199 830.195251,305.260254 
	C833.838806,311.750793 838.348694,317.755005 842.742310,324.234497 
z"/>
<path fill="#5EB1F1" opacity="1.000000" stroke="none" 
	d="
M1595.242676,944.980835 
	C1594.123535,943.849731 1592.920166,942.735046 1592.918823,941.618774 
	C1592.847168,884.988098 1592.877563,828.357361 1592.908447,771.726562 
	C1592.908691,771.408630 1593.069946,771.090759 1593.260864,770.385620 
	C1611.520874,770.385620 1629.886719,770.385620 1648.706543,770.385620 
	C1648.706543,778.422302 1648.706543,786.338684 1648.706543,795.459534 
	C1669.401489,777.032654 1691.962524,766.943970 1719.540771,770.905701 
	C1719.540771,788.691650 1719.540771,805.949707 1719.540771,823.658691 
	C1718.049316,823.766602 1716.612549,824.049438 1715.205322,823.942444 
	C1707.497803,823.356812 1699.776855,821.960938 1692.099365,822.184082 
	C1678.449097,822.580688 1664.621216,822.745056 1651.703003,828.088196 
	C1650.265991,828.682495 1648.995239,831.578064 1648.979248,833.418091 
	C1648.791382,854.903076 1648.858643,876.390381 1648.858643,897.877014 
	C1648.858643,913.338379 1648.858643,928.799744 1648.858643,944.996521 
	C1630.879639,944.996521 1613.299438,944.996521 1595.242676,944.980835 
z"/>
<path fill="#5DB1F1" opacity="1.000000" stroke="none" 
	d="
M973.000000,623.000000 
	C953.541077,623.000000 934.582153,623.000000 915.313232,623.000000 
	C915.313232,576.306641 915.313232,530.058594 915.313232,483.404907 
	C926.627380,483.404907 937.999634,483.404907 949.823853,483.404907 
	C949.823853,518.029724 949.823853,552.615173 949.823853,587.599121 
	C973.303833,587.599121 996.340271,587.599121 1019.826538,587.599121 
	C1019.826538,552.967651 1019.826538,518.382385 1019.826538,483.399597 
	C1031.638428,483.399597 1043.010620,483.399597 1054.693481,483.399597 
	C1054.693481,529.706665 1054.693481,575.954773 1054.693481,623.000000 
	C1027.654175,623.000000 1000.577087,623.000000 973.000000,623.000000 
z"/>
<path fill="#0A4C83" opacity="1.000000" stroke="none" 
	d="
M750.826904,545.032776 
	C758.281006,546.372314 765.277649,547.785156 772.312195,548.973145 
	C785.757263,551.243591 799.230591,553.346375 812.679932,555.591797 
	C829.228271,558.354614 845.759827,561.217834 862.307007,563.987732 
	C872.947571,565.768921 883.617676,567.380127 894.229797,569.313354 
	C895.311340,569.510376 896.859436,571.384705 896.880676,572.505554 
	C897.082581,583.160156 897.100098,593.822388 896.859680,604.475342 
	C896.833374,605.640503 894.984375,607.586487 893.760315,607.780762 
	C871.485779,611.316772 849.163818,614.552307 826.881042,618.037903 
	C811.362061,620.465393 795.904724,623.286499 780.387390,625.725220 
	C764.132446,628.279907 747.829529,630.528870 731.566833,633.036072 
	C725.997009,633.894775 720.497498,635.201294 714.941711,636.163452 
	C712.100281,636.655640 709.205383,636.839172 705.440735,637.262695 
	C707.550598,630.405029 709.307495,624.369995 711.264282,618.400513 
	C715.534058,605.374512 719.922852,592.387634 724.229858,579.373840 
	C727.931763,568.188721 731.468933,556.946045 735.427551,545.853149 
	C735.877319,544.592834 738.595947,543.422424 740.236511,543.456726 
	C743.629150,543.527832 747.004211,544.438904 750.826904,545.032776 
z"/>
<path fill="#0A4C83" opacity="1.000000" stroke="none" 
	d="
M472.247925,311.553284 
	C471.081421,305.366577 470.368988,299.515472 469.073914,293.796265 
	C466.580231,282.783875 463.601837,271.881165 461.109680,260.868439 
	C458.010284,247.172394 455.199615,233.411011 452.122803,219.016205 
	C462.003235,219.016205 471.991058,218.224792 481.747620,219.382385 
	C486.007202,219.887756 489.846558,224.308929 493.783569,227.084045 
	C503.474792,233.915176 513.098572,240.841934 522.773804,247.695877 
	C543.067139,262.071533 563.342468,276.473053 583.691101,290.770203 
	C596.337585,299.655731 609.104797,308.369507 622.510620,317.639465 
	C575.593689,330.409058 529.471680,342.962280 482.776764,355.671448 
	C479.343384,341.150482 475.891083,326.549500 472.247925,311.553284 
z"/>
<path fill="#094C83" opacity="1.000000" stroke="none" 
	d="
M753.208496,490.502380 
	C757.888306,477.191437 762.453064,464.276337 766.910461,451.324280 
	C769.762573,443.036743 772.456055,434.694672 775.439331,425.718842 
	C782.703430,430.723083 789.513428,435.299988 796.201355,440.048798 
	C806.178711,447.133240 816.013733,454.418518 826.011353,461.473846 
	C840.316895,471.569244 854.718506,481.528412 869.071228,491.556976 
	C877.615906,497.527313 886.172668,503.481323 894.646912,509.550323 
	C895.677185,510.288177 896.888000,511.689880 896.899536,512.795532 
	C897.050171,527.244812 896.999634,541.696228 896.999634,556.996399 
	C893.031860,556.602051 889.507996,556.479492 886.070251,555.870605 
	C871.653198,553.316956 857.288513,550.460999 842.852844,548.022217 
	C831.549316,546.112549 820.137451,544.845215 808.832581,542.942688 
	C796.673767,540.896423 784.604919,538.319153 772.456482,536.205811 
	C763.284363,534.610291 754.055908,533.329346 744.837402,532.014343 
	C741.528076,531.542297 740.687439,529.542358 741.958008,525.974548 
	C745.817017,515.138672 749.496643,504.238556 753.178894,493.340729 
	C753.422974,492.618591 753.104736,491.706421 753.208496,490.502380 
z"/>
<path fill="#5DB1F1" opacity="1.000000" stroke="none" 
	d="
M538.000000,633.000000 
	C553.126709,633.000000 567.753479,633.000000 582.687866,633.000000 
	C582.687866,666.363953 582.687866,699.281006 582.687866,732.599487 
	C549.695618,732.599487 516.660706,732.599487 483.312134,732.599487 
	C483.312134,699.636169 483.312134,666.719055 483.312134,633.000000 
	C501.340912,633.000000 519.420471,633.000000 538.000000,633.000000 
z"/>
<path fill="#5EB1F1" opacity="1.000000" stroke="none" 
	d="
M2337.834473,934.970825 
	C2337.834473,879.871765 2337.834473,825.267029 2337.834473,770.330811 
	C2356.531738,770.330811 2374.783691,770.330811 2393.447754,770.330811 
	C2393.447754,828.297058 2393.447754,886.313843 2393.447754,944.666748 
	C2375.150635,944.666748 2356.913574,944.666748 2337.834717,944.666748 
	C2337.834717,941.624512 2337.834717,938.544861 2337.834473,934.970825 
z"/>
<path fill="#0A4C83" opacity="1.000000" stroke="none" 
	d="
M781.159790,365.345825 
	C777.026550,378.150085 773.019897,390.571930 769.004150,403.022064 
	C730.974731,376.183868 693.333862,349.619904 655.092773,322.632355 
	C697.469055,311.130798 738.932495,299.876984 780.946533,288.473724 
	C780.946533,293.284302 780.946533,297.387238 780.946533,301.889038 
	C788.089661,301.889038 794.852661,301.889038 802.557495,301.889038 
	C795.321106,323.346832 788.303772,344.155121 781.159790,365.345825 
z"/>
<path fill="#66B4F1" opacity="1.000000" stroke="none" 
	d="
M223.291946,435.673553 
	C225.360565,438.189423 227.214706,440.416046 229.916351,443.660461 
	C229.916351,417.113373 229.916351,391.913605 229.916351,366.358765 
	C238.275360,366.358765 246.192734,366.358765 254.557495,366.358765 
	C254.557495,402.564026 254.557495,438.916016 254.557495,475.955750 
	C246.901932,475.955750 239.137024,476.125092 231.392639,475.802338 
	C229.969818,475.743042 228.354935,473.899109 227.293106,472.521088 
	C208.837555,448.569397 190.456299,424.560425 172.043091,400.576080 
	C171.690613,400.116943 171.148178,399.803619 170.008469,398.845886 
	C170.008469,424.924072 170.008469,450.135712 170.008469,475.671448 
	C161.660614,475.671448 153.742752,475.671448 145.410095,475.671448 
	C145.410095,439.380157 145.410095,403.025726 145.410095,366.024078 
	C153.001083,366.024078 160.602463,365.942078 168.197906,366.117401 
	C169.268524,366.142120 170.592300,367.206299 171.323700,368.155487 
	C187.373154,388.984619 203.353180,409.867249 219.355011,430.733093 
	C220.563187,432.308533 221.835159,433.835052 223.291946,435.673553 
z"/>
<path fill="#5DB1F1" opacity="1.000000" stroke="none" 
	d="
M400.000000,188.995911 
	C400.000000,167.205597 400.000000,145.914719 400.000000,124.313431 
	C426.694122,124.313431 452.944763,124.313431 479.598267,124.313431 
	C479.598267,150.634613 479.598267,177.003036 479.598267,203.686737 
	C453.305542,203.686737 427.054901,203.686737 400.000000,203.686737 
	C400.000000,199.004929 400.000000,194.250137 400.000000,188.995911 
z"/>
<path fill="#5DB1F1" opacity="1.000000" stroke="none" 
	d="
M899.000000,921.000000 
	C899.000000,929.127869 899.000000,936.755737 899.000000,944.688843 
	C873.968018,944.688843 849.384216,944.688843 824.399536,944.688843 
	C824.399536,920.027832 824.399536,895.326172 824.399536,870.311157 
	C849.031860,870.311157 873.615723,870.311157 899.000000,870.311157 
	C899.000000,887.008850 899.000000,903.754456 899.000000,921.000000 
z"/>
<path fill="#094C83" opacity="1.000000" stroke="none" 
	d="
M281.776367,307.720154 
	C292.088562,296.400909 302.197113,285.378967 312.206909,274.268005 
	C323.421906,261.819214 334.532593,249.276489 345.720947,236.803589 
	C349.122894,233.011047 352.630219,229.313019 356.091888,225.574112 
	C365.456329,215.459717 374.822174,205.346634 384.957336,194.401611 
	C384.957336,203.189529 384.957336,210.886047 384.957336,218.818207 
	C389.368561,218.818207 393.320038,218.818207 398.017090,218.818207 
	C356.912018,267.024994 316.245087,314.717926 275.106750,362.963745 
	C275.106750,357.131134 275.106750,351.792969 275.106750,346.010986 
	C265.591095,346.010986 256.560120,346.010986 246.555328,346.010986 
	C258.668762,332.838013 270.098969,320.408112 281.776367,307.720154 
z"/>
<path fill="#0A4C84" opacity="1.000000" stroke="none" 
	d="
M647.685303,747.194580 
	C637.213318,737.225098 627.678589,726.664612 616.738037,717.848816 
	C608.960632,711.582092 607.369324,704.600586 607.870239,695.571472 
	C608.422119,685.624268 607.996094,675.622864 607.996094,664.932739 
	C633.897400,660.933105 659.736145,656.943115 686.155762,652.863464 
	C675.231018,685.668213 664.203186,718.782532 652.949646,752.574524 
	C650.954651,750.459473 649.488037,748.904541 647.685303,747.194580 
z"/>
<path fill="#5DB1F1" opacity="1.000000" stroke="none" 
	d="
M516.000000,1229.000000 
	C516.000000,1241.792847 516.000000,1254.085693 516.000000,1266.687012 
	C494.305695,1266.687012 473.055023,1266.687012 451.401428,1266.687012 
	C451.401428,1245.365601 451.401428,1223.997192 451.401428,1202.313110 
	C472.694092,1202.313110 493.944794,1202.313110 516.000000,1202.313110 
	C516.000000,1210.997192 516.000000,1219.748535 516.000000,1229.000000 
z"/>
<path fill="#5DB1F1" opacity="1.000000" stroke="none" 
	d="
M2395.131348,706.162842 
	C2395.132080,719.240784 2395.132080,731.837280 2395.132080,744.713135 
	C2375.350830,744.713135 2356.109131,744.713135 2336.433105,744.713135 
	C2336.433105,730.777649 2336.433105,716.754883 2336.433105,702.412476 
	C2337.236084,702.289978 2338.172607,702.023926 2339.109375,702.022522 
	C2356.411377,701.996399 2373.713623,702.044983 2391.015137,701.956543 
	C2393.779785,701.942444 2395.642822,702.348328 2395.131348,706.162842 
z"/>
<path fill="#5DB1F1" opacity="1.000000" stroke="none" 
	d="
M792.334534,291.880341 
	C791.615662,291.393127 791.138184,290.988983 791.137207,290.583771 
	C791.099548,274.616821 791.105225,258.649811 791.105225,242.342514 
	C807.637207,242.342514 823.892273,242.342514 840.574707,242.342514 
	C840.574707,258.588593 840.574707,274.961121 840.574707,291.962921 
	C824.664734,291.962921 808.731445,291.962921 792.334534,291.880341 
z"/>
<path fill="#F3F8FE" opacity="1.000000" stroke="none" 
	d="
M2204.102783,808.341492 
	C2204.368652,808.075867 2204.632568,808.191101 2204.798096,808.749756 
	C2204.547363,808.882324 2204.347656,808.725403 2204.102783,808.341492 
z"/>
<path fill="#F3F8FE" opacity="1.000000" stroke="none" 
	d="
M2261.349609,808.888306 
	C2261.062012,808.621277 2261.173096,808.348877 2261.749023,808.162781 
	C2261.891602,808.411438 2261.736328,808.622681 2261.349609,808.888306 
z"/>
<path fill="#F3F8FE" opacity="1.000000" stroke="none" 
	d="
M2261.894043,769.668213 
	C2261.622803,769.944153 2261.351318,769.827148 2261.175293,769.253052 
	C2261.429932,769.114746 2261.637695,769.274536 2261.894043,769.668213 
z"/>
<path fill="#F3F8FE" opacity="1.000000" stroke="none" 
	d="
M2204.624756,769.113892 
	C2204.912354,769.372131 2204.807617,769.637695 2204.244629,769.821411 
	C2204.104492,769.581604 2204.253174,769.375488 2204.624756,769.113892 
z"/>
<path fill="#FEFEFF" opacity="1.000000" stroke="none" 
	d="
M1286.927979,819.286255 
	C1287.937500,824.498230 1288.847168,829.327637 1289.851196,834.657837 
	C1264.842773,834.657837 1240.809326,834.657837 1216.770874,834.657837 
	C1217.307983,814.439819 1229.962402,801.223083 1250.008423,800.145325 
	C1254.784424,799.888550 1259.659546,800.140625 1264.398682,800.804260 
	C1275.379028,802.341736 1282.934448,808.430420 1286.927979,819.286255 
z"/>
<path fill="#FEFEFF" opacity="1.000000" stroke="none" 
	d="
M1805.533325,808.380310 
	C1821.721558,800.142639 1841.800171,803.257385 1852.016602,815.572083 
	C1857.589233,822.289429 1860.108398,830.433289 1861.333984,838.907349 
	C1863.634888,854.816956 1864.199219,870.757812 1859.067871,886.265015 
	C1851.505615,909.118774 1826.565552,918.340698 1805.577881,906.356873 
	C1797.880005,901.961426 1793.318481,895.114197 1790.954346,886.909058 
	C1785.301025,867.288391 1785.221313,847.562439 1791.133545,827.959412 
	C1793.552734,819.938782 1798.061035,813.250671 1805.533325,808.380310 
z"/>
</svg>